<mxfile host="drawio-plugin" modified="2024-01-27T08:09:54.483Z" agent="5.0 (Windows NT 6.2; Win64; x64) AppleWebKit/537.36 (KHTML, like Gecko) Chrome/104.0.5112.102 Safari/537.36" version="20.5.3" etag="20boFctnPZdiU_B2iYu5" type="embed"><diagram id="N3fp8v9Sv03kFCRPxPjU" name="Page-1"><mxGraphModel dx="640" dy="563" grid="0" gridSize="10" guides="1" tooltips="1" connect="1" arrows="1" fold="1" page="0" pageScale="1" pageWidth="850" pageHeight="1100" math="0" shadow="0"><root><mxCell id="0"/><mxCell id="1" parent="0"/><mxCell id="2" value="" style="shape=image;verticalLabelPosition=bottom;labelBackgroundColor=default;verticalAlign=top;aspect=fixed;imageAspect=0;image=data:image/png,iVBORw0KGgoAAAANSUhEUgAAAggAAAGiCAYAAACCkz52AAAAAXNSR0IArs4c6QAAIABJREFUeF7sXQV4FUfXfq/EHYI7lNJCcbfiFGuLu7uT4AkWQkiIAUHiCe7uDoHgUNxKgiXBidv1+z9ndm9y40qbfn/2e/qVcndnZ8/MnHnnPSZIjk9U6+jrAQLk7VIDaqUKCrkcMpksx2fVAMQ6OtDR1YFIJMr7+3J8Q/ENxRIolkCxBIolUCyBYgkUlgQE8mSpWqgjzv2GTcBArYZKqYJcJmMAgS6BIBVh0O/p/47+W6ynCx0dXQiFgty/r7C+tLidYgkUS6BYAsUSKJZAsQRyLQGBQqZQC2jD1lw5MAlqpRpyuZz9o1Yq2VNCoZCBBrqIHaA/qfjftHuiq68PHR0dQJjr/hXtG1U5dO9/5TuL0ijQ5OKmWvYXzeO8smLaLeb2PTn143v9XtDv+179Km63WALFEvifkYBAqVDmRt1yylYFyKVSZlIgQECsAf2jUqmYzqbNX0cshlKpZPdoswoisRi6eroQknkhl2Ak242gIMr/nxq+nCT7X/iGf0pWxe8plkCxBIolUCyBIiUBgUqpynob0/qFGAEyJzDmQK1OwxrQF4nFYujo6ZH9AVKplDEIKaYGoRC6urrMB0EbNPzPMAlFakiLO1MsgWIJFEugWALFEii4BAQqFQ8QNGCA/7caaigVCrahK1UEDpRQqZSM3iWTArvIrCAQQCQUQqQj5tgEpRJKzb28X4KA/10oEECdy1OzIBf8MPWx+Cq4BLRl/W/KNDdjXvCvLW6hWAK8+spGfxR0LhZ0HWneT+0UtC/fc7xFYhHXv1zq9e/Zl+K2C18CHEDIZJ/9+9lzOKx0AJkGGBugZfqluUD/rTGDktmANn+6yNxA/zD8wPeXfmH3kK9CHr8hu4VWlBdOHj+z+PZiCRRLoFgCKRJgwIB0ai4VZkEBSZ5FrwYzJc+cORMNGjbgfMuKr/85CWRqYiDTwO0bN9GybWuULVMGFiZmzFygPQnVWlELGqkw4MAmNA8fCFimu4/9XFC0qQbzcYiKikLZsmX/vUHJ4jvkcgWio6JQokQJiClCJJeL/Lt/iABQKBRIiE+AoaEh9PT0UsxA3/3duXgBKZzExCQ2f8zMzNLMtwyP/8MyValVSEpMgkKpgLmZeeoc/p790J5f6d+j9RutuYSEBCiVCpiamEIoEhapOZecnAy5TA4DQwNuI/meMsvFPOM0FKejyGwanxAPAwMDGOgbcE9rTkC5bCvL2wqi5/hosajoKBgZGrG1mv5Kr1sL2t2cnk9hMwRAZGQkJMkSbNu2Dd17dM+0fzm1V/x70ZdAlgDh+tVraNexPVYuX4Fhg4ewjYU5JQoFEIrEEIiFGUMblSooFUqoyWmR0QucE6NIl/M9KIx1R+0QWHn79i1279qNBQsXZAAh/4TYs1qcpKw/fvyA3bt3Y8zoMbAoYVFkNmHq86ePn3D+/Hk0atwItevUhjobF5R/Qo4p4FIgQGxsLG7fug2ZXIaevXoWmb5RHyUSCW7evImoqGj07v0nF63DR+78k3LK6l3BwcH4+vUrunbtChNTU4bUi0L/SF/8dfcvfHj/AQ0bNkTFShWLRL8YDhAIEB4ejkuXLqFBgwaoX78+dxAqpHEtSDvEtiYmJuLgwYOsb7Vr10417f6LE06j99auXYvjx4/Dzd0NnTt3Zj5mxdf/ngQEapXWauDzG5CJ4Nq1a+jYpRO8N3hi7NixzDmRJgc5GpK/QZrdnkU4qKGQyaGUK5iUNL4GpEjF+rqpdrSCoGpe/nTSDA0Jha+PD1xcXZkPBLRDNf/NcVIDERER8PbyhpW1FSxLWf6bvcnwblKIR48cRZs2bVC/Qf0i1TfafIMvX0FSchKGDB1SpPpGp+BLFy+xTXj4iOFcsq8ictFGdPrUaXz+/Bl9+vZh7EtRuq5dvYaI8Ai0aNkCVapWKUpdQ9i7MJw4cQJNmjRB02ZNi1Tf4uPjERgQiNatW6NRo0YcM1RErhUrVmDP7j1wcXUpBghFZEy+RzcEaiXFK3LJj2hzl0mlTPndvHWLAQTPdRswZswY9jv5IzDKPL15QQCo5EpIk5OZ/wE75fP5ESi0UUS0YiEAA40AFHIFXv79Et7e3nB2doaOSMT6JqAFVIjvyY/ASU6kDL08vTB7zuwiCRCOHD6CNm3aokHDIgYQIqNw+fJlFgUzeMjg/Ij/uz2jAQhfvnxhAIGidorEpSZsrsKpk6cYQOjXrx/MzIsWQAgOvorwd2Fo2aolqlWvViTEpunEu7fvcOL4CTRp1gTNmjUrUn2Li4tDQEAg2hBAaNyoSIHSFfYrsGdPMUAoUhPmO3SGMQiUMpkYAopaoA2elN+NmzfRqWtneK3fiHHjxnEmApGImRjSXFrsAYGLNABBJIKevj5EOlmctjSejrn8MAZiFErW11c8g+Do5MQcJMW6lMZZN2P/ctl2Yd2WAhC8vDB7dtEFCG3btEX9YoCQ62EvBgi5FlWGG8n8Ef4uvBgg5FGERR0gkBnV1c216DII2l7yeZR98e2cBARKuVJNyY80JgT6SwIIZG/t2LUzvDd6YcLkiZxjUWYbOp1gKDGSVMacpOjSjIuOni6zTWUAFdo3sV7kPByqlAyOlIBJiNevXsHP1xeOK1em+EboGRiAwm7+uSuj51ihAYTswFNWWf5ykV2PTAzEIBQIIGjPhVyMXW7HI+r/E4OQR3CcnQzJj+TkyZNFmEEoBggpijEP6+U/ARBceYCgV8R8EDKo5qw8Y/MwILlVZP9D9wmSEpLUKoUiJTMibXAEEG7dvs1MDP7evhgzYRzLopgS15hugyfThFQiBZeTkc8/LAD09PVY7QWCDNwwaLteZyPFdBudSsEVhSJHSaJTyYHn1avXCPD3g4PDStYqhVHq6uv94wBBk1GSx1tMjszEkEcGIQ3Y1Z7LhTx/w8N4gNC26DEIkZFRuFJoJoY8Hh9y2LALlUHIy/jm4t48A4SC6srMns9mnjIGISwcrVq1QtVqVfOmPnPx/XlrMO3dhWZiyGm6ZROFklX/CSBo+yAU6PCTxzHLSaZkYmAMQlEFCNp7FJubBZ30OUnkf/N3QWx0LPMnTMljoFazjf2vO3fRpv2v8Pf1w5hxYzOyBxp5qwGpRALyCyAYwIUPKZkjo66eHkRCSqBEMTuZUAVZKRW+bZZTgTd/EEDgAiMEPEB4BT9/fzg5ObHQKQI1efZByGrRpl/sOSkprfvzCxDSUC+auZYysQsPJRQOQMhJIPlbLIUOENKMYzYy5EPK2Awl/xpNuI3WI4UBELi1oYaAVhyLxuFhpXZ4Tz6GmubcyRO5ZBCy0pPaQ5ZZH7Q7m8fN5ir5IISHo2XLlnkHCJp+ZTigaAsv3XzLQ/++D0DIBC3kEyBsCtiEVq1bMSfFQgcIOY15Nsv4vwAQNBEptHckJibzrnPcHmVsbMztGflYb/nTbv/Np1IAAsNYxB7oiJnfwF9376Jl61apACH99/ETnkIapckSPgySvGxVgFoFFZRQqARQqnVgamYEHZFQiz9QsbCx5KQkHtdRyGQqgBCJhDA2MoaC9zdgfg1aFSJJib9+/Rr+/v5wcXNlLEWKGSP9gPPKP42Zgz8tUt/lcimSEiVQqQUwMjaGnh7lLVAzxiJZkswySKYcLrX6qGEMDA2NoKunA8JAlDpaAxAoisF6tnX2TopMhpSNkge49F6FAsmJyZCp1ax2hbGRIS839iFsUyFzEJcvQLPBCGDA8hrkTPMVDCBQh0lTU8EuylmQCDL9kMmHLjInGRkb5XslRH6LwpUrBXBS5AdKqZBDkpwMqVwFoUgHxsYGEGfqAU72MY6dSkqWEKyFjq4+DA10eDCa+imFARBIdmqVApJkGSTJcgh1dGDIcgOIUk14tHJUSrY+ZDI5x70JhAxsG+hx81wTMqzpXf4Agga0A1KZBMnJEjIuQs9AH/o0n1Ny9HDsn4LWSVIy5AoVAzdioYjNOV1NgpxsFG2uAYL2JsrWuxoyuRRSiQxylRr6+gbQp3ou5AfF/053JSUlQSql+jCcRIhhNDQw4Mybmh0gi/4VKkDgAT2ZXKlPMjo0sWSzApZngXIZaA5iuTGrEoNQOACBC92kQHO5Qs76plRyukSso8cOhLo6lBExo/95potZDVAUQ5FmEOjj1FRxWIrDR49hx85dkEikDJzTNJk3bwFatW4BAwMqD5A7M3e+Fdt/+EFBbEysWlN0if5Nk5iQ6p3bd5hTkZ+vH8YSg5AFQKDQRnJOVKtVEEAFoYDbXI+fOAb/LbsAXTOs9VyPX6qVT2F55DIJLpw9BT8/f8QmSiAU8n4DfI2HOrXrYMmSJWziqhRcxcj017t37+AfEABnV5e0Wby0FAEzTbCaECqIRWLeWZK5fbM5kZycgMuXTmGNhz90dU1hs3gpWresz3wp3oS+hJeXLx49esw5Z/L4hc07rgmYmprDevZctGzeBDq63CaZa4CQogxJ4VKjAsilMjx98ADrN3rhY1Qsfvv9T0yaMBp6IlralF9CgfjYOFy4cBkbPL24PBMQwMLcHIOHDEOPnpSwRDdbJVQwgEDgTw6pVIIHDx7A29sfYWEfmMImBdi6TVtMmDiR9Sc/yDzfAEHrwKZSKhD+KgR79+zBqUs30KBZa8ydOxPlLc1Tp5AGmBGIlUtx9+ZN+AdswecYGXr+0QcjhvaBoQGF5hYSQODfp1Yp8e3zexzYdwAHjpxCnfqNMGHieNT+uSYHMIl7U8jx9s0r7N27F5euBBN+gaGJGTp27oIBfXujXJnSKWBY079cA4SUOcdtvjSRE+LjcerkSew/eAgCXRMMGzUa3Tr/Ch2+cVo7SQmxePTwHvYdOISHT55DqVShWtVqGDp0OAuX1acw5oIChAynfhVk0iRcCbqA3XsP4HNkAoaNHImePbrByEAfQjqEKGSIjYnBzt17cObsBQZyyARpWdISw4YNR/sOHWBkbAi2etOZLTUjywAChTk2LUAUQwrQV4N026cPH3DgwGFcDr6KhIREBviGDR2OXr/3Yn2jA9A/CxC43DSkCx8/egRPL2+8fRvO9FilqrXRf/BgtGxWD+YmhhDlJlxcDdjb27MohiJrYlCrIUmMw44tm+G+fiP0DYxZ+C8zT79+BcuS5eHm7oqWrZpCj+Vw0GZ9MvkzY/2y2OkzIYzS3JkegOR0/78OKFI7KIiLjVOT0EQiMXR1dVisLSmcO7fuoGXrHAACDUIShTYqKScZBGoFEhMTcOb4Kbis8cDDFyEwMC+DCzdvonmtyhAyY4YSsuQE+HiswaKVrjC1KIPqNapBX0fMtyNgSUEWL1oMQ2NDUISF9riwxEtiMd6FvYOPjy+cXZxTQ860b1SD5WWgpDvEQHDfpwsREQQqFRLjE3A56CxWLLfHrQcvUKbMD9i2czu6dGzKAMLr0BB4efngwcNHfNVK2o8VbMG/fR2GT1+/oVLlqti8dS9at2gIPV0O5BD0IB+EHBmElDFQQa1WQJokweP7j7HW3RXHzp2DUM8QI6fMxsrlNjASqSBUSxEf+RknDx/DUuf1iElIQtUqlaErUuPzp0/QN7GEte0SDOrdA4YUiqq50k3qfAMEdjxTQJocg1vXg+HivgEPHr2AZakyMDMxRlTkN0iVavQbOgLTZ8xAOQvTPKemyBdAYHsdx8Io5DK8e/U3dm3dgoCtu/DuSyx69B6A9R6uqFae8lFodj0SDp3mpYh4G4JAv0D4bN4FpdAck6dZY/7s8TAySBvGmD8GQUOzCdic+vIhHAd2b8dGbz+8ePMJXXv0hoOjPRrX/4kDCCo5Xr98Al/fABw5dQH6BkYwMdFnWetkcjUGDRmOKVMmoXzZUmndgXJjYkizAaugVsoRHxuLs6dOwdPLBzfv3UOFanWwYMkyDBv0B/QZd6FCXMxXHNi/F/6bdyAyOh4lS5YE+SxRSGX1Gj9h8pTp6Nq1PUxNDLNUa7liEDTjyFYQhUzH4frVC1i7zgsXLt2EWckysFlmh+HDBsPMQA8CpQxvQ58hwC8Qh0+cgUjPECVLlIRSLsXHDx9RumwljBk/Fb1+74ZSJfi5mImCLzSAoKZ1LMedW8Hw8d2Eazfvw9jEBMaGhogID4NYVxcjR43G0CFDUalSBQ4k5HAVDoPAsX5KhQyP79/GMvtVePzsNSxLl4RaKUNY+EeUKFkWM+fMQf/evWBpbppyGMqye0UdIPAb8l83rmLaTCuUKFESNosWoV79+tDVEWP39m2wXboMfUdMxazp41GjUjkGjDh/MkYDa1EKfP5gNSUJTMURaVJb8yyR5inNb9x04/6f/R2haBWXQpstR8Ic/EPpk2qlMF+avhBpRs8y9kzTLPcH7lmOhqYDI/sODdBL1z6XvpvTl5nmA+Pv1zD6goT4BLWOWIeZFjSJOOgFd2/fRYtWLbJlEGjzJsVJJyOFJAHRX8Lh5xeIvUdO4nXEe3bKNij7Ay4GX0TzGhX4U5IUibFfMH7URFy6+QhjJllh2rSJsDAitkAOytukVKg4VkDA0ZuadU1Ahv5eIBaxKAYvb2+4uLhwuRnSXSRMuYQrTc0GiPkuAGKBAtHR33Dk4AmsXu+B0DdhUKv0UapMPWzduR5dOzaBgK8nQVS+ggaF9YFOm/F4dPcuHB3XIujOPfToPRzuLvaoVLZESh/zBBDoW5VyxEZ9wbUrV7DcwQWhoaGIS0qEqWVZDJ9lAwebmTAVqqCUx+LxzQuwW7AcwS8/Y9DISZg2aRSMRFJsDfDDKs/taP37SLgsmo7GtatndCrl5ZMvgKA5IamliAh9hLWrnLH92GU0bN4a8+bPw081KuPsyeNwcl8PvRKVMWv+Qgzv2R564rwVcckXQCD1p1RAkhCH+3/dg6+vN85evIjP3+Ih1DVDz34D4bHaHlXLlEwHEORIjP+K44cOYoXTWjwNiUCp8r9gytQZmG89HEb6aaNh8gsQaG1Ik5Pw6uVLbNu2Fdt37sLnL9FQqo3RpUdfODgtRON6PzLvnbhv73H64A6s3eAPw/I/w2bRYtT5sQJuXLmA1WvWQS42w5wFi9CtfSuYGvKpd/nMojn6IGiwiloNmTQRX9+HY/fOXdi8bQfehL9HslSKGj83x7yldhg2sBsMBWqo5PF48eg2HFetxt2nYRg3cQoG9usDWVI8du7ajctXr+PXdh0xauQwVK9asVAAgoJYgejPOHLkADZt3sxAaGKiDOUqVceCZcsxYugAmBnoQilNxK6tgXBx94BcpQPbJUvxx+89IYmLxLq1axCwdSdq/twYdvbL0eHXFhCTwvyeAEGgRsznMGwL9ME6ny1o1qEXpk+bih8qV8DJEydw/ORJCERiTJo0EW1atcyVObAwAcL7d3/DYYkd9hw5hV4DxmL6jIkQSKOxaqUjzpwPwq89h2G21Sy0alwLhro55K35jwCE4IsXsW7DBham375jR2Y6pw3yc8RruK1cgdthgJODDZrWrQ5pUgISk2UwtzCHLpms2XarQnxsDKQyJcwsLKBLuU9o/cikiI2Lg5JM32zlCphpjg5KZMIghjU2IRFGRkaM7eIAgRpyhQwxUbHQNzBgPhAaUyEdYmOiYzgQQXu3UMBSphMbzAEWQCKVIC42FqZm5ozl56y6aiQmJCE+PhEWJczZAT8xIRGJCQkoYVkSOnQaJkyiUiA6JhZyuQqWliUhFgvZITkmJhZSmRQCso3zNkX6Fh2xiLVH3yKQy+RqSoykbaPPLUBQyuTMVkqZDJ89uAtvDzccv3gVlarXYEzCi79fQrdcLVy8chbNq1fkXBjVCfgaFoLxk+fiwbN3mLNgMXp27wp92uOVKpibl2DOhkTLafzFaLDIoYQSLonFIgYiXoWGMoBAFFdmzjsEECSJZGvjTBSMvFDLEfHqMTYF+GP/yWDo6+sxe+vDR6EoVaYRtu5ehy7tm3J6RPvERUJWyvH+5QM4Orpgy4HTaNq2O9Z7rUGdauUhSrE/cEiRNmEfb5/sfRAYw6vC188fsWvbJgQEbmHmlvJly+DZ02eAkSmGzbSBo+0sBhAU0mhcP38QU8ZZI16vNJY6rsHooX9AnhiFAzu2YdRUW9T8pQPWezritzb1vw9AUEnw/N5VzJ85D1dfhGHQ8FFY6bgSpvpCXLt8ATOtF+BjpBLjZ8zBstnjoK/7vQECN0jxMVG4ePoEvHz88ferN8zv4/PnSLz/loxe/QZg3eoVqMIAgmZclVAqknD7RjBWrXJG0NW/IFfqwcTiB0yaNg0LrIYWDoPAGLYY3LkaBD//zbh6+z4MDAyZAnkbFoVO3fvDwdEGjerVZJR5xKuncHVyROCec+gzYgKW2s7GD5VK4O9Hd7DKYSUOX/wLwydOhY31NJQvacY7VHInhhwBAv/tZMJ4/ugvbArww/HT56Gjp8/8MN68C0P56g15gPAbDAUqJMd9xIFtW+C61hdmlX/C3Hnz0aJRPXYgENGhQl8fYrEO9HTF0M3mRJwXBuHNqxfYsX0z9uw7CJVaCLFAgLfh4TAuUR4LiEEY2h/m+rpQSJNwcP9eHD1yAgZGFhgxZjTatGoBpSwWh3Ztw/oNAZAKjWBrZ4de3btw/fseACGFCVTjwc1LcFmxApduPcHM+YsxsH8fGBlQvRPaQAyZrxL5m+hSBcRc2OAKDyDI8fzhLYweNwMPXnzCgsV2mDJ+MEqZChB05hSs5i/Fqw8KOLiswujBPVHSLAc/ov8CQGB+MzLm08X2Dtrc+VNz+OtXWLliKSIVJbF08VzU+bEc/DZ6YN/hs1jp7IomDepCR0cIlVICN+eVuH43BA5Ojvi5RhVIkxPx8P5DOLu541tkFDNZEExo2a4jpk2egrKlzXDv9jU4uqzH+IlT0b1ze+jpcYfd8HevMXbsJHTs9gdmTp8IIz0xAxu3/roHezt7VtuC1jIx3TNmzETHLp1hamTE9uYrQZdhY2MDO7sV6Ni5PURklhcABw8cgqubG9atX4/GjRpgcwDtJQHM/P7Tz3TwUOFjRDiWLXfC36FvsW37FlQsVxpRkZEsAvCve/d4cMAdgwlE/PTTj9i4cR2r18NlUkzHduUWIEiTktkGTB9w/+Z1uNktxWeZEh7r1uHurWtYYD0finK1cPbKKbSsXgVCgRIqeSye376CqfNW4Pa956hcuSoszM0gghrmpmZYbu+EqjVrMqUDgRJ0CCUlxDxO+RwHZDLIFiBQpTGFAhJygmSUCYfg1GoJ3v39CD6efrjyMBT2y+ZBlhSL4cOnw6JMfWzdvRFd2zfnAQK38jnSRomkuDgc2uKDRQ6rINe3xPqth9G11c8w0uH8AFIRWB4AgkqFjx8jEODjhUOHjmL4yJFoWr8O5s6wwqvoBAywWggnGyuYClRM8d28dBzTJ81GpNoYtstdMHpYbyiTYrB/x2aMt1qOn5v+Bo819ujUvA6zXTOAVRgmBp5BUKuS8fej21hqsxgXbr9A/8EjsMLBHubGIlwNOodZsxchOlkXU2fNwZwpQ78zg6DRzGrERH3G0QMHELhlF2r/8gv69emF3bv2YdOeM+jZrz/Wr7ZH5dIagEDVRmV49/olAnx8cejYKZQsXQYx8SpExuhh/MQJmG89uOAAgR0GVJAmxuD6xTPw9NkCkaEZRgzugxtXg7DOcydadekHB0dbNK73A4RqGV49fwAnRxecu/UKo6bMxpjhvVGltDHCXj7CpnUrsWn3CbTtOxEODktRpZQF71SWS4DAi4sAwsN7t+C1cR0+fYnCyJGj8TU8DGvXb4DArArmkIlhIAEEBeK/hMFl5SoE7DyOKj/XRaVK5RAX+RkxUdH4odYvGD5qFNq2bQEDfV1kl30kLwAh9OVjbNiwFrfuPsSYkWNhJJJhLfnkxKgx384Ow4f0h7mBHgNU5ICmZPNcxMKc6cAkS4rE7k3+2OC1DTAqjUVLl6Jntw7fGSBw5rdzR/fBdulKJCQpUL9xE+YMGBUVCYVchdFjx6N3nz9Q0tKcgZ5/EiCoVRLcu3kFE6fOQYKoHGbMscbgnu1gaSbE3auXMHHqXDx4/Ap2bmsxaewwlCLzYHq7uTY/9B8BCKmnPGLNJOzUT06227dsx9YdO7HCdQ26tm8FQ30lAje6wd17Pzb6B6BV44ZMdymV0VhgPQNBt8PgHRCAejUr48iebVjnFQgdPSNWfIxO43KFgjHRPQZNwMKZI/H3/WDYOflgynQrNvcM9XUgUCnw7tVTtPm1G4ZNnQebuVNhKEjChZMnMXPRChjqG6F8OTJ1CBEbE42vkVGYu8QBg/r0grGBLi6cO48/ev+JXTv2omevblxWTQGYnhs9ZgQuBQWhebNm8N7oDdtFtrgSfAW/1P0ZCrkEK+zssGadD8pVroYzZ06jUjlLLFqwAPsOHMSPtX5iCQbJw54iBu/cuY8GDeri0KGDMDYhgEDH8XSbSKYAIdXMwTpGZgDagGkHJoDw8tkT7Nu8GQPHj0ed+vWxzXMNbK1sEF/uJ5y+chLNq1eBmGh66Tf4uTpjuccmxCVI0LJ5Cxga6jOK5/mT56hQpSZs7RzR5tcWIOClJxYygMCoFr6fBBCIiqdUy2kYBM2ewTzTZbx5gQ8nEwihVMvxKfwVjh09i5+btkOHNnVx5tguDBs0DcZl62HzHi90+7VZGoDAKBplMiJCn8HZ3hGBh8+jW98RcF5lj5oVSjJWhLMJcbahPDEIKhUiv33BmVMnkJCYjJGjRyPk4V1YjR2PR5HxGDBrIRxtrWEmUEOtTMb7kIfY7O2NwIPn8Wv3gZgwehhMhRLs3L4Nm44GYbSVLaYM+RPVypkz805m/kb5NzGQjVWKyM/hOLJvJ/wCd8OoRGVMnzELP9Uoj6CzZ+C1bR9qNe2EGbMmo1XtalnSullx0TmaGHj5alEBDPUmxEUhOOgSXr6KQJ9+vaGUxcDVyQUBu86jW7+BWOe+nDEInCOgAlFfP2Dv7t0I3LIbTRo3ROuWTeD5YR76AAAgAElEQVQfuA3PXkswefoczLcalAoQ+HmfuYkhjWE/jU1PE9IoT07Ag9s38fT5GzRs0RoVyhphg5sL3FdvQ9ueA+DgtBiN6laDUBGH5w9uY+UqDwQ//sgAwuihf6JKaVNEvHyIbV4rsGnHQTTuMR72Tk74oVxJiHizZgYGgWoxpD8tpwAEBV6+eIIrVy6heo0f0bpVaxzcHIhVLq5QmFXFnCV2GDqwKwzVUkSHv8SqlS7w2nYAKl0DxsxUrlCW+UqEhLxGzV+aYp7tInT6tTmMdLK2qecFIIS/e4UzZ46hXIUqaNeuPYJP7oCDozvCY3QwhwcIFvp6pLj4b+QioFhJGbUc0Z/fYrWbG7buOY06jTtgkc1ctGpWF1kRHLn3QdCs83S2Wx48K2VxOL5/D5Y5uePV6wjoG5miavXqMDcxwrt3b5CYJIG1jR2GDh2I0uZGEAvTFrvLbE3kjUHgvafZKVnL14b+qJLj3s1gTJxmjWiUwIw5czDsjw4oZaaHR7cuY/JEK9x+9BS2zqsxafxolCthARGTbxZjWtQBAjvZaeTBnZJePHuA9evX48HD5wgNfYUpk20waNRQVK9kAT2dRGzx9IC77yF4+PihZaMGzDFchTjYL56D01deYZ2fL+pVq4B1bqsQ/j4SM63momKlcpBKEhAZFYNJk6dBpV8Rvn4u+Pz8BuzdN2P0+Kno0b0d2+DFagII99GlywD0mzQHC2ZNQMy7J+j150CYlK4I+2XL0LplS2ZCj3j7BvOXLMcXgTlW2Vqh2S81EHzhInr2/hN7d+7Hbz27pKTd3rvnAEaNHo7zFy+iVYsW8PcJgN3yZTh3/ixq166FR4/uwM5uJYKv3mfr9+SZk6hYrhSGDhqE9xEfcOjwYViUKMnmDEWmDRo4GnJFIg4c3AdTUwOKHszoqpAtQOBnMoUeKaRShoRpw4ZKAR1yIDQ2ZAt3l6cbFlktQWTZn3Am+BRaMICggkwSC083d1y6cQ8lzCxhu9gW5SqUxbewl1i+eBkOnQ9Go5Yd4bclEBXKlYQe+SFoT1S2YasQEhoKnywAglqpQEJUFD5/+sKYB6JIFBDA2MIMpS3NGSVEJw6FLAZnj+zCuMFWEJStj027vdC9XdMUj3LONKFCcsIX7Nvii2Ur1kNtaIndx06i8c/VwAcupFnbJLtcmRjoKZIbnTMpAyVvS352Oxjzxk3EvchE9J1lAydbK5gJaLNXQS6Nw/2rZ7F4wQLcDIlDpYoVIVLJ8C0mEbVb/w6bhTPRrnEtxrpw4VUZ1U7+AQJ3SiLHvtcvHmC1kyMOnL4OE4syMDbQQ0JcAoxKVcUE64UY0r8zLFKYlSxN0xl+yB4gUGglea3HMpsbUXs00XR19WFhYcqoW0K6IpESb0MfYrXTavjvuojO/QZhvftyVC1Tggt7ksQj6MJprHJbB0OLirCZNweq+PdYutQBTyLAA4SBMNY4KfIbK4W8UrGmtLUYUgECMWlUjTIuNo7NV+qLWEcXZqYmMNTX5cZDLEDUl1fwdHODu/sOtOzZHw5OS9C4bnUGEJ7eu8kAwtWnXzFq6hyMGdoLVUuZIjzkEbZ6EkDYj4bdx8LeaRVqlS+VFiCcPIkvn7+gT9++MM8MIKSYV7j5RmYCsokrJMk45O8NZ1d3JJtVx+wl5IPQBYYqKSLfPYfzKlds3LIPZuWqYuSYcRgzvD+SY99j5UonnL36BkPHTIbV1KH4sUqZLJ28cwQIKWIkIKzkbLtCEUQCOc7u9YKD4xq8i9PDbDIxDOkPC2IQ+D2AcXzkL6FWIfbrJ+zbsRU+gVshFZpjxhwbDOjTHSWM+fDfApkYeEaR7MHJyaAyzKRQubBFNTOnXTx7Eo7Oa/D4+Ut0/X0I5s61Ru3qZbDF3xs+AdtRvnoD2C61Qac2TXK28wPIM0AAx6p8/RrF8tKQAiCCmOzZXz68w4SJk3HjrxewXrQcMyeNQBkLA1y/cBIz5y7Ck+cvscjZHRPHj0F5BhA4Z7pMr/8KQEjpvBpvX4dgy9YtePr0Jb59/YaXIaEYNXUeJo4djkpl9LDdyx0unnuwxHEVGtf7hYXlE+Bc4+aIq3+FYoO/H5rUqgqBUoLIqERI5BTenwxnZ0c8ePQIISF0APgTfptXIzrkNqZaLUG3ASMxa9o4WBgbQAQlwt8+ROcu/dF/whzYzBqH0FsX0eHPIZgzex6GjRjGmQ3InC4S4M7Dlxg+ZhY8fVZjyB+dcOPSBfTq3RdeG73Qtn07nh4GThw/Cytra1wMuoiWzRvzAGEpzl84zQqjLVqyFCZmlnj76hP+unsNp06dQPnyllg4fy7Onw/C5i1bGEAQCIWQSVSYNMkaApECBw7sgZkZMQj5AAhk36cTlYqv3MiSFwnAnCLEBnpQKKXYvnEVls5egW9lf8LZYM7EQKiU6F1lkgQKJS1xEdTsWKeEOvkLLp06BTtXT4jMysLDLwD1ateAYSZcFymDkJAQeHv5wM1NyweBP+0RcLkVdBmTJk+Gnq4eKAG0WN8Q02dZY8zY4Wz3pDYUsiicO7Ib4wbPhrpsPWza7Y0e7ZqmS7olQ/SX11jjuBKrfA+jdbfh8N3ogB/Klch0AeUJIKTBZuScKcfTW1cwb/wkBhD68QDBnK1TBeKiPuLU4YNYvMwBBiXKo0aNmlDJEvH2zTtEJatg4+SOkX92gYmBbpahvQUBCGq1EnJJAq4HnYO9nQNefYlD3bp1oSsS4POnD3j7PhLdeg/DkiVzUcnSNHchU1oaKCeA8OFDBPz9fLFlyw4WE69QqtGocTMsW7YEP9WqwTsYyPAm5AFWO65B4O6L6NhvEGMQqpUxY2FxT+/fhseatXj8+iNGjJuMEYP64MmNi7C1scPzz0JMmj4bC6yGMCdFzuOX62C2AEGtRmxsDDZt2gQvL2/GeFF0bvWatTFtxjT06NqBUbZqgRKRn0Lg5eoGtzU70YIAguMizsQgT8Czezew0tkD1559waipszFqyO8MIESEPMbWjSsQuGMfGvUYixVOq1AzPwBBI2uN0ymIko/nAcJqJJvVwGxmYiAGQYavb5/CZZULPLccQN3m7WG7dAm6dWyJ+K9v4OHqhI2++9Ci6wAsXrYAzerVytLMkCNASEdfp3RTJWEAYSUDCPqYs2wZhg/pB3N9/VR2jOUGUSA68gv27dwB/8Ct+JigRN+BIzBx7Aj8VL0SA8xpvJ213pcnBoE9J8DNGzfg6OiIv/9+yarbki/R6JEjYGKgDy9fPzx+FoKlq9Zg8sTRKGuuh9OHdmCR3Sq8j5Jg+SpnDOrzB8wNDXIMBc4PQAh/9w5z58zDo8dPGAMgVygxcMhwDOj7O45s9Yffjj1o2q4Hxk8YDz1hMrzXrcW5S1cQn5CERatWY+IEjkEQ8+lZMkV9RR0g0PymecEvXnaIVSq5KDmBEO9eh2K9uzP2nriIjf7b0K1jQ+zzW4MF9htgaF4CRjQ2fJ6N9xERKFOpJvx3bEXjmlXw+vlDLFruiJBXYTAxMoalpQXTO7du30WtBl0QuGkdhAnhGDt6POR6JnBxdkfpkqQL1fgY9hJDhk/DsClzsHDWaLy6E4T2fwyGuWkJWFhapJS3p700SaLAmzfv4EFpBob2w60r5/HnH/1hXtISFhRJxEcixETH4V3YJ1y5egWtWjREgI8/li9fhosXT+JtRBjmLrLHpi27cXDHfhw9vBcnTx5HhYql8TrkOTy9fBH6+h3ehoWz9aRSAmFhEWjSrCX27d8DM9O8AATNCYSFk1GyFwlnXuAXG233unr6EOnpQKFIxo6NTlgy2wHfytXCmSun0Lp6FaipWmRyAlfpUU1mAzEUai48UqiIxqM7t2C9xBkyHVOs9vFH/To1YUo8arpZSoxFSGgWAIG8RZOTcfXceXTv3w86DH4ARuYWcFrljvHjRvAx4FQ/IgrnD+/EuCHzoMoMIFBOB1kSXtwNgusqZ5y4FYolqwMxqndHmBuS40lGhJ1/gEBmGxme3bqCueMn4b4Wg2AuVEOeFIMrpw9h4tQFUBqYY6m9E4YP6oPE6A/Yv2sb5ixeiaq1m8DNxRld27dgi0M7NZVGJ+YLIPCUHYVFPX1wF7aLFuH2/efoO3gUltsvgYmOEsEXT2KerQOiEukUPgvW08dDX5fPH5FLEiEnE0NERBg8PFZj7dqNKS2279AJa9dtQO2ffuDMPZDgzcsHcHdai8DdlxhAWO9uh2qlTRH77T0O7NmDjX5bUatuE1jNno1S5ga4ezUIrs7ueP1NhSEjJ2LqxAEoW8oCpqYcyKG1KMmOQWAAIRYbNm7ACnsHdgKmq2HTlli01A69fuvI23SViPwYAh9XN7iv3YWmPftjJfNBqAmBIgkvHlDEgDuCH39iDMLIoT1R1dIM70MfYetGBwTsOIAmPcfC3tERNcpZQkzeL3wlVqrFkCODkBVA8POGi+tqJJlrAQQoEBnxHM6Oq7Ax4ACatOuOJXaL0bF1Q8R/e4v9mzZiredWVGjQATZLl6Jlo1+QVZquPAEErblCZrWze73TAIQRzEmRTAzcjRw4+Iw9O7cjIHAbPsUr8MegYZg0diRqV6/Mxo/hgywOw/kBCNeuXYXNQhtW0E5z2S60QcWyZbHB2wtPXn7CchcXTBozEJYmurhx4TgcVzrgfshHLFjpiiH9+6KEEZ0qs7/yDhDUCH/7FiNGjcG169dTGp84xQrz5sxAUuxHuLi64/LVvyAS0WjJIZWQmRjM5j3P3hmTxo9CuRLmEKXPXJkOxBXpPAh8faDY2GhERUWhVOkyLGqA2B7OGqzCxVMHMHLcTNg6rMPgAV1wbLsnFq/cgOq16sCyRAkQB0g7x9PHj6FjXAr+27egVvmSmDRuPN6Gf0DpsuXRo3svDBrYj4X4Dxk6AjJRKfj4eaCsEeCz1hVe23ZCpGMMkYgO0EooJRK8eRcPa7sVsLEaiZA7Qej05xD89FMdVKxIUUCpoEYoFDP/muFjx6Bn1w64GXQBPf/sj/r1G6Bc+fKcfhcKEfYuAnfuPsDlq8Fo1bwh/H184GC/HPv37ELgtq1QG1tg6bLl8FvjhQP7d+DkyROoVJlyEtG6icTNOw+wxmM9jAz12T57/fot1K3fEPsP7IWJsX4eGAQtgEDmBfK+pEWqWXfkXKGjqweRnggKRRJ2bnTFYmt7RJeridMXT6Nx9UpQJiZBJU1EZORnSJKV0De2RMnSJVnooUAVi3tXrsHKzhkC41JY7xeAOrWqwEgTKKo1QTMABN5hg8v9okJyfDyePXwEZ3c3CIRcCKSBkTEGDx+J7t068SdNJWSSKFw4tAtjh87lAYIverRrzJ8a6eOUSEyIw77NPli63AUwLoNdx8+iRe3K3OLOROkUDCBI8fzWVcwdNxH3o5LQhzEIs2BBZo6Yjzi8MxDj569G286DMW/hDHRs+TNkyVG4efEEli9xxNs4FVZ5eKJPz84gwwqnGtNe+QYIKjUUkjjcvHIe8xY7IBmmmDJrPoYO/A3GYglCHt+Cq9NqXLj1Ar0HD8fSZYtYOFoWejlTzZgTQPj27SuOHj2C06fOsORatHH/XLsOS+RVuVIF3jgsxZuQ+zyDEISO/TmAULW0CUJf3McaV3fs2H8SIh19WNBJSSiALJnmZAykagMYGpuift1aGDduLAYO6MPipnMGCEBCYgIrG3zgwAHOxKBWs2iefgMHonnjhhCyE4kckZ9C4eviDve1u9GEAQRiEGqS/zDe/P0QziudcezycwydMBOTJwxEtdLmCPv7IXzdHbB1/1l0GDIZ9nY2qFzagrXJQqgoiiEvAIEHfPQveVI8DqYAhOqwZiaGrjAUKhH37S3cHFdi3cadqN+mGxbbLWL0OAGEfZs94eG5BZXqd4DtsqVo3rBOoQEEdgCk+auU4Ow+MjGsxbsYXcxdtoyFOZpT6Bhb60pER37Cnl07sGnzdiQqddGj70CMHDYIP1WvzJwBNe5BWc3DPAMENfDs2TPs2LkTr0JfcSAFagwaPBBqmQSrnF1x79Eb2Lm5YuKYoShtYoCbl47CyZEAwmfMX+GKof37oISRfo5rI+8AAfjy6RPzaA95GcLmIR2OOnTqhn59foelpSnehL6Av/9WFrVCeWbKlSqJl8/+RtC127Ba4oAJowejlJmWk2JmgvsPMAgUxrd/3w4sWbYcs2ZYY8CgQShRwoL5y0kliTh2cBdmzlmMdb7b8XvXVtgd6AF37z3w8A1gPgic+VgK+0XWOH31JTMx6MlisHi+Ldp16o5R48bA1MSMMQN/P3+KqdNmQmRcAb4BG1C1rAULt90UEICbdx9CrlTC0sIcVcqXxlqvPRg1czZsZo3C6/tX0XvQGNjarcCQQQNZllCWn4Uis+Il+BAVi3JlLFDSxAhXzp1Djz59sXfnPnTt0YUrOSASYe/ugxg9ZiTOXwpCq+aNsMnHEytWrETfvgMQ+jYM9s7OqF2rFhzsHXHowF6cOHkclSuVh1ySzJIR7j96CjNnz8bYkSPYmurbdyAUKgUOHjoAI6Nc+CD4+/ljzNgxPFznMgWSeYHKLmuYO/pRT0cXYj09EPRUyBOxc+MaLJtth7hyNXH49FHUq14ZOnIlYr+8wWKb+TgffA+du/fBoqWLUKWiJeJiPsBp6Qr47zmK+s1+xbYdW1GmlCl0NPZJrYnKnBRDQhmdy0wMWgBBKSdULOHiWFVq3plDAKFYDKGumE9QwqFDmSSaBwizoWI+CP7o0a5hShpXCOSIi/6E9W5uWO4WiCZt+8DbbzXqVivNwggz8+HJE0BIs01SrgMCCDcwd9wEPIhK4AGCFczIGz7uM47t246RVg5o1LIbFi6Yje4dmkAuicXlUwdhY2OPWIEBnDw2onePzkxZZ7a28w0QKGeDNBE3gy9inu1yRCULMXbyTIwf1Q+m+mo8uXcdDnYOuPPkLQYMH4slSxfB1IDOuLm/cgIIJFvm70IOmLwPAttIeFMAq/kBAgj3sNZxNQJ3X2YAwYP5IFjgQ1go9u/ZjQtX7nCDx00SxER+wYsXoUiQiFCxclV06tAGgwYPQutWTZmXMr0vcxND2m+jvrGMogLubMiXLWOZJsnliWyaBBD8XFYzBqExOSk6LmYAgU4sEW9fwHuNC7z9d6M1Mz+sRO2qZZlvgpOjEy7dfY1R06wwa/IwlLMw4WKm8wsQeJAgT4rDAQYQ1iDJvBqsFxNA+A1GQgWS4j9i75ZAuK7xg07JarCevwB9enaEIvYzAr3XwdN/Lxr+2h1LFi9AgzoEcjK/8sogaAAClBKc2+sDezIxxIoxf5kdRrI8CPps3BJjv2H/7h3w9A3E13g5Rk+ahpFDB6NimRI8gOcc1FLSG2fSvdwDhNSHU+ahNgQXAvduXobD8hU4F3Qd42bbYvrkiahW1gJBZ/bDYeUqRESqsHjlKvT//TdmBszpyhtA4FU0UesUWcbX+lCzeS6AQpqML1/CIJHKYWZeGiZmpiw8+/L507CasxDxckMsXbEc/X/vBHMjw9RkPP9RgECT8e8X97HIZhFu3n6A5UuXo3Xb1ixl+cvnT+Gx2h1vPsfCy9cXrZv9gl0+7nDz3Q93X3+0a9KQc1JUxmHFklk4efkNPAM2wVQkwVzruYiKSYSDoxPKVygHSVICpk+fjhs3b6F52+7YtNUf1cpZQkR+MSzCRpOACYh48wIdOvdB/wkzYWs1DslfwzB50nhESsSYOX066tX7hfkhJCXGYdvOfdiybScCNvmjW6cOuH7pIrr37o39e/aha/ffUmoS7d65F6PHjsSFi5fRskUTbPH2wBK7lYhNkmP1Gk/0G9AbZqZGsFtmh4P79+PUqVMsGin0yWOMmzwNZatUx3rPDShdwoKl+CdgoVDJcfDgARhTiGVOPgjpAYKczAuSZE45aUx7AgH09fQhpIRFAhVjEHZtXIPls5choewP2Hf8EBrWqgGhQgGh7Cu2+nrCce0mCAzMscLBEQ0b1ELI8/tYZu+M91+iMW6SFRbbWMHISD99BCaneLMACAQIZJQcSSplG4jGgVLMKj3qQ0hhkikTngMIZw/twNihcyAoWxebdgegR7tGvP2K6j8kI+rTa3Yy3rjtOIZPWYY5M0ehejlTDiBoIyR+tecfIKgZQHh6+wasx47H46gEDJg1D042c2AqAGTSeFy7eAKTZixEdLwEAwePxLgRQ0AhTIcP7Ifrei80btYKK53d0LYlnVgL0UmROyZBpZLjxZN7WLZsOc4G3USr1u0xY8ZUVCpXAreuX4GL+zqoBPqYaT0PE8aNhL5e4ZoY0ijUTIAjF0YgxZtQYhDcsWlXEHNSpERJVchJkYELGjjawGlLVkOtkuHG5TNYZLMUzyKkmDxtLubPHgUjSsyhkaGA0nIn4+LFS/j65QuGjxiemr0zi04xJ+o01DbHIHz78ArersQg7ETzHgQClqBxfcqDACTEfUXwuUMse2CC2gJTps3ETzUq4mbwBQRu3ooSlX7GPJvFaN2kNoz1dVM8UTMwCOZmOe09Kb4VsuQ47PcjJ8XVkJpVhfWSZRg6oDuMhWqoFYl49/IRXF1XY8vek2jYoi2mTZ2IMiZ6WLd+Ix6+jsb4ydMxZlAPlCf5ZgcQwsJZ6vbcVHPk3QFBAOH0Xj/YO67Gu1ghy4MwcuggFuaolCcj+MIJuLt74NLVO6hUsy5mzLJCh9bNQAEV5GNEviClSlnC2NiEq99QSAAhs3ZoDCgB3KE92+Hm4YPwz3GYPWceunZsg/17d2Hv/sNo3fFPTJs5BQ1/+QEGFMadw5UfgJChSd5CG/46BAsXzsGpsxfxe+9BGDNmDHSgxO5d23Hw6AkMHTcTE8ePQrWKZViEBbuyQnz/AQaBW7wKXL96BcuWOuDF3yEshw454ylkMlSsVAkzbZeja7tfYWEihI+7A9x998Jzy1b82rQxH+YYh6ULrHD+Wih8AjahVrUK8FzvAV//zUiSSFliQQL+Zqam+Pr1G6r9+At8AgNQq2ol6Ggn5mKIV4Wwt8/RvmNP9Bs1A0sWTIOJjhrPH97BnCUr8eTJc7ZnEZilrKuUn8TadgUG/kmZQM0QdO48eg/oj62bt6Dn771AexptQLt27MKESRNw5twFlvLf38sDC2yWoVyFGjh8+Ahq/liZiWL+/Pk4fuwYzpw5g5IlzTFzylTcefCYJUqr80tt6OmIWK2Vfn0HQKkiJ8X9LNFTjgDBz9cfY8dxDIJaqWaZlyjDoDZAEAqE0KcsVWwDploMEmz2cIHjopVIKlEB+08eQYMfa0GokEGIBMRFfoG373Zs2bkXsYnJoBwWLKGFrgFGjZ0IW9v5MDU24HwcMjEeagBCSpgjzyAQQKDcDNSW5jlauBTJQJmuaHKkTnoVpJI4nD64HeNHz4Fu6R8QsH0zurUnJ0XOFkRx/5/DXsDB3gV7T13FTFsXjBnaGxUtjbIME6D35SrVcibKQSmX4cmdm5g1fgJeRMVhwORpcFpiC2MhUdZyxEW+x4WzF7BqjScLM9PX1WNpaWmzq12vIebMscGvv7aEsTFP7Wd032ARFkcOH0HbPJd7ph1PieTEWNy5eR1efltx4VIwY5REAu5UX7ZCZYwYMwmDhwxFmZLG4NNW5KQHU37PiUHIsSEGEGR4FXIf7k5u2Lb3Ejr/3hcea1ehctmSqaYjjfZj4aNSBF84hcWL7BD6WYkJZK+14gEC05Fcsqe8AgQeU6V2mQFqJb5+egNP99VYvW4z2nT7E8sdlqFRPUq1TH1X4dOHt9i6ZQs2bd6Fb99imFKjOOvyVWpg0qRpXB4As7RpjQsCEKTJ8djr7wM39zVQmFWGte1SDBnYHYZ8jitJUjSCLxyFp3cArt15TtVWGNDSNzRG7yEjMHXKRPxcjZKgZX0xBiEPAIFriRubo7sCWGTAxwQB5i1egpFDB8JMXw/xcZHYsN4DXt4B+PQlEiKxLlcQSYdjrUhPVa1WDcuW2aF79+5cQazvCBC4GGcVQl88xvbNm7Br3xF8i0mAjliMpGQlGjZujIW2C9G2XSsYUEp7Jt/s+bX4uHhW7rkwqjnKkpJw99ZlrFm3Eddu3mOF8Ihw0zXQR8euvTF+/Cg0aViHJY/LkfXTBghurujcqTMrLFekLubEx+lGqky80dML0dHRfFZDARba2KBBgwZsvtCh4vyxYzh0+homzJiKX2rWYLpLpZRi5xZf3HsagWlWVqhaoTw7xFGenzt373HrslxZ9OrRDe8iwhHyOgIjRo1F7ZrVWPGrNBf5eXx4A9sl9mjb5Q8M7NcTegQwBED4hwhmAvgWGQkVy9wrwPhJk9Glc4eUbIgP/rrPKhdbz56Nps2bsnwJ9HDQpUvYsGEjlq+0R+0fa+HMqZPwD9yC/v1Honv3TjAzN2RM+rZt23Hn1m0st7djmRY9PT2hFohZzgRTEyPWFtUycXJ0ZpkXFy1aBANmysttFAOR8nIFpFIpK9aiAZg0mdgGTBnZhETLKCBXJOHckSM4uvcw5KYlMGfhfFQpXxFCFRVNUkKsJ2Yek9s2bcLJ8xdZnnK1Woi6devDavYs6BvoQCTIzMWOE3lWAIEKO1FlSUZD8xcBBUoEoaOZwFqznwqr3LkehPXr/KBvXopNgib1fuKPfhQOJsOXiLc4cPAwbj14jj8GjkDH9q1hweyH9I6MccIFAQgku7cv/4bfxg34mixH69+6Y2j/vtBjGY9oE1ayCn800B5UgERXn6XvNC9RCqNGjUPz5mQe0WI2sgIIRwgg/Ir6DerlbU3T6ZvCMtVqvHwZgsCATYiIeM9FsOjqoX3HThg8ZDArikXLI0dFk+7tBS73zI6eSrbJHjl4GME3HqN+0xYYO2YYSpqb8G/jK9uxWHGi/4gVuY+dO3bjfZQMXX7riT5/dmGImut//gFCegVBsouJ/oLjhw/j2IlzqN2wMYYMG4IfqlXlErbyrMjXbycH+voAACAASURBVF8QdO4cLgVdxteoGFiWrYBuPX5Hx19bwYQBZ83k5v1tyQfhlJaTYl4YBGkirp47g6NHjkNlUAJ/DhiItm2agZJgajZquZR8eu7h0JFTeBb6FhDqolGzlhjQ709Ur1Ihx3HOM0DgoyxYbYOrF3Hg4DFEJqnQe8AAdPi1DYx0xfjy6QOOHT+Oa9dvIVmqYMXYmGMZn6qWqhaWLlMGgwcPRuPGjRjQyhIgHD+BJs0KUKyJ4RnOMEKK9vP7CJw5fRzXb95huV6MTctg2LDBbH1ylV8559KcLgIIAQEBDCA0btS4wOWeSZ+9ePqEbSCfPn+BXKlAx07d0aNXL5QvV4qF12n0erZ9K+oAQZMDQUg6k9Y7bcR8OmGWMI8XPg/KBew+AdQCEXMMJH3GZTLmKxOLqE6QgJlkWNE8phM43c9aUtPf0f+4U32GXUETNcTu497Dxp+ZqTmdCjWFaaceiCmPDVP7Gh2uWfNsqmnVWmDdpOrJVCiR7qf/4/yzWP/4eGDtrYCrO0XpCbj38ZUh2H+zcguad1Efcg0QNMWPWOVGrd6S/wFLuSpmqJQSFFF9ATLdMgUMHeZ2QXHiFAZJC4SZIjiPwgzp/jJjjtNPVi6T4it4eXlxiZKIQVBTJTWusqT2RQKg3NfMvJDZ7OdLKFOtBvZzyqDwHDF1iC/kwfWNC+nM6koBCN7esLbOodxzukZYMQ62b3HDSROZ2tOmR8nGzYY3vYZJzeOS+Xfy72IMQn4BAlsM/D8aGWjJQntW5EL/ZRBhgQGCdouaRalxVEv/tpTO8mCSX/DaU1tbxPmrxaD10vQTm+YdW5wptVPSzwZ+HHOQJF/OnGyLVECpb9++MMsNQEh5G+Uw4cGudjUazcen0SxcQiLOdKK1meSQUTs4OJgxCK1atcqViYFTUJoy6JyOIMWq5P+KKsam+i5nLR+mSHmAl9V6LdRyzxr9wtZIKmDQjHNKHzIB7pn1r9AAgmbNMplylWOZTHnR5XmtFnWAkEbQGmFn95UcQGA6V1sm/JpNKycNwODBqKYeQNZbAvcL6wYne65wkzaDlG5C5GYTzPA+fpD5sU1/iEi5nT+F8FGSWYf38A/kGiBo7PtUyln7ItpeX0+PoQ8yPVCsKdvUeAVCSY1ocyaPS1YtkuwJKQLjBacNuXKxeDIDCGRzlCQms3hX7c2TEBEBBGZe0CzgDBtJ3o+7WSmfggAEbhLxneMVf8q3pNuItWWc09zU/r3AAEHTmDZQ0F57+ZrcXKMFBgiaBc3v8hlAVGb9TC88LflrH40LDBAyGyQ+M2Ru0u5mOsYanQA1cz7KH0DgkaX2xGMyyH7b0Ozhmtuyu1sDEMgHoVq1armbrmnPIKn6LpPx4YabV9g8INB2Xs3uUwoNIOTuq/J0V0J8AmMQSG4FZhC03qw54BVk3qWEOZKJoXNnVj/gv3uRgxU/59PvRVksBXbC15zlNPfkGWkVssRyfULLvZLOESD4+vhi3PhxzP8gOTExA3tAk4xO8GT3Z5smDww0f9ZUYKRCS6wgFDsyaQkmH0LNABCogJOS6tYnptEF9G5W4pmqk2mufLwvzTCqiA1RccWkKHMfc3xJPdEXCCDkMF/S6cwcqd3Mmis0gFDIc7swAUKasc5qrqUXZg574ncBCAWVYaEAhPx3IrfLOF8AIf/dytOTRRkgxMfHI4BqAxSGiSFPUslZEf1vAYTCFM6/2FZuF2Sak2j2/c01QCD/g+TEpMzTb2p4WeqgFv+eWoExnccu3Z8dT5/VZs4LgDZnZmLw9ISbm1sKQKEIBm3zBwEEck6kmPkMACE9UMhs99X8XcpxCQwcUMpfzg+DwijFfLUwDihkCRByD9q+6wxLBQhtUb9Bfe5d/0bfMtmgKanJ5ctXWLVD8mXI85XdGGYGAHK9oDgnxYypltOB3Tx3uHAeoDmXbwbhe449z4gRQAh7F8ZMDNWq55JB+IfmpSbMsWnTpmjarGnhDEghtEJjSgyCv78/WrdpXagMQiF0D/bL7bF7z26mf//7DEJhSKSItJELBj41hjXnPmcJEO7cvsOoLX9ff4wcNYJlT1TI5CmhjVk1zTAC0flCIcS6lC0x86NZZge4nLvLERDEILx+/Ro+Xt5wdnFmG7NCKmfxv6lAQACBSAQdVts8fXECTRLOrJAI9/epGIK7n1gKkgGZMVKe5BkUEXlP82aMiIgI+Pr6wsrKCiUtNd7zufm6wr0nw35JHrPh4Th29DjatGmNevXr8cxs6qwqKMGS7y8QANFR0aDNhHIODBo0KC3T9C/uxSQT6lPQpSB8/fYVw4al5k3XfG9+53O+5ZWGhgMLX/r86TP+7P0nzM3Nc5RdZuNcmN+Q0r4AuH7tOovsadaiGapWraoF4rX8GPIviHw9yUwQECAsLAynTp5C4yaN0aRpkzQFt7JrOKd1UlBZUvvxCfHYvGkzWrZshYaNGqQ96OTrq/P3UIZvFQAr7Fdg7969cHMvBgj5k+q/+VSuUAS3B2blpHj71m1GbS2YtwA9e3aHJFnKHJRYaQTekzL9J2rAgEgsZCdrTVihJpxHe9HkdwFp3vHhfQSOHTmKSVMmQ61UsbAmKmGYalfj6H+qjsWcTOg3ChdkXqzc21MOT1lULSOSg3wvWGIUtYolhyJnSyY4vkgLR4ZwWa2o5jj9fWRUJI4ePYp+/frDnBzGtKoQ5hTaVFjThvqcGUD49u0brlwJRr16dVGzZk2tiA9eWeek+Qqrg5oQQq324uLj8eDBA1aqu2OnjmmiUTKWFCvEjuTQFA21TCbD/fv3WUrlzl26cGmseUejzGT9vXvHzWFuhGlO3bl7h6WVbdO2LYyNjNPAqcxkx/lW8Q5TGp+6Qu40vYMSvzx6/AgfPnxgdTvKli3Lj2taR9vMNqFC6U5mLBGZnHnn348fP+LWrVuoXbs2fvyxVgYTarYgIZu1UtD5SjpFIpGw6JQ6deqgRo0aKcnBCkUueWxEM180um/T5k0ICgqCh4cHOnf5r/sg5FEY/49uzxQg0An9zq076NSlU67qlhc5eeUeIOW969+Tks17b4qfKJZAsQSKJfCvSICS4wUGBqLrb12hR1l0i6//OQlkChDoK8lmeGD/Aegb6HNJGTTxlhRzyedBSJGGUMiKolDCJO0A39QzDn9qTwmNSoXe2cUDZ47CNbGb7HjPDlEKVr42tXAUwweUlYoloqBzUlqon9ov7gu4e7iLThZc6l5KlKTi/mGhkKl579npQ6vj7D1CrvqfhpvQDq8q6GmicGZdRs5GIxtiR1Kvf4ZCyBClmSKk3IQaFI5Esm8lKzkUPYSozQbkb659L0SdByePf2JIs3hHSkRnHmjN3OQxyO8nMe6P70tWkQbs5zz0N799yfo5NXNMJ3BQvXr1LDKLFv5bi1v8ZyWQJUDIrhtquZJNDra5Ejhg9vd/ZmNJ3y/awJUyRZq1wlJW8tEF+REnAwQUrUCRGQSGUrJOcPHD2hctYHLGFFCCiX9HBPn5xOJniiVQLIFiCRRLoFgC2UogfwBBSYUoKCsUuIyHaVIY5xhCXThDwtMAlJeBijNpX7RhU+ZE8gvQDu9Os4Fnhr7VYOGLBH6oXQIHOcUK0+9Er5H/Qabp0ViwbOF8ckr1H4bMCrHdQupecTPFEiiWQLEEiiXwvyOBfAGEfH1+YTOzrOa3CtLk5DTObNQ3ckzU0dODgE8dmqv+EjhQKCGjEEYFl+wppz2YTA1UNCMlEVNOD+SqI8U3FUugWALFEiiWwD8mgcLem/6xjn//F/1zAKGwv0VFtSHkzNNX+0o50WuSI2Vn0taKyGAhjAo5ZMQcaHwMtDLyacp2pv8MYiuoUmSKiaWw2ILClldxe8USKJZAsQT+P0tA29VGGxSk/JlPQ51mQ/n/LLAswhz/CyIh+p9yElDxqDSplSk5EpV21pgXcvA1Y74Gch4YaBV50siA2iEQQH4IFOqWZu7QuyhTIytzzb+oGCD8F6ZPcR+LJVAsgf9vEtCUocjKuVNTp6IYIKRI4D/LIDBzQLKE5SXQBgiU+4AAAle9K/ua5hTOSRUg5TJZuph7LmKB1Y/Q0WH/Jp+E9ABBrKPDypym1HkgsRYDhP9vaqf4e4slUCyBIiwB8pdTKuRQgctVI9KKWtNkHSb2WEE+Z5TgTyRmUXnFuvyfYBAyZOvRBBlmLJWc6zlG/gJKJSSJSRnNC/r63IleQydlZmLg/Rdo06cCU6x0M6FHFSVS4iaGWEfMfBkIHDBfB6mUlbLWXAQgdPX02H1pnBMLHSBo7CDpJuz3ikzL9SAU1Rs1gaaaUqwa0MYNTNESW9HqTeqIas05rWHOd/W/Qp8q6ajgQl9z+e1wJnIrMn3jvymDvb2ozsH8joH2hOXWfvTXCDy8dwNynbKoU68eyliYgoLO6DdikAlA3L19FyGv3sLUsjxaNW+IkubGaQ9+hdCd/2IT35dByEDlqACFFCq5DAKxAQQ6fBrkPEqOCkfRxk6lnbXXH23m+sQeUK1pripyhotlRdSwBiwrogJCMh3IpBASQBAbQmBiCB0DjhmgdzG2QkZ1HlLzBVCBKl19Pc6UkYIa8vgh2d7OleFVK6RQJ8sgUFP6ah1AXxegsNIiw1bQIFM/FVBJFYBADCrMxVZgATBgfiTJJ8Qm71Woqey3QgmBkiqscjXYIRJDSOm/qfT3v6a4KYRWCYFcCjWF56oE5FULATnVZlVxND/CyOszxKZRKXeWTp3PKcLWrxBqYuNozpFfD8stktfGC3o/f6hQK1n/1FI5V+5ZRHLThZrCjP+19UBghfQC3zeZgukegVgXAqpwmFWZ+YKKJNvnKW8LTXEFKCRdreDSzkNHxOeEoROWHGrSe0qKRhNy80+jj//x8S1kYaRJv6HG6ye3sGiuNVSlfsG8BQtQ/6dq0CFwQGXDBQKEPH+EefMX48yFS2j062/wXuuK2j9W51mE3AjjX/By1Lwy/av57qb8rKk6mZvPyGQYvh9ASBkkzeJWQZ2UAMXTJ/j84BlMmzaDyS91+EmZtwmilHMbNm3c2t/NHAZZ9IIw41GRrWNKl6xg4II2EZFKDlX0J0TefYj4ZyEwEOnCpFJlmLdvB2Gl8kwZsjTOydKU4kya7CTEUjCAoFHqefuErO9mcqPcCxKo46OR+Pgpvt18AD2lCELTkjBp2hgGDer8H3vnAR5FufXx39Z0IKF3Qm8iVUC99oqKBUWwcwERFLGLig3soih6FUSKKBYUUUBQBEFQUBBBUIpKr2mkZ/vO95x3ZjabECCEJODnzn24QrI7c+a85fzfU/7nBG3UxcRWSZxB8OSR9/df7FvxG9HVG1Dv9O7Ya1ctXUOu8tKb8g5oWDQf3tS9ZP30M56/d2H1Q8Bqx2114qjfkHo9TyOqXm0dwFR61YlyXRHMysC19hfyN2zG5w5gb9iEameeQZTMudL2ly9HvSnNFeSRtnIV2b9uwBkMYLdo2BUtuYWAM4Holq2p0q0DjpqJJwBcSUayBy0rjczVaynYvBWbJ4gjsSbx3bsR1bK5AgqVDUhlCDSCas5peQfJWbuenA1/ouV7SGjYmISu3bE1qo/FWQmANORUMdak3weZKeSs20heho/Edu2IadEQRBbNh2/7VrKW/YQ/IwvN5qDqaT2J7dBOHY4MJ2q5zrBKvVkxgLB700+MffwBSD6fWwcN5pRm9XFIzwCrD78rn/FjX+HF8ZPIdmucf91tvPjoCNok1z86QAg5X8KstOkgD3/hitxnwoCCCXjUo4vooOzarziAYMio4cPqzUfLzqJg8TJyZ87ls++Xcf20D0i68Cxs0cdI0alheA+8yuCbAEG5/J1O7ILa5YfhnjPZlwUcGCEF8SLYAj7sKTtI/+YrfvvwS9Zt/ot4q5UmiTXoOuB2qt9yA/aG9ZT7yVXgKtLKWpEjOZ2qEVS5E0SJ0Q16CGbuIefbRWz+cDbLl67AYbNRNSaeM/rcTNPhd2Jr3gDVQqKMyLDsU8b8pig4oMCBb/NGtk+axo9fLqbBhb0578nHsTVMqvwNW3QXKCBzzQp+eu4lfv9mOVpMLPlWK3lWOy3PPZ8bnn6ahBZNdYBQqadOGVcfwYx95Cz+jt8mTWfjql+Vl6hhi7Z0ves+al5zObbE+BMwphqe/XtZ+OqrLJ8+A4ffT7wWJMnjweH2QGJd2t08kA53DiKmacPKHVcZU82Ptm8ruYsXsm76TP74bZNKUK4RX4UO1/Sn+cDBRLVtDlGV7LJSkDQAmQfIX76Ete/O4LdV6/AWFNCqXkO6Dr6Lmtf1wVqvJtgreKEqgyC6Eg9LAdqB3bjnzWfVB7PIrtqQ0+69nzpnd8ESFcC/cwv73v+Y76d/ysH0gwT9Ps64sj/th95FTOe2aDFOrKrpTgXLfPybUCnuoLFn00rGPvEAgcbnc8vg2znVAAiaVsC65Uu4d+TT2GJrsPegh2ZdzuT5kUNol1xPNeUTll7xSpsHQbEdXo9X9eaJcsoBUXQUVPw5HvGghl2qGs5qVXZJPM5qhAxWXglZS3jD7OcitsRmtau+QXJLFUJ3uXFEOXDYnWps5WArf4R3R/Ik5PJJ5Z3Xq7P4apqSVfqfmHubz+tTnxFabGH8LemSJeZ2u9R4Kw982LBXKEAIaAEs7mwCv63h4OKlbJv6Eb7tu7G16MgZn30G7RsfeYDFc1fsnSQfQF5a+ArEzWi+iwxEdGzMoXEjTQ8RKM+BMCMKqJAOjJ58cpfM5ecHHsfrs3LpoGE4HBa2fDmTVXtSuHLCByReci4BWxC3S3IdxB2lW2S9jXSMrvByXEOqMZTI6M0l+4/VLB31DHm707m699XE1kxi79dfs+HPnXR9Ziy1+/UG54lMpAmAP5/A9j85OPUDdrw7A58tjrq3DSf54eFQ1QBqpVjC5fYRcfXmppO9aD47Jk4lxh9Hi6uuxV+jFu7oaIIN6pDQtgWW2KhKPiUZx4r8TNzLFvD7a2+Tf8BLt4svx52TyY/fL8bbuSvnPTqKxDbNKtcAG8rX8nMp+Osv/Dv3EuPzYM9OJ3/hQvYsWk6wdRca3H0PVS85C+SEWYl2WPGR+N14ls5l49hXyN+aRquLepNUI5E/v1vItvQ82g5/iOQb+kC16HJdj0ecl8p+Cuhz4171I2uefpbA9lTaXtyLalVjWbvgSyyJDWl59wMknNMDS5w+5yrqUnoSIJWVSu7q1RR8u4idH80i/UAaDW4dTsv77iWmdX20zG0c/Gg6i978gA6n9KR5j+7kb1rPym+X0vL2e2k84AZs9ZKwWM0YbQUKXVHKMLyJZjuyPeJBeOJ+/I3O45YhQzi1aT2ibJCycwujH3uMb1as4ZGnXuTrb34kx5nAS4/dSbvkOixfspy/t23liiuvoFbtWopeX4zxwq8XknHwIL1791bN+DTNw75dO/n626UUuIyqOiNPrmatWpx1zrnUq1dbnUnEfh1ISWX+V/MpyC9QB0wBEKed1p02bdsQbRyYd27fweyZn3La2WdyWtduFBQUsGLFT2zatJHLe/WiWfPmBAJ+flr5s2o2JoZdQu6XXtaL5i1a4JDcOGDNT6v4edXP9LmuL7Xq1CqR+M/r9fHJx5+BFs11fa8gOkb/rjo/ldTNsbzGTfO6yFm2mNSp77F4/iLqBwI0JxbnGRfR7K1x0KT6kRdNCQBB2k57BMEFAqF9StaqKFlc/jpM04GFhAcUoPD5dNpko5+CmvLuPLZ+8SHfPfM6V192DY1uH0yQfFImv8nimQu5dNx7VOt9PgG7hDMEIEj3OR0gFOE+KIf1U0jtHMAvXSl9LsjJIPj3LmKi47DWrY2Wk0rqtMn89Nki2o58hha33wwCLMvh+aUdb50j3iKTBjQP2oFtZH0yk12vT8KRlk3VLmdR+64HsV9+Flqs9KYo7Z3L4XPqBBUguH87WR9PJfOrRdTqdglxffpB7bpYqsRiiXegCXmWIVfFihceHJSQUQBt/w72vDGOjPe/oMm5l5PQ70Ys1RLwZ2fjq1oNZ+tmOJKqFCqjYgUsqnQ1prKrecGVjf+P9eyeMI2MXzfToO8N1L71Jiz1JTRTDmN1DLdQa9abT8r0t9k7cSp125xG3VsHQZUY/pwyka0r1tL6lqEk39IXalam98XIPSjIIHvO56x+7jWanXo6TW6/HUtMgAOfTGPdgp9oMfA+km+5DmtSfAUDqyCBzAOkzZurvCwZv2+kRVYmVarUJWnoCJIG3oi9bhzeNctZfu9I6jpq02ToUGK6tSNn+bd888xLtLtiAC1uH4yjeW0sDmMTrcwN5hjmxdE+qucj6T12dosH4cl78Tc8l1uHDKVj03rgzeGj96Yz6pmXefD+EVzRpx/PPz+ezVlBXhtzLx0a1+Hh+x9k0dIlTHt/Oh1Oaa96EontGThwENt37GD69OkkJzeBYAGrflzGbYOHk3YwS5HnKRNTUECbtqfw+v8m0KljO+wWLzu3bmPilOlMnTpNl068Bf4A519wAXcMv5fTT+usjPuq75dx6eWXMWr049w5bDi//raW2wcN5cCBA3wyYwann9GDn1es5IFHHmPnzh3q0CrVeL0uu5xHn3yKFk2bYLdYmfq/t7h/5EN8/8OPtD3lFMPjYRh/HQFQUODmist7o2lJzJ49jarVYisDIGgE8nNY/OB9FKxexxUDbsT7907+WvAzDfv8l8S7boTacaU3cMZ+K8ZerygI6g2TDDeOlDaq6gUDIMjGovgNvN4iLVxNkGCVWHDKHnxbdxKX3BxHrTr4/1jFzjdfYcVPm7n8relUPf8M3H5havQZ4EBv/lSkeuE4N3Elpz+AAB/V30LRO+utqe12G5JvaXHn4129gn1vvc32ffl0eHQ0NXqdC/K6x/n8oy208N+bbbItQR9aZgqZ8+eyc+IUonftI96nETj9fJqMfBw6txQO7rBZeCxPKeNnlYHz4d+6gdTXXiZz/hKqtu+Bv0lbbPXqU+PM7kR3OgXiCk+ZFau68CCgeFsKCGz6je1jXyPrq+U0PrUL7mYtsCQ3I+k/Z6q8EovIFu7ZrVgBiylaNULHEvSipW5n97QP2PvJt9Q/7TwaDBuEtW2ySnKr9EvG1ZdH6sfT2TnpPeq06Ub9629Cc+ewefpUdu9Op+0dd9PoqksgoTK9Vnrog9TdZHzyEaveeJdWV99I0yFDoCCN/e9NZP2cZbQYdB9NBvTDWj2hAgGC5IoEyN26iZn3PMgpNerSsX17cr/+igItnhoDBhHT6z+gHSTns09Z+tIE2l1+E8l3DsFWJ4aDC2ez5LHnaX3uDbQYdgfO1vX0w0flJ+mU2/Qym92LEd678SdefPIetCbncOvtQ2nfuB4bfvyW+x55ipoNmjLm6UdpVL8+9z/wNH/kOXhjtACEmrz49GjmLV7MxMmTademDTabtOD2cceQoezYtZMpUybTpElD8Oey7ucfeWzMOK64/jY6tG2Kxe3nq9mf8MvvfzJm7Ot0at8Kd/Yexjz1LB9/MZ+BAwdz6aUXq0q5PXv28NioUbTqeQHPPPIQLRvX5vcVK7ns0osZ8+oL9O7bhwmTp/HtV98zbOidXHD+Gez4ayMDBg4BRyyPPfowzZKT2bRhPc+99BJ33DeSm66/lsTYKGZNnczjox7nw3nzaNaqtaFffWOJjxOPe4CCfC9XX3MtFq0RMz99kyri/TU/WXEeBGmz6Mb19584c7Kw1ojnwIyZ/Db9G8595g2ievWABMcxTYjw8ILZvVFeVecjkIoCPTlRxY4kpGCAg+L9FCQepGI+KsPYD34fgX37SZ06iV/ffJdWF1xNk6cehyb18foKDIChZ5pI1YIiYjL7T5R1E1c96SUvIqBCH+IuUvdXtTd690grfhxZqbh+XErq5/Nheyr1B95BdJ8rsNRKqvz1q4xwgGBuBrnff8/mSVNxBYN07tSRv+YsJL77WbR68im0eokK5FSuH1+MsIuCtavY/tyL7FjwPQfj4skhSK2oGE7tdRXNho/A2qYpOHUgWdahK92kDQcIfshLxbt8MfvGTSR1yWqyYmLYZ7MRGxVD20t703LECJztWhRmvVe8gEVeQ4cHGhZPDt4Vi1k/9k28+bF0uPthEi48HeKlnLd0b16+n5J9JB9t82r2jZ9E/m87qNqsNZbcXA7s3ktSn/7Uu7U/1vrVC0Fp+QpQ8t1Ugq4fMvaTNWsmq8dNoNn5l9Pk5psI7trMvsmT2LZuO83uG0X92/pjrVmxAEG8Z/7cbLzbtxMVG481K4s/nniS2Cr1aXDXCJxdW+Db9Ss7XxzLgUV/0Oquh6hx23VY7PlkfPER3z8znraXDqDZ0CE4WtYF5UGoyOy6Shkk9Q77Nv6sPAiBRmcycOgwqtptjH/2Kb5cspznX3mNS88/E1vQw733Pc36vCgFEE5tXJ2xTz/Jl98s4fW33qJV65bGKT3IiLvvZ9deAQjvkpzcgKAnnUVz5vC/9+bwzOtv065pfQLuAj6dPIEP537LEy++Ruf2Ldi9cSX/Ob831/S9kXvvu4eatWqqA6fkG3y75HtGjH6dF594lH6Xn8Om1T9z5cWXMOrFMTTv2JFHRj3J4AHD6HtNb2Jjo3l/6mSGj3iYtyZO4qqrLiUuNpqCnHx27NpN0BlNs8YNiHHa+Xzy/3h05CNcdP2N1K7XmEAwiN1iIxC0MmjQbdSuk6TYiK++6josWhNmfvZ6ZQEEmQBBvWBKKyB44G/WPDqarcu30veDWdg6NYWoY9txxJh6PG71kgIExNVtnugdkpyoBQkGNUVqJJ4GSUxULY2NBA6z86J8Vi9PlFJCF4GUXaR/OY8tE96H6Gr0fPo57Gd2w2uRSjmTylkPvJpg5LiolY2kSfEaSC6FeTJXLjGVVyH/F8QuZUrbt7Dl9XFsmbWIDnVb0OypMTiuuRDdtVDhVq6YEdGTEvPXreHP1yeQu/cAPQbca0dStwAAIABJREFUhmt/Kn/NnEPiRb1o/tiDaAlO4x0qK1itZ24HXdkcWLqEteMnUh0n3fter362a/YnHEhz0e6ex0i46iKoGlcJZXFFAYKWtRv317PZ/foUAmlBWlzZB3u9Wvz9zTzSMnJod+9IEi67EEu1uEInwrEtj+PacSUbX06hlrS9bP3f/9g/+2uaXHIt9QYPxta0buUa3yJuqyCaKwvXD4vY89YUtq36jTy/n5oeH/WTT6HuyEeI630BxFSi9yA0tEHw5pG9cD7rnx1LgiWKGu3bY9+3m/xf1rCvwELTJ56l7m3XY61e0SEGI0Qkdb1BD/51v7JoyAgadTid5g89iLN5LdwbfmDN/Y+S6KlHsiQk9jod8vaSMWMKy96eQYdb7qfJkNuw1UuEf3gOQrgnbt/G1bzy9L3QuCc33vpffv9lLaMef4Qh945kwM39qJMUiycvi3vvHc36/BjGj7mHjo0SeX3M40z84HMuu/IqatWui9Uq4eogn332BfEJCUybPpWmTRriK9jL2y+P5Zs1e3h9wts0rV8Lf142n056i5kLlvDE2Dc5tU0Ttq/9nosu70e7Lj04+5yz1CyXg64cVFPS0/nfO9N59rlnuXPQTfyx5mf6XdSLLhecQ8O2bamd3JZ+V/WmbvWqKgw4acIkJr4zn6nT3+SUDskqsdF0UekZTxpWTWPW5PE8/cTjpARi9IaCxuUqKGDosLsZft+dxMbEcd3V12PRmvPprLFUqVJ4cK/QHISAZGmK2MF8Aut+YMXjT5OdHU+vqdOxtqirZ+GX5jJyvITtyuP2IE2SRB9mzwSVZWq36fwGchqXmnyDNtkECCoxUTwHQn4krlKxxD43gdRdpM+Zzbr/vUdMbF16PjQK+3mn44934JU+D5pwJejKP6RS4minvHAbYdxFJ+aQvg9GuaUqJTOVIIMqlW563bLDacVekIG2bjWZH3/Jpi8X03bYSBKH3Ao1JU5UzIJUqEGRk1wB3q0b2PnOuxxcvp5Ofa7D3rop+fO+JfO3bdS6ZRDOfpdhTZJSKdODUKFChWaP4qiQRlsZaQT3p+B0xkHD+rD3L7Invc7uxT8T12sQTe4ZjKV2tcJZV2HiFQUIwYM7yJn9EbvGf4AzsQUtHx2JtW4C+/43jpRla6h3250k9e+DvUEt3fFS6UnkYuyy8f6ygi3j3sGT7qHV8BEkXHwexIrxrTBFHWYHMBa9z4Nr3Rr+enMC7rWbaHbZpVTv1oG0BV+TveFvat54K1X7Xg1SfllZLefD00vEi7B/J7vfm87yj2eRlZJKU5ebxi4vzpadqTFyFAmXn4e1SsUmUJpGwYIPS0E6BUu+44dHX6Lp2VfQ5P67sNePJ2/V9yy682Ga1etEq+HDcZ7ZnuC239j5zGgyN6bQ5J5RVOtzCdZqEvqt9AlYGktQps/s3biasWPux9moG21O6cpHH3xIbFxVRj31OKe0bobT7sWdm809945hfX4sr42+h86Nq/H66Ed54e3pWO0GIZ6y6JCVlU2Hjl14/4PpCiC4c3Zxx+A7ybHW5vXxL9OwZnU8+dnMmjSBT+Yv5vFX3qBjm2R2rP2eXlffQqbbqxr8FdYiyiFW/9eIBx5m+NDb2bJ2NddeeCk3DRlItcYN+X1rigpLdG2TjNWXx9sT3mHGx2uZNPlF2ratj1V4XgQjmshIzo9agFmTxvPUyCd4duIU6jdtrpIi5edLFi3muZdf4qmxL3D11X25re9NWANN+XTWy5UHEPRazCCabDxffMa6seNoevEt1Bw+FGpVLb3LMpz5MKwfgipXFO4Dh0OBhfB8g8JTOQoY2O0OxXqoTv7WgKqrDqTuJOPzz/njrfexOqrR/aGnib7oHLTEKBWe8EnCoJnxKBDBJGIKb299uH2zJHCg8iL0VtLiVjLzIfTFbcFqETJQDZtUMwgPjN2GTSoV8tLIm/UFW557iwa9b6L2vcOh4WE2xIrax7WgypBOmfsxv77wOrXcNhp37qLi0r7Nf1KQE8Ry+vlU7d+XGhd2RVMEkxUlTEn7hFSASF2zS+Vx2KNisVg1gpt/I/Xt19mz8nfq9B1Gg8E3QM3KSAQsChACmbvJnjObg/+bS0K9U6k9ahgkBkkZ/yJpP6yj1q0jSLruSmx1kgphX6WqzwuZu9j73jQOfLCQ2p3Pp+6dA7GdIiWhleyq0s9WugvflcXGCe+wY9LHtGnXgybDBmJpVZPdU6awd+ZcGl54OfUGD8TSvEnR8EyZTEkpv2QMrXhdgj4P/vwsgql7sOw/gCMzB++S5Wz6fB61zruKenffjaW9eEvtFYqxwgECadtInT6dlFkbaXjN9VS7pReW6lYyVy5m0V2P0qpxZ1oPG4qza3PcPy3h+wefpFnHs2hy53DsndpAjBDY/T8ACMYr7N74C+NfeoQUbxK5Lo1f12/guRde4YpLzych3olFc+HOzVIAYUNeLK+NuYdOTZIYN3oUn8xZxGNPjaZ5sxZYLWJjgjz19PNk52Tw7pR3aNqkAQd2bWLYsPs56+qbublfH2okxOHKy+Hzdyfx8fyFPP7Km3Ru24i/1/zIpVdcz6133M1VV/XWe/wob7EVOUznut3UqVOTxg3rsfnn1fS+6CKef/Vlupx7Fo+PfoE6DZvxwJ2306BODaZOfodnX5jGhzMm0bXbKXpw2gquArcqa4yLj8dm1Zg96S2efWIMM79bSnLrNiGalbR9e+l/66147TamfPAhw24eBL6GfPb5K1SpUhk5CGGLSMtP5+Crr7P6f5O54NWJOK64GBKOAVHL4VUMq9erDGv4JcZf8gH8gYDKPTA9BmZ4QYEDh+QbGODAIq5UD1p2Ojlffcn6p18mJs1FlwefJHjRBQRqJ2KrEkfAAr6g3zByepjC7L1QKmrlYgBBJ2kK6KEPkTU8/GEABIfVijWQR/b6tWz9+nsaNk6mzhld0VyZZM1ewKYZX5B8w0DqDx9KIDFGEUJJMmMoH+JoHo1S7n8lfiwYwHtgF3/NfJ9V73+CNbuAWH+Aqnm51Mj3UhBdhb0t29Lhv8NoM+BqNEclM+5pPvL3bmPb/AUE92TS6oyzcNROwvXLT2yb+j6e6EQ6PTEG+2kdILrQ1VZxcfViIYa8NFw/LGPbuKngjab1vXcQcHjZPGkyOekuuj78GDFn9wQphzOvygQIgQKCW9ex8fW32P/DX7TpP4QGt14HdRJKD+SPZ34d8l3Rnw/y09kwYSK7Jn9Km/an0ejGa7FUsbB7xkekrFxHo2v6U2fALVga1y/ktihXOQ7n4BD5PKRvWMvWL+dROy6Bep1PxZKbz8GPvmTnqg00HnIXtW/uC7WqVGCCYqF8epWRl+D2Dawd9RSBnERaDxxK1fO6oCUEyFu3jGX3jKK+JYmWN/fD2agm6XPm8vv8pbS7fQR1bukPtRPD+FUqcwJWwKAZAGHHxl+ZMG40H81fRUZOPg+MeYXBN12r3PW608mNOyeLEfc9zcacaMaPuZ8OTWoy9pnRzF34HROnTKFNm9YqKd7nDTBkyHB27vyLSZMmklg1gVkfT+fj2fMZ9dzLtG7RBKfFiic/n88/eI/ZCxfz8DNj6d6pFVl7/+aqa2+gY+ezuOuuO2jcpKG6p98fYP1vG1m04ieuuKwX3Tu1YeOq1fS66ELGjB3L9QNu5utvvmXkw48ybtybXHjef/hq7mwG3X4HDz/0CH2v70eVhDj8AS8L5n/Lrj0HGTToZmrXTGD2lImMHvU0U76YQ5OWLY0kaI0t69dz9wMP0qLTqTz/gujjNvDV4bPPx1cuQFAkEpkH2PTgo2xbtJLLZ87C0rWtznZY2ku8x3I69OgAoXj3RuWnKKEToxh0FVKQE7/RfEOhfn8eBWt/ZufoF0hbsJzWcXXxn9GTglo1SIuy0ey6a6jWoS1BYWcziikLqxcEXYcRMR3NgyDUzhJSMDwH4aEPdU6ScInVik08HHYbVl82+xd+xTcPjibZFkWDDm3wB31k7dwPSXXodN+D2Lp3wWcNKlINQaFmz4iKzUnQCLrz8B7YiS89A4fHh+PAAbK+/ppdS36i7lmXUnPAf9FaJGOvGcaiWCl7jL4x5vy9nvVvvk3GV8tpXrc+sXWrk56SRmaOh6a9r6b50CFQJ7HcWMaOPH3DAYJexeD9azO/j59I2uLlNGvVnHxNI2NfBkndz6Td8LtxtGqCMGpXquPFfAlhw/z+G/4YPwGvpwrth99L4gU9IaYSWAAPq0g/eHLY9fksdrw5mZj0XJKaJ4NNI3X7Duy1GtJ86HASLzoPEmIqD8gYnlFhO01d/h2rxo7HuXknTRo3VtTFf+7ZQ8sLrqbZ4EHY2iXr7IUVCd5D+hNXqxf3+p9ZcOf91GjchU73PUD8KU3RHH6C+7eQNm0a2z7+msSk6jiinPy25W/andWbpncMxtGlNUTr8edKWbal3f+P53MabN+8gTdeeYYpM7/ijIv6MOrJx+nSOhlnqCrHizs7kxEPPMGfB+28/tzDtGtSh2dHj2bBokW8M2kSbdu1DZU5Drl9GHt27+Cdt17jq/nf8PY7k3D5fJx73gUkxMUr3fm8bv7e9Dubt+3kPxf1pl//azm/ewe+XTCXkU88R4sWbUhOTlZvJmHztWvXULVuMqOfeoKuHVqxadUvXHjR+Tz50lhuG/hfMlL389ijj1C1ZiMeeOA+HJqXl198loXfLadLp24kVU/C5crll19+5axzL+eRh++jevU4PpsykUceeoTTL+5FYg09KVI2wM1//MHWXbt48c3x/Kfn2dx47fUE/Ul8PntiGEBQJe2FEfDjGYcSv6v8XkFy//6Tb8c8g29/Nn0mv4utcW3dg3W0mWiEIUVEOXmLB8E8eYcOWUYComls5b8CCMRwCtthkdO1iGMJEvDksHn+HObf9wRNYuOQXdltseL3a3hjY7noicdpePbpeFUio75UFDmSVEqElVKWaJBNz5yRiKgJSZNRVVE8aVJ91GpRrFiSOKk3oPShZaSRPn8hS9+cQG5eNprdScsuPeg5cAjWtq3wOG34ggGVhGK2oxaQoEBXha5snXMeyS0Rj8KuXfz9wftsW/M7Zw26gyoXngcKVBmDW5mWTkrOPDkU/P4Hm6Z/xB9LluL1B0hKbsHZ/W6i+n/Ogga1D3VDV5i+wie4wdVfkI971WrWTZrG2p9+olqtOnQ671JaX3sdllZN9c35RHjzBWDnZ7F+xvus/3QuLbudyak330RMC3HbHwOQL/cNRJKRpVIgjf2zZrPu01mk7DuA32qlQ7fT6XDt9USf1hWEO+JYDhzHK2cI+wXQctM4sPBrVk/5kOzte3D7g5x27XW0vfEWHM2SVWghtCYrbK6ZB0MNzZXP/p++55s3JpLc8Qy6DriNeMlrkeQmXwGBjb+z8e0p/LlyNQdz8ul2xTW0ue1Wolo1RYt2YjHLk49XRyfR93f+tZmxr4xl2Y8/M/LJZ+l16UUkxEbpZfLqCuDKzWLMc6+yfV8uTzz2AC2S6/P8c8/yw48/Mu61cbRq1UoxFErG/yMjH2Pv7h088/TDPPjwE/zw0xpq1KqBXTy66tAnG7s4/TVy8/LJdMFjjz/FXYOuV9USK1ev5cEHHlLkR3JJaPziS3ox4sGRNKhbm2inlY2//MoNN93A8AdHcsPNNxJts/DVnC958NEnmDjpXc7o2Y2cgxmMfeU1Pps1S4XP8/LyeGb0S1za+zKSqiZgswb5dMY0nn95HG6veMNFosKDyxtvvkXn7l1xWOwM/u9gAoFopkx9g/j4wnLrSgAIGv7cPFz792L3Wohp0RQtxlE6gGAMX1CaM3m9CiCYV6gm3xhk8996voHeMKg4ONAXqjTL8eFK209g737sEizXrGhBm2oHqriZ6tdUYQapiFAYxmJRp3TxSBzi+Shp0YvXIKBXU8ifcJnVHQ2vgdxL3bdIsxkdFQVyc/Hs2o7mcRG0OLEn1iCmbh38Fjsuj0sPXRmymcmXigeiAjehImteGkm5C/BmpBLwB4muURtrnBDVGO4VJUdlCaOPq6pkcLsJpKXiz8xQiaDW2CrE1KmPNSFBNyLFc0MqRUS9hFDAsuYqwHcgFX9WNpaoGJxJNbFXT0JTjXQqWWXhA+pz4z2wH19OHs5qNbBXr44lqmzN1MrXNuiltVpWBv6UA/hdboIWB45qNXDWrAnR0SHvYPk+9wh3C80hfc75skW2FMjzI8k3jnp1sUvSpJxQw+dbBc41nUnRoui8/QdTyc/Mxh5XjZgaNbGqcTQslzuPQGoK/oM5BD02bHXr4KhbHYtR+ltpOqyEBymdYMHjyiclNRW3x0fdenWJkzLQIu2chYvGR0pqJl6/Ru2a1Yly2khLSyM/L4+69eoRHROt7iXhYWFCDPg8VI2HAQOHkZFt4bkXxlC7RlWjYk5/OWmW9eeWv7h75FiGDx/GwJuvJDbarhLp9+zeq3vDrXJPjcSkJKpXTzRy0cCVn0/K7r3EV69OtaQk1RciNzubAykpCDujMDiKXco6mEVaWqpK0pcQdoMGjYiJNeiSxUOZnkJWdhbgKOJ5l0T/Ro0aYXc6FKfQnl17QLPRoGEd5clWzb5UomNFeRCKLwx9LekTVQ4lpfEgGJNIOipKOWBQUSXrHAHmZZYwyr9N3mtR1pE64+kTx3BPKJkMoYwkQklO9Bs5AnJf1bnR5Fkofioutuj1bpGSbyDgQK+mMEMiOg+3yGlROREyOCpRJXSPMKWpDnFygpLWcDplomTqe9zeEOgwvyZeBMX3XZkAQY2BqjU1ev/J8qnAHbBUG4quP31bUCm9xnUEuSpL5CJGxVgHxs8K2yhXljAlKVOEkc5+asbrxuZEinOIiLp8+gAXevYKN4JSTZDy+5A5dqrU2phrxsnxhDTc0o+t+p4hpY5qkxVAbAyikSWvWFCVvPLHiGedVONcfkNU4iw3QMOhc9vU32Fs0yEHC43c7D3cfPPtePxJvPvueOoJ0AptOTpx25ZNm+ndZyh33n0Xg269hlgBa0dI+g2ZxXBToFPjHFqkEyZykXc1tmb9BHl4Q6s+pqrmwj4WfiP184oCCPpOreZnuLzKYXm4Fzvc3BAGWL8kIQrboJ6MaFYAKKQmMXzxHEjCopmMeDTbED4A5mcDQdzCs+APhLmf9OoFIUcqsTGTOSPMhlBmOMFvyBj2TqosU3kNnKpCQSUZHuKGN5RmEYAgQopbyIIlKCjXj9to8lE4ES04JA9BQhQVHmIIfxl9IM3x1T3jJ3anMaFKIfg0Jt+R9pzKErn4BlPclXFC3QeG3VUlt/qOcTLAvUOHTXhV5NLDHqG9T/2jYg1LiXjlZJhXpgwhgKCvSV0/+jHIzJkqMsWMPVj95xgOa5Ws5ZP4cQIQUrh7xIPYHLUYM+Yx6tRKKswfkv076GLTpr8YdvcT3HDjTdzY/0piVdfRCp6sRcbzGAa3BLtcoQAhfE80/37MACEMqYsrRBgHzZO5Mp8GJbEYSZ38KOzkc6RxCNeb+Qyjg1bxPIcSqxdCC9PYXIUV0eRhEFZE457hIgiQEZ5tu0PyDcLkLD4w6t8CEPTVrVgfJGThceP16R3DTNAl3ginU6/TLffOkkdanqbOCg8oJ3wxh+hVQ2NrCBfaBUsADBW8Voso5XAg4SQAB+acMqvbjhXDV87gH8NmV9ECHTKWxR5YmfPKHLxwEeT5JexxxpYSOqRFAEJZJ4qUrHs5kJKGxRZL9epVcTqNMKG5Qwf9uNxeUg/mERsTS1K1eN15cLIChBJUUaEAoayqP6JdChENBfRohc2K1WI97s6KEroISJfIsDwHZZ6N3guhPg/FhTPkkdO9xLzDqxRM54yAGAEvEvpQ+QbHOkEMHgghbjLLPEMAwWYlJkY4tfVSzMhVCg2Eb+4RlZVCYSfZR05O9HKSKSkiToVrQELGIcRVQvWReYgKHfXCJPqH7Dv/OIBgqlj10g5DyMdsdIvNHvFOeCUBKqxcUgx8kc6Nxb6jcgoMbgMBB8UTJ01OhnAehjLJqUIsfjwud+gZCiAYZY4CECrdxVrhq6+CHxAxMhWs4MjtIxr4F2mgpP3kSB6cf4hq/rEAoVz1G5TyZT9et6fQABt9HhzOKNXYqbgBVpTJkm8glQqHAQcqEdEIfajTvR6oP7ZL5RNJFYdPZ3YMQ6USspDcCPuJ6LJ3bG8R+XREAxENRDQQ0cA/TAP/boBgGluDyMjs/miOodVqIyomrHOjQWykwIHqwKh3jSziOZD6V6Pvg4QlJHkylLlyrOBABDGSHwUgFCnzlPCK3a7Kb1TJTuSKaCCigYgGIhqIaKAcNfDvBQhhcWihQRb3fXEa5+LhBSkz1EsY9XwDvWyx8EaqIZThNRBgUB5VBXJ/1fWxWPWCStC024mR+twIQCjHJRG5VUQDEQ1ENBDRgGggAhCkctgfwO1yHWLshcRI6EglLiC5CeI1MBMRi1eHmt0ilddAEhHNhMHjPNyLt8Lj8eLzeY1W0PrE1aQ3hN1OVHRUBCBE1nJEAxENRDQQ0UC5a+BfDxBU9YLPh8cjnRsLL6k8EG4BMcJ6LwWjA6MwCBYbBlVqaTIiqvLFMFRwPADBCC+IbAJMpATNvJ0qmYxy6uWNkeqFcl8YkRtGNBDRQEQD/3YN/LsBgiofDOg0zn6dX8C8VBtpp1NRTcnvBCCoygEjpKBAgoQUFLeBQcNc3NV/POBAuQkkeTKgmnkEg4EQvbL8SoiWnNHRenln5IpoIKKBiAYiGohooJw18O8GCEZyonAfhJMjma2dVRtp03NgAAOT2ln+K42bBBwoVsTyPsUb1QvCzVDcu6FzMzhVM6pjroo43AQynmf+urxCJOU8XyO3i2ggooGIBiIaqCQN/KsBgibcB+I9EO+AUdao6JAN6uaA5B2E0TqbRrOwW2QJzZvKa+BUb5+gKr00EyLN54d6Q9jLpxWv6h+hqJwD6pk6sZNVdS8zWG3L660i94loIKKBiAYiGviHaOBfDRAkOVGqA8KrF0ygIDF+MZaHVClIzweneA2M2P/xhhEOe6KX3AgJLxSSN5nESyqkEeXUvRbH83zTSxEwW1JL/4igYqZUvS0cQl9dUr+If8jsjogZ0UBEAxENRDRQZg38ewGCkCP59fJBM7xwpL5VZpWCAgcmt4HJnnU8RvowQyfJkz6PRxEkhfMshDo3ml0gy/psw0Oh+kf4fEoHevKlQR5qsaoETSGJOqRtdpmnW+SLEQ1ENBDRQEQD/xQN/KsBgoQWJEHRpFcuTpVsDmIopOAoIaRQVgN9lBmivBvuQu+G8myoxlR21Xo6xH1QlueHg4Ow9w8XSWCClGxGOaOw2iOJkP+UBR2RM6KBiAYiGigvDfx7AYJUMMjp2etVIYZw0qPwRETlaldeg8M0WSqLgT7a6BntrZV3IyC93fXqCQEqUlkh8pSVnVHlGwSE00GniQ7vPVEEIBhskMKzEKmUONqARX4f0UBEAxEN/P/TwL8aIIRTJgtICGrBwjbNRqKiaiOtkgGNVsHFAUEFAAQ9vKCTI4V6L2iaCm1ERcmJ3h5GiFDKSSmASAuiJ2b6CEjZZFA1ki75EiImpxNnlKP8KzRKKXLkYxENRDQQ0UBEAydOA/9egKCO5epork7UiiFRqJQDQQUGnBJOsFqK9lIo3rGrvMGBwcAkXgOvx6tyJMxLTv6SGBktzImSA2FeR5LBZHQSSmipUpDeEQGDJtoAB8XLM80kTUUUFR2lEhUjV0QDEQ1ENBDRwL9PA/9ugBCyvgYpUTAQSli024xTenmDgMPNsTBjLr0XhPtAqihMAy7/FWZHvbNkKZgazUZUChwECfj05lIqGTGsf0RxcUJlng7JdXCqvIfIFdFARAMRDUQ08O/TQAQgnCxjHmbQTXIk8zQvIkr1gh5eCPMeyC8OB2BUIqI0kwril1bRYVwPIeeDxXIIWFAAwWZTQERyHcqdAOpk0XdEjogGIhqIaCCigSNqIAIQTpYJYgIEyRGQ8kafTxlnEySoxlESXijO2HgYgCBeg/DOk8WTERUZknA9SLMqIxHSVEV5EzGdLCqOyBHRQEQDEQ1ENFB6DUQAQul1VbGfNPIhhJfA5GaQBx62euEI3gPxHEiYIhiQsEJQhRjCL7MttdViUWEHs4rDBB96F0ujlLKyQiwVq93I3SMaiGggooGIBo5RAxGAcIwKq7CPGyEBRY7k84UeI7jBboQXLEejVja6P6rmUl69hFHse5H+EQaXgngP5PfyLAEI4bkORUopIwChwoY8cuOIBiIaiGjgZNZABCCcLKNjch+EUSuboilypOhonRzpCDkHYvClhNHv96n8A4vRX0I5G6S5lOQWqLJNvTJBdbE0chPMZ0l4QZIhpWJCRxcni4IickQ0ENFARAMRDVSmBiIAoTK1faRnGWEBCS8U7/+gn+iNzo3FDbbBbxAMaMoboDd2Es+B/E+372bzKTH6AhLkN9I+WhpVhZdSinjqWarE0xoBCCfL3IjIEdFARAMRDZwADUQAwglQekmPVHkDHq8y2uGXGPeo6OjC6oVwgGA0WxJQoIMDo9mSwALxGBjVD+KBkD9myaIqewzoLJLhNNOKqTHK5D4wvBXH40EwSzeVC8N4q5J+dpKMQUSMiAYiGohoIKKBQg1EAMJJMhuK914wxZLTvOq9YCvK5KiooQ3yI5VHIOAAnRnR9B4osiOHA5tB+qTuafRhEHDgEyImuY/xMMl1kGcVKaUsK0AIBwLq7+YPioVJynr/k2TcImJENBDRQEQD/181EAEIJ8PIaqjQgNflDoUXzOoF8R5I0yRl+Q0mRwUOhP1RvABGkqH8zmzgpIIIRjKi8hzYDLIjw1CL90CYGuX75iU5CsIeKfkHxcFImVRkVGUoLgZFzqTzO4mMevjCQAYRgFAm9Ua+FNFARAMRDVS0BiIAoaI1XIr7ixFVBrtYeCHUudE08EbZoyr87hlbAAAgAElEQVRN9Et5opQyBgkq66s/yGqx4rA7cDh0YKAyEcLBhYQyvF48El5QHgeda0H1eYiOwma3lQ85kgEMRE49L0JT95XnyJ9Qf4sIQCjFDIl8JKKBiAYiGqh8DUQAQuXr/JAnipGX5EThLjDtpaJWjnKqEIF52lYhBSPfQJIM5d/yO02iD8KAKOBAvAAOh0pMPKQCQRIaxXsg4QWpXlDYQX+ihDKiSwhllEU9qmOkX4ia9L4P4SRN8l4qJ0JkPFrZZlkeHvlORAMRDUQ0ENFAuWggAhDKRY3HcRNV3qj3XhCgEAII4QmDKhlRp0w2DW6o0kFc9eK2F0Bhd6jmSgIUQleRpEadQElVL0h4Qfn8dZAg1QvSe+G4yhqNpEnda6DnRajYglFmaQIFAQgCfkKllMehvshXIxqIaCCigYgGKkYDEYBQMXot9V2VV8BozoQwHlp0Y29WFFht1lC3SeEsKH4al8+LoRVgYLOGhQdKcN0LqFB9HiS8YDZsEnxhlT4PTnWyLzNAUCRNmt4tUuQUACIeDgMcmAqR9xLvgcgbKqUstbYiH4xoIKKBiAYiGqgsDUQAQmVpuqTnmBUFkn/gLwwv6HF6O1bValnDZ/y+OD+CTplsw+5wIkAilGugrLLZzlr+YYQihDlRvBDC1GixqBwEuaeEJKQRlJnkqEQNr0IohY5UmaaEFMJATHGMIu+lQgvCxSCkT6acpbh/5CMRDUQ0cBQNHOOaLbM+zb0lsn7LrMJ/yhdLBgiSVR8I4Ha7i3QW/qe81ImVsxhRwdHWdEBPGhSXvx4Y0BkPxfBL6EAqAMSoK9rkUOa/QYKkyhglGdF2RIZFUwS5l3AtBIx7mcmNUrlQZu+BAXIkPKKSEYv3fVCvJO9k1d+rUttoH08GZGXttuU9W4vPv+PRQVllCytpDd3in6rPsuqg/L6n2+OSiETK7xmH3qkU+5iGntgsgL94E7mKFC1y70rTwGEBwr59+/n6m2/0ZDd1ncgFXvjsQ7c7Uz45D+tX4WcKY/GHk75its9wiH0EvZm9EyRh0AQARjmg6rSoOArklG/wF1j0v6u0A6uACAkrWPUkRePtzaTD4jNIaJfF7S9kSooLQdP1JSd5AQdivI85vGDmHAQC6t7KwxGqZ7RgMYor5BnKayBVFcZGcqQRPXSuHTpKpRs3nRXimC9D74XfMwagyI30UNCJvAp1aMon8ug02uIfKrzKX87Dz2pdFv2Jsv7MtSDylAQcTpQGS7Oflb/ejva2RdeFQZculUbGXLMU24dL8xZHe2ZJvy/kYTV3lnDJ9DGVkOLZ55xNw0YN9QPGSXKFVmuYcipKTyfJK5dZjBDsNBSk0tLCqGpKBAiy0a/4cSVn/ucMatSoSUKVKkZ9/hF6AZRZxNJ/UX8ZMULCG+AlNzeVpOrxWCis5y/93Srik2Kprfj9VnJzPVSpkqQb3sNd6lWMkTGM6REnsll1UJZ9S91YqiACFBQU4Ixy4HRK+2j9hK9fR1tG+sZgpi+Yf1ffDr9FSD7jL6H/HF5wtaiDQdyuAjTNT3xcbEUMUJnuKeZO1oTLJd4XiIuPx2LRW2WfyEsAmDluLlc+gWA+8XF2rNYTLVm4Vmy43RJ6shEdHY/d7jjhejOlk2nv8/kpKMhXITb5o2tOQedSromyzoCjL2IJ2+Xl5hAVJSFAe1mgblmFO+L3ZD1kZubg8fh5f/r79Lq8F9HR0RXyrLLcVEbPryq+Ckng9FEt1HkoB6ssD/h/8h3zAGdu3wI+bTYrNrtFnNfqOixAWL3qF3qe3oNBtw/jgosuxB/QUAz/IWMidyjaRrj89VY4oDLUsiWrlwgGSUvdycJFr3DbbT2xkS5vUsgkKIb36Ouv/MXFhhasQkZ6Aou/3cqlvQYQV6VmyKAWOXAaJYdSwaDbbmP6msyGRQ5boncU2CgSv9exkjGSpqkIpRwUjpXyVAQkbsTBgwdZs+YXmjRtTHKzJmpCqETI0MZ4BLVISaXhiZAwRYgAycAYCjgoBKonWUoSog5AhI9B//mhl3kmslGQn8/m31cTcKdx5uldQRN2SHPDPvT0qT/ucANd0qm/tENuymR4ICxW3F74/Y+dZOcF6XnmeVhsTmNGlvae5fw50bOOqrBoQTas/5Hc3JX07BlPfKxPgawTsgRCrynr0Y7FksimTZmkpybSstV51KxVH013eRWC43JWzdFup89DDavVQmpqKqtWr6J5i2Y0bdGMoJpz4QAhfP4V12hRIHboXCxqoMzf63c5MliWFeN1eVn63UJaNa9L0+SaWC0682mRdVQhWDBkHQo3FfUcvaQai50PZ37HL2s2M/6N/3HBBeerUMPJdLl8Gm6Pn0BQX8My5OGqqmjLdTLpojSyiP9HvI5OuxWn04pDmHtLAxDeeGsS/x38XzwyN4stnAqZm4d5G7VkjVOwnSA7t/7CpElX8srYc7FZN4LFLbixyLcrdYNUG14UmtaQfbub8O6k3xk+YgqJ1ZujqUlaVFuiS0Wv7PGWGLcPN4chVkSDMvlY9S7PCvgCBH1+Duzbx5x5X9DltE506toRq00SHU3oZW6GRQdBjbtqCqWHKXT2xqAyTmZEwZwaKvThsKsW1QrMmD6rMErnIogm9Cgr2QcP8uOSL/C7t9Pv+svB7ynBq2G+/dG0EO7SLs0SMT9jgILQJi6W2IHL7WDJ8k0cSA9yXf/b0WzRCjCfKCtcOD80bARY/M0M0tOm0OeaIInV8oB8OKGeNQFZcqpM5scfXOzZ1YIePe6gUeO2aJoeFlO5s8cyNOX6WU2F13bu2MHcr+bQ5bQudO7WmaAme4iuXV228Hl2ZIBQIvHIYXekI89f6aRSkFPAB9Mm0PO0ZnTuWBeb1aPAoBEjLJ3Dz3z+0ZZLSE7zrcMGx/yrHBAEJFjjGf3sJ3zy2TJeeWUcF1xwnqJoP1kueVW3T8PlDeIL6jIXH0vNPCKfLEKfYDlsMsZaEKfNQpTDgtOug6qjehBee3MCtw4cjMenYZ7nCpdOxS7vku4uBsluDbBr689MfudSXn/1VGz2tWAR13RRXKgyEEq9MMpjhKII0pi9u1vzzsTtjBgxnWqJrQgGHCVu1pJ4aLZc1nck/YQe/t6q/bL0U5A8AbVAj/2VAtK50e1TgCQ95QBz539Blx5dOLVbBxSfkiRDmvctjB8YCtFhoUqWDCc+UpuGseyMU420kpa+DyrBUr3LkVMAwt9TXPY5mdms+G4OQfcm+ve9BM1XoDxGhYYk/Bt6BcYhG7hxOtSFL/vg684O04PgxOWJYfHyP9mbbuHa/ncStMaccICgqzeI3RJgycIZZKaP49o+6SRVy0GjQHn4wqNH4UOre3bKY84fDtHLyDmBFvzwg5PdO0+lR49hNGrYDr8aUslRObz/p7wlM5k89WmhoVl0d+rOnTuZM+9LunTvTOdunQgEfYV5P2VabYbkR8GO4RVJJb2rzWLDnefhgylvcWb3hnTpUBu7xaPnKpXWcxs2vvpSKVwPxb15+q+M3x9hXihw56jGmBe+ZObnK3j55XFccOF5Kjxzslw6QAji8mr4glaC4tEs9k4RD0LR0ZJAuCUYxGGF2GjxIOi/LwVAmMgtAwfh9mqog3CRqyJ3mMNtPGCzBNi9zQQIHXDY1ymAUJimqH83jC6o2M2MhXCs9uNIr6uJQXQS1BqxRwGEnYy45z0SjwAQRKgQSDDoiM2NzHTT250OxPCKATUXeInhk3CXQ9haF/MucVavx6dCNOkHUpgzbzZdTu9Mx26nivdfGQr9nuH5BYaJFa+B2f2xOA+D7m/UKZTtOpCxGlwK5l6k7zvGiaxYiCE8/VXeL9cECK5N3GAABGXk9KlazKKVBJX05+gJXcUVUqwKtISxF6NhPsm4kf5MqwEQlm1hb4aVa2+4k4AlJpQ4Fj65jnVKlXVTDX87O36Wfvshmelj6dMnlcRq4j0oBhAO+6AKWMNKOAEIDiy0YPkPjsMABD30dGIuTYXWdu7cwZcKIHQyAIKE/PT/GSugjEDzcN6G0r2xAARPrpsPprzNmd0b0OWUWtgxPWplMW/ha6IkjZtyHXkGC7AL2hMZ88IXBkB4lQsuPP/kAwjeIAXeIH4J+wq3TLFXLosGT8w8rZynhgOEuBgrdmNzPgJAWE3P03vy2pvvcMvAgSUAhKNPdP2Ec+iE039e+P1Dt/IjKEUzAMLWn5nybi9ee+UUHDYBCPmH5B0UkbCkeX/0Vyj96Kj7RxEMNmDX7jYKINxTCoAgagj45XTuVSyHJkAQIiFhRpRNTPVLKCbJIduPcQIofjJQ3gPFfeDHbrGQeuAAc+fNpusZXel0Wkc0i2JDKHGURBapehDmxXCCpkJR9FwDs520UCfrvR1081xU5kMHIBwgWC02cjNz+PG7L8G1kf59LwWfbuT0SwcIhScvE3SY0ohLQz5raiaEekKgQSo5jnyFu1XD7qMAQjSLl21h30E7fQQgEH1UgKDP85KvI41nuO4Od9AvChACBkB4mT59UkisWqAAs+jj6FP86J8o/SIIs6lqrATYCkAQD0JHw4PQNsyDcHiAcKjuDPB3SNZJybtHafaUQoDwhQEQOhIICkAI6rNOzaeyXuEjV5oRNXWnf89mseDJ9TBDeRAEINQMAwhHm8dlkdmU98jvHAEIZdHtyf8ddU4MBnFaoUwAweWVk1n4xDx0YzEXtTxMmR0DtOpTT28NFEp0CdNZYa+homfFEpdBGECY+m4vximAICEGl5LvsNtdqddU+NZkZjuWgL6LPMj8fRkAgrkvCNFQMKAMsbjDVEMjs+uhxP+LBGwNPYXFBpWGJcQiB96wdxV+BbeicQ4YACGFuV99SdczutC5e0cCEjgK5RLo91WJiMGA4sLQm0KZVSKFN5ZPWm16TwVTVkV+pDwpxQGCCnAdskrCf6QDhFwDIPyhAwRvfmH5pgpZWJQsiqVRlXpaw2qww54RelQIBhsu7eIymGNtvLeBQ4oCCfEVGwBh+Z/sy7BzzQ3DDA/C4Rd++IwJTZWwxxt5eqGsHnN7Nk1JyMCFx+nD5lxRgGB6EF7m2mtSqVZNBwiWEnR+qMSGDkKLNWz+hwsRwmGGEHLvcFdW+HpQ3ysECMsEIOwwAEKjtipxTJ3qSggxqPcvsm/opbNKX+oZ5vfCja4pnLG/mPdQk/lQ35P56eIAoVO3U0MAoeheV5YN3syKC9NX6DZHAGWGV06gtifPw4zJb3Fmj/p0PaUmtpAHoSzyGN8JHzdzfkjYIHQMOfJGeShAODlDDBJeKPAGDutBKLU5OA5V/5O+qlaOFiTKcswAQQ8xuHyli+hKPrwYKE084oqtT6+HF+Nl1taa27ESSq0j/TdmLp8avMONYBhAmPZuL159RUIMa0AtHt1Alngdcj9zSxYjoudwgjAMmsbQCkHjd8aiLVL+pBaXPE8+L38EeRcChIkTd3LvUTwIpgT66xopoKEiVMPQhuSWZxWekCWJyXTv62V4IoHoWEMlnBgq9Pi8ygMgIMBusZK6P5V587+k25niQeiAT05MYSEARcds5BpIpUKh50CvIDFsqCpXc0RFYbUKPbNUK5i8DTrAKDqAJW3mRUcpHCBYXH/Qr+8l4HMVuY8WkLI06UchcWIBKJJx61QU0yYACZk3FWaQ3A8VZFHW5VA/jCmXJGLorkg1jqoyIAw8KIAQw3fLJcRg52oBCNaYIim74dMrfFyLvKU01DIBoawN8R4ZM0/WjDl1dfsaDnZ1yQ3m6iJTXO5nUyGGGWRJiOEaCTEUoB0NIISMuzxVenDYVNWILpE5n02J5L/ihBRDIgtbl8/8nCFd8RcwPAjNEYCwa0cnevYYSsNG7dHUujr8FTYqeuWSRcKbFgICPoVITOXpBNXvzBlpHj7MpIsivhP1+UMPD0UBQkc6deuIPyhJisfGIRG+LopuQKb+9CohI5unWBJkcT3os8eKFU+euxwBgglU5HlmgNmQydhw9QTII1+FAEFyEH7k5bF6kuJJlYOggcuvke8J4DfWdamw8tFe/v/x748LINz830G4VRXD4S95gFoGmpxUwVVQQIHHgztoJaFqNewOG1ZNFjfYtQAeTwHuAjnpyHIU4yIAwcjssdmJj6+KraRM0+MGCIXAQNNi8XnjyMuLxue3UqVaBtFR+WrzCfijycurgttdTacFDm+ApCy6nGLdxCcUEB2Vg1VVUUgOQkN27WrFhAm7uO/eI+cghDYt5ULRIYIY5bz8Anx+DXtUHHFxsVi1ADYtgMUip31UL4XcfDkh2tFELgvExsWrTGKpnbYFpbOjhhYM4PZ6DHKkoHJbph4QgDCX7md3o0OX9vglKUuRL1mMXAO/ylko9BroY66AhyoNw8iJsFPg8uL1SSKcyGHB7nQSlxCv+4/UZqNvOKVJrTQBwgoJMbj/oN91xQCCNLUKmKySZikaKryhch9sheZCyBxd7iAFHgd2uw0RSRJbD90AFQ0kXp9GnlvDr0mtvo24aKvSub6lmh4EHSDsSbdz9Y3DCKochGI20VgeJQIEBQ4EPPtwu9zkiUtOOmjGJeh9NBRA0Et5taAPV0E+Au70rHE7zugYHFHRCoiFg4myAgS91FC+HYvXE09efpQC8bHxLmKiZQ24jfd3oGkx+H2x5BdE4/U6lSfH7ggQF19AlFMqJiQU5Cv0WBTxIJgAoSM9ewwzAIIYqKOf4WQO+7wuXC43noAFZ3Q80TExKinTpvmUvmTu5hUU4HJ7VVmtyGax2og21oMODPVS0OLMFYcHCEeXzdwJjbx+hZf0++u9U1wuDx6vhCtkXUFMbBzOmGhjGykOQsL3VQMgWKx4cl3MmDyBM3vUK5sHIcwqqvHGSiBgJTc/EMrut9utxMXacTqElEncxPoh43B14hGA8P8TJRw3QBAPwpECmrL5SbKURfPj93pY8cOPrPhpDfmBaG4YNICGDWthDYIzGMAR8LB29UqWLlmKxy8nKTE9usdBNsNa9Rty3fV9iY2JOnQfOQQgSIjhVzSLR8/uPaoHQd9S0WJxu+ux6XcLCxfm4XJbuKa/m/Zt5bSZT0ZqHN98Hcsff1TB6bTpe6laOPrmIQYwKiafS67QaN/GQ5Q9Wx1eSgYI4qEojs7NU43Olib68wa8bNu2gwVff0t6jouO3c9UCUAxFj9OzYMl6CevIJ81v25gybIflMkWQhA5zff8zxl063k60c4YHCrT2U/Q71MAQUCD2iAtkHogjXkL5tL9rG6c2uUUfAog6BUBQpUsJ/SS8g1k83Nag0TZLIos6O+/d/Pdd8vJzJIwgBWr3UFyixace/EFVE2sgkUMhtqYTc/DkTfdIh4EBRDMHARD3xKC8Un7aF1e85KyShXmUMmREmaxkJqSwcoVm1m3KYtGTepxZe/O1EgUj5DP4A4oLNj1+wL8+VcKi5dtIrMgQJcuLTn/rHZEWd1Y1InaAAjeGL5btoU9hgfhmACCMb52vOQc3M/PP63m5182Ub1eU8655CIaNqqDXdOwyxgFPaTs3cUPK37kz7+3EdCs2KPjaNnuFLr27E71pCRsWEMslSUDBMnHcRULMYTrX7wANjQtDndBDTastbN8hZuAFc4630HHjvk4LBkG4E/AVVCdHVtj+XGll527LQT8VqrXtHDmOTG0b5dLXHQKFnJB6vSNZVIYYjhWgKDPF3kvv9/Nut9+ZcXK1WTl+jjj7Avp2q0LcVFyyHCD30dmVg7fLVvOhj826QA3qBEdHUvP/5zNqV26EBcTj00dQQQgFvUiSIhqx67tetlv905hHoRjBwji1bCJ980XIDU1gxU/r2HLlq14pRY/oNGtRw81flWTErAJWFVempKecziAUAMb3lIBKxPXFob1dBYZIav6+880Fi3ZQFqmR3ZratSsRtcurWnfrg5V4gTASiml6KrkjTQCECIAQW3Aq1eZSYoTEQ/CkQCCfrr0qQnsyc9h1YqfmDDxHb7+eiExVRvw4bff0bF9MxyahjPow+bO5e3xrzL6uZdJSKxOrdq1Q5TOYmjanNqd515+kZiY2EPtfWkBwiFrT3cZS222RhXyc2vy+7oo3pu2h3emplOjVgzvTqvOFZfKSTWNHTtieONVK8t+NE6RKtXfjscd5EBKDpnZ+dSt7+CNd+px8flB4p3Z6hQV1BqEeRCmkZjYmmCgZICgZ+jLogzicRfw99atfPTRJ0yZPkOdmPoNGs7Tox+nisWHM5hHQVY6K1b8xP+mfMwPK1dRq1YtdaLPz8+ndftO3HHvSM7s0Y04hxVr0E/A51EJiiawEYCQdiCVuQIQzj6NUzu3V6BEvAWq0ZLfHwIH4cmOUl4plYux9gCap4A/fv+b9z+ax/wFS7FY7cTGxOByFVCzXgP6Dx7ERVdcQvUEB3bjlFe602JhDoLFtZF+KklRsvH1gVS9HlR4oRjXhUX6UUjraCe+gI2UAzks/nYl7874lhW/pXDxxT14/ZXbad4wCmvAYyRHGEkSQQETOXw4cxmvTfqWfL+VIbdfzch7riTOnqefqIwqhgIJMagqBj3EIGWOoXBGCdu2Oq8pz4yApAAEfGSn72f5kq+ZPGUaP6z8jTPOu5L7n36Kzl3b4ZQEIZ+bjL3bmTtHMsS/JDX9INHRUeS7PdRukEzf2wZzUa9LSaoiRk+cTnqg6dAQw5EAgoDjaDStGrm5SWxYY+G9KSnM/iqDqrXjeWhUMv37eYi17VTz0l1QndUrY/niSxcrV7vIzhUUbMXnD9LzrARuG+DgtM5ZxMfm6FwkYetO0xxYLMcCEMTzFVRAzu1ysXHDet6ZPIUvvvoGmzOe+x55kptuuZHqcTYcvjz2797JwsXfM2Pm5+zeu5/omGgFisXj0KlbT667aQA9evSgRtU4xRVRsQAhiM3vY9uWv1nwzVLmffM9aelZanzS09Np1bYdV/Xvx/mXnEPd2knYQ2Gc4ganYgBCIGBj19YsJkxZxOyFa9FUSEkjr8BFl67tGDjwUs7q2ZQqMQGsQXcRL1W4hBGA8P8fIMQfWxXD0QGCkC75PdkcTN3FD0uW8uEHH7H8x5XKHRpTpy0fzPuKTm0bERXwEq158Gan88hDD/P53EVcdvVN9L+1H7HRMSrEIB6EmJg4kps2xmow8IUOJcZfZHHt2vYz703uxStj9SRFzSIu0TAPwiEAQU+aCgSqkZlRj5Ur45g6ZReLF+8l1+WkVu0Ypn7cgIvPyQdtL253PAf21CM7sy5YpVwrhoCnGls2uHn3vVWsXLuV08+pxqvj69KueQYOa7ZacMcEEKSCIOAjN/sgv69fzwcffsLceQtIz8wiIakW1985kidG3kN1qxu79yCbfvuJ5196g3nfr+P8i67ghn7XE2P38enMj5k1bxEXXDmAJ0fdT9vk2gR9XnwqOVFnX1POT6uV9NQU5s6fw2n/OY0Ondvh9rh0cGD2UjDmv4BE+byqUrDZiHJYicJN2u6/eWfiR0z98BsaNGlJv5tvomVyA1YsXcJHn35JzWYtGTryAS44/VSirbobuDRX0RyETfTr2wt84r7WPS8KIHj10EfojuLWVb0kHHh8FrZuzWLe178y68tlrN28G4vTwSWXncG45wbSvIETa0AMmOEF0sCd52P5ss288vY8lq76m6rVazBkyHU8dNfFxDlyQAEcvcxRAIJUMQhA6HOjkaQY5lQr/pbi3ZWTq7jCA+5c9uzcxaJvF/Lhxx/y2/rf0YjlrIuu5YHRo+jQsRnR0kjrYCrLFnzO+Lfexuuoxs0DBpPcpB6rflrOzA8/pnqDNgwb+Tjdu59KrLTMVm7tUgIE5XURP1AUPm8imen1Wf69lQ/f38XyFWlk5ARo2qY6DzzenBuudxFv2QkBG7v/qsq4V3OZtziHCy5pylW9O6D5HHwx5y/Wb9rN5Vf6ueVGjYZ1jcqJIgBBr2LQcxD0JEXJQSBYPMSgf0m8aIFAAdkHU/nl51+Y8eEnLFzyAxnZOdRtkMyIR56i/w19qRVrxeI6yNwvZvPc2DdIzcxj4KDbOe/cM3HnpPPRjI/5dukKup5xPsPvvY/TunTAaQ0oDoHwuony9CDYtCD56anM+vBTxk+YQe2mrbnx5htoUr8e3y1awo8/rKB202QGDB1A547ioTocn0F5AQSTalPPfshMKeC9yUsZ9953tOnYgf79LsHh9zJ58mes+HUzl/c5hxHD+9CpTW1irC6sAeNgUWzx/iMAAiBMipEchNLsvPpn9ANNEKcFEmKsKCLFIxMlld6DIBvhjq2/M+fzj5nx3odSpIPP4+LAgRQcAhC++opObRoRF/AQHczlwM6t3HX3Q2zYtJMBQx/gur6XExvjwGJ3klijuor3+wxCs0NaRYkrVgDC1lW8N+VYAIIVLRhHZko0CxfEMmGajS1/ZhIbY2XP3kyqVo9j8scN6XVOAVZtFxZF8lJV1XKrkESwOmn7avLRtBwmzdiKo6qfMS8259yeOcRF7QNNjJnkIJTegyDJVzlZGXy7cAEff/IZP6xcTVJiNfbv3YstrhrXDXuYJx+5l5ri7i5IYek3s7n9nlF4bEnc+/DT/Pe2/ljdB5k+dTL3PfYCzdqdw7hxY7j4rE743G68HncRlkab1U5GeipzvppNlzO60r5Da1welzK+xUsdxYMgwEC578UIS+6BP48t61Yz8tGXWLFuD5ddfS2PPDWKBknRLPtmPiMfe570Aj83jxjB/XfdQrQwvx0TQMhTVQy6B6EYQPAHdIAgFM8hxCjhFTt+f5Df129nxmer+WrpFpXMl5ubR2a+i4svO53Xnh9Is/oCEDx6pp8Kp2hs+WMPEyYv4tMF68jO91A1KZHbB1/Nw8MFIOQp8KY8KUUAgo0+Nxo8CKHiy0PLOuW06pAaEXcWWzdu4IvZc5i/cBGZWQdVjkd6uoszL7yGB0c/xqkdmxOj+cnYtoUJr49l+swvOeOy/jz02Hivw7cAACAASURBVCO0alyDP1Yv59WXXmLlb7vpO+Qebht8I7WrVsERPBaAoCcaBoNx7N8dy4Kvopk23c2O3S7ljUhLz6N+i2rc/3gz+vcVgHAAX24c3y8I8MKraRRYYrn7nlM54/T64gzhYHaMYqurVm0bDev/RdW4NCwWVzEPwrEABAmBBUnZu43FiwRIzWbrjr34/D7SMzKoWr0edz/6JDfccD21YqxoBQIEPuKjWfOIia/B7UOHcsG5PQnkpTH1nXd5+93/Y+88wKuqsrf/u/2mh4TeqzTpCAi2saAIKqKAIo6CCogg2EVFnbEjVVSQIqA4CEpR1LEg2EE6Ir2XhJBCenL7/Z61zzk3NyGQBBT9z8eZhwGTU/bZZ++93r3Wu941H3N0Io88/Rw39LqWCGtQpXH9UQChODFR6LB+dm/ayIRxb/H19+u5Y8gw+t/ejyqx0WSknaDAHSDgsFGtbhUS4iKxmaR6a2mkwD8KIBiTRHvGri3HuG/Uu6zfeZRho+9i5JAbqWwt4LOF3/DsG5+QGwzyzLND6H9TJxIjvZj98i1Pbp9wGQI20UH4G5MUzwOE8iMD/cwzAAhrubhrVya/WbYHwWoK8OvP3/L044/gdvl4dPQj7P59I5Pfmo6lWnM++OILBRBifG4c/gy2rFvDY2NeZNuuQ1zU5XIaNq6nZHkjY+Lp0+92atWvowhvandUsoiRAASTDhBO6UEITzEyqIBCHorlyG6Y/HoGn/9UlYG3ticu2sTrr3+F1xnBrA/r0euKfEzBQ3r4TmPHi6vUXViDVZ8FeeLZVJKzAjz+QisGDQiQGHkIsylT3+kWkRTfmX6Yh0IkxZNJWapVpiBHDh9k6huTWbr8C3r0uJa2LZozafwkUvK99HngCZ7XAYK5IIUfv17GAw8/R66pEo8/+yoDB/bBnJ/Bf96by6jHX6RZ638w/o2XubpLK9z5BXg8Qpw0DjH4Vk6kp7L0syW07dyWFhc2xaPkjI2sB0X7CmkbKIEmvZqnyFvb/QXs3LKBJ8e8zq+/HeKGfrfx9L/GUjkqwK/ffsOjT75MeqGfu0aMZPTIu3Aor05FPQifngQQVNqlVwCChHCkhTqbXfIUHDby8gpYtuQ7Zrz/M9XrNqf7pe1Z9f3PfLJyI1f1vITJLw+icS0bJh0gBHxBjqfksmDRL8xb9DNBkxW310+eF+4Z3Ev3IOSKQEU5AYLBu9cycjSVwCA2kw9PXiorPv+Md2bOVQC4+1WXsXPnNhZ+/A3drrpFAYS2bRsS4S/k0LZNjH99Al/9soM+94xi8L0DaFQ1kmM7N/L2hFdYuHQV/+g/hIefeZK6VStjr4gHQdkL8aDFsm0LTJyQy7Ydlbj5pg64TrhYsHADlsp2Ro9tzG39XMSYMsk/nsBbk9J5Y1YSNRtW4+qrG+G0Q3ZWPrXqxnLpPxJp0SKXCMdOLKRgNhVPdTJ0EMr2ICgfERZTgB3bNjF5ymTWrN/CTb0k1BPgPx8tJtNtVQBBeRCcZiyePNJS0ziR5QJ7NJWrViYh1qKAw0fvL+CNd97H44jjoaeeoWeP7kTagpjPGiAUcRjCx7VSswx4WPX5Vzz376kkp+VwVY+eVK9ZBW9+Ljazna6X/oN2XbvgSIhQcX45v3SAoM1G8agVJymWh4Ng5C6F3IDa+uX3s2ldMvc9Ppe0nEIefHQQd/TtSvVIN+u++437n5irPG7PvDCKe/95JbXivFgCEt4rBSCEhJLOA4QKW+G/8QV/OkDYunEtM6a/SY+evbj2H1eyaM50xjz9LwLVmvLBF1/Stnld4nyF2D3pzJs9k/FTZpKUmkGzFq2IjLDjys/nyNEkeva5g5sHDqZ1h1bYrRasJXmHYQBBS3MsCjFI2pXa8QVl1y/Sn1IRUIy2lr4WDFg4dqiAjxbmQ2R7Btx6IRt/3suI+78l1x7NrA/rK4BgDh7UU7mMXVcsKYeqMeX1VN6cl0Ony+IZ/2YjWjZKwUEypqBbz3KwKQ/CkcPNeeedg4we/Z6upFgaa1szJcdTkvn4ow9JTUtn8L2DST9ymNHDR7EnI5ebxIPw1ENUNbuxudPZvWU148dP5Zv1+7n+lju5Y2A/nMECPvxgPnMXfkX3PvfyyOh/0qZ+dbwCEHwSQy8OEDLSj7Pk049pc1FbWrRqil+2g2YtzVRIouHCRwY4kB23kLzsARfpR/cxZ+YC5n+0inrNWzFk5P00qpnIT998xbQ5H1Op4YXcN3o43S+5EKfJc4YAYRu39b9e6SCo5E1xv7u9+L0yGMRNLpwOCyLMZLObKcjPY9W3a9j423Guue56KsdaeeftD5j98Vq6XS8A4W4a17YqD4JsinJPFPDVN7/zzvzviYiK45IOjfly5Wp2Hs3j3ntv4vGR1xFty1O8ARXlN+khBpXmeLIHQctOkLEnfSj+NK2ojcS9PXkn+HHVSn78ZQOdO3emXYs6zHhnGlOnLeKy7n157N/P0K5dA2zuLHZvWM2kiVNZveMYtw55iH6330KjKtGk7trA+2+/zIKFn9HuusE88q8XaVCrqhrh5Q4xKIKthYA/mr27LCxf7iG+UkOu696S7z9N5vXXN+OK0wBC/35uYsgm+3AVXnkxlXc+OEpkfCSVKwvfxIqnEAoK/XS9OoHBQ2LocOEJIm3HdQ9CESCsGEDQAiD79+3iww8/ICYujptu6MWWNStVGCE5x8TIp57jtgH9qOa0YJdxaxFiqvS3KJJ6lFHLOn6EqVOmM2fhZ9Rv0ZHHnh7DJRdfhEMyHxR5t4h8V7EQgwYCFaHYKD4WupcPX2E2yz9azmvjZ5F2Io+YhCpERNiUZyH1eCqNm7XijqH3c/HVl5AYa1ek41MDBJmS1jMACBpA1dK2xXujZUcFvG7Wr9nPsCffI88T4IHRd9K/T2eqRrv57eedPPDwLH7dfphHnx7JkMHXUifRiy2QW6o8/PkQw9/Yyp9F0/5UgCCTJi8rg5zcDKpWrUasw8LcN17nmWdexFu9KfO/+Ip2zeoS63Njc6Xx+mvj+eb7NTijoxn16FPUrVWFlIN7mTB+POs3b+XGgcN4ZOwzJMTHKgd/seq1JwGEC7FZtxBEcuaFHSzLTCXchZU4flzCFTHajs7kIiYukwjbCTIzvTijGxDtqMp3y47xwLCNZEfEMPPDetygAMJhHT3LourEXVhLeQ9efOU4+9KDTJ7Vlu5XZBPtSMZKtpY+p9YdTWpZAIKqxVAGQJDpLETCzBNpShc+ITGB31b/wqhhI9mVmc8Nw5/g2aceoprJQ0Qgm4LsDFZ9tYKnX5xIHpG079AOhyXI1u3bCUbU4LHnXuTKS1oTI5kJLhd+xcIPAwhmC6nHk1n62VLadGqjQgyiHCeWTYiIIpMsaYFabffiiu/CurZJ6psrl20btjFhwkx+3rybC9u2o2piJQ7t28vxHA83Dx7Bbf+8larRosR/ph4EAQgilKQpKYoapNflxVsoKaCSwmgGswOTpAlGm4mLCuIuyMHts5CQUI3kg/uZOmEBc5Ztpsv1lzBFeRDsmPwuvO4AG9bt443pX3Io3c09d/WmdhxMeHM+m/bnM2TYLTpAyFVZI4rNrQCCU6vFUCpA8GP2uSnMyyE3rwC/ZFNIWMbmJDLSidftUqVxq1SKwZd5iIkTJjBp2keKg6AAQtsGWF0Z7Fy3mkmT3mLtrmPcIgDhjr40qhJD2o4NvPf2i3y4aDltrx3MI8+/TKPaVVW8sGIAQdIAnRTmR5CT4yAiKpoIW1WWzMpl3Ov7KIyLVADh9n4uooKZZB2oyrjXMnh73hHMUdDjhsoM7N8KXJFMm76FDduSuGtoJe4fEkW96plgyiqWSlpRgCBTqLAgj+ycE0RERhAXHcEXH83mxXFTScqzMUI8CLf3p5rThi1gpLrK7JZ576EgJ4WV33zD9JkfcCDVTd9/DmXgwH7UrhaPJeBTWQbhaU4VBQiSZixz3ef2k5ddgNej10A1ebCZg6z470omTZ7Jzt37ubDdRdwz9C6a16/OJ4uXsnjZl1zY9Qruf/xROrRrRpTFq/gppzo0D4LoIBhpjqfzIBgqoiKrbiI9Uzxi4v1TidNERVk5ujeFEY++w7a9STz4yGDuubs71WM9rPlmHQ+NfZ8tu5N57KmRDB18HXUq+7AGhYNTnBAcClpYE86HGM7CGP9dL5UsKlv5OQjlDzHIIiVm2WIRd7wPszeP+W9N5OmnXw4BhLZN6xLt9xEZyCPjWAqZeT58DifVatUiPsKMOyOJD+bOY/L0d4mu3oCX33qXFi0b45SdWLiXukyA4CDgr83+XXFMnJQP5miV5GSPcHH9TTl0v1J2e1mKJOYtrMP3yzw8OGwrGZExzPiwHjeqEMMRLQ1JPTeBrPRGvDUhmRcmJtHyomjmLmhGy7rJmEhTC1PRUX6AoCfvqfivbIREBMnnzmfrL78wevhodmYW0FPnIFQze3H6sxWZ8avPv+S5f4+j0BJBndo1CXhdpKZlYIquwSNPPUfPHt1wiCvVY+SxFwEE2fmIx+KTz5fRtnMbLmzTXJW3NfgGUmhJlWnWi0ZpwkHaIf1hDbrxu/LY/Osmxo+bxpZdh6lRux52C2RnZpLvM9Hj1oEMGTmMqgl27OjFlsoxIzSSos5BkDRHpaQoBbi0DAu/x09mWiErv9/Nz2sPEjTbCZjNNGpclX59OlG/XrwiFYo79dDug7w1aSlzlm6hU89uTHlpsAIIQW8hh/enM++9H/jix71c1fNq7h98I8nb1zP2xelsOexi6LD+PDaqJ1GWLAUoVCp5GQBBeQpyM/l51dd8+fW3BExSIMZKlVr1ueK6nrRrdyF2cxCn30XO0R1MmTyFCdMWcakiKY6lvQIIJ9i5bo0CCOt2JXPLfaPpN7AvjarGkLpjPe+9JQDhsxBAaFynqmLJaD6ukkJJpWQxqAFn7C7lSqtKffMWVGXZLBj3+hHyYyMZNbYJd/QvJCqYTebBKox/NZ233jtKw9aRPPh4HW6+vhauDAuTx+1gxpz9dOsRwzPPVqVjq1wspvSzAgjSQgGqJoumXYAvj88/nMkL497iaH4RQKjqtCuAoCmo+OQtyM1K44fvvuGd2e+zeecROl7Wg2HDR3BRuwtxWiQFUWL+ZwoQNAMsqcNyj93b9/D5shUkHU1T3jdR/O/WrTNZ6ZnMnPmeSm8c+vCTDBk+iIZV7Xz24Qe8Mn4GaflBHnvpVW66uSfxTgEIp05brDhAEKDvJzXFxZwPNnLgcLbSBvH5vXTu0oLWzeoz/c1FLP7yV7r36s6gu3qS6HDx6aLPmLN4DcnpuTwxZjhD77mOulUCWMSDcB4glGPl+t855U8FCNrcEyEfH45ALvPfnsDTT72Gt/oFvP/F1whAiAwEiAq4cViseEVZ3CIiIkHsvgJsrgx+/u47nvz3eHwR8YydMI3W7VoSYaF4mOG0AEFSypz4fA1Y/V0MV16/A0xOJQgTG+fluVdsjBjixBw8AkTjcTXmh6VuHhy2jXQBCAvr0evyAiwCEGRyBG34A9U5uK0Gr792jAVfHWPYY/UYOSSSWgkCIrJ0T4NAJOkAjYNw5HAL3YMgQkmS5nhyiEE5LGVzGtBir5JDHvC72fbLah4aPpptmQX00gFCdZMHS2EKm9f+yguvT+O3vUncMeg+BvTtiSfrOMuXLGbqnIVcfHVvRj36MK2a1gV3oWK5GyZeNk8CEFJTkln2+TLadWlL67YtNFe4RSSLzUpgxqhiWBRV1yaAGEGr183BvXuY9vY8vly5Tuk0PDBiCIkRftb+uIo3p7+PNbYmg0aOpHfva7BbCzUlvHLQEAyAEBJKMqSWZccm5aU9AVKO5jJ1xje89f4KHbLAJRdfyIRXhtCuTXVMgUKCfh+H9xzmrUmfMGfpVgUQFAehhoWCzAy++GwDk9/5gbhajRn6wF00a1iFHet+ZuKUuexIKuSOO3tz/709qF7JRYzDpwSn5LuezoMgxic/I4VZ097gtQkTQ0XzmlzYkeFPPMuNN/eQQuBE+ArIS97F5ElTmDB9EZd0v4VH//2s8iDY3JnsWv8rkye+ydqdSdwyZDT9BtxK42oxpG7foADCgo++oO21g3j0Xy9pHoQzAghFC5r4eLwFtVk228y4cUcVQHhwbBMG9HcRE8zmxKFEBRDenpdMq25xPPl8La65LIKCVD/L5icx+e1kqreI54lnK9G1Qw5O04mzBggGjjELic+fz+cLZ/GiAgj2kAehaoQNu5L/9mMx+cjLTmfliq+ZMfs9ftt1iA6XXsU9Q4bR+aL2RNutemjh5LoUxT0I7RGpZU1JseSAlYkkXgqvkiv/ceVPPD92Aps2bgtJlg4fNYzqVavw/twP2LXnEI+/NJ67Bg+gbpyPn79YzL9fmMLOozk8+PzL3NK/N5WjA1j/cIAQ4OD+PO4aPpNf1u1RH1re5J933sCoYX1IP3SAydM+4WBqIY0a11Uewa1b95Kd6+ZEdg4PPz6Eofd0p06iARDCPZDauJH7Bf4PeBAKvEEKzispVgi9/GkAoWifKS4tn8pUmP/meJ5++lUFECTE0LpZPaL9fmyuXDIz0hQhzBIdR+WERKJNbqyFJ/huxTeMeWkCwchE/v3GO7Ro3QynGaya9L6u8FpEUtQ4CFqIAQpVkRXJPvD7a/H7hkgeG3MYLKIEZ8YZAQMH2+h7swVTMAWCEXg9jfl+iZtRQ7eTHh3NdAkxXC6G9YimlCjhBXcdvl0W4OVX0ziQ5eWdBR25ulMmEdZ9uoJc+K7ESiAg1RxbMmPGAR4cNYdKlZoTEAWaEkcIIOjxfaWSGAIIo9h2ooDrH3ic58c8TE2TG1/GAZYuWsDdT4ynefsreP5fY+l59UUEco/x3SeLeWzsOPKs0Yx9ZRI9rrsci8+D1S+7Ju3rqLRFk4Xjx5NZ9tkSOlzcgbYdWqkYpZbOWIKXrZeWNpot6peWgjxW//ALTzw/kbR8EwOHjmDEsAEk2LLYvvZHXvjXZNb8fpQbBtzBo888TFyMSbl1i4WITjFki5QUP9WVFDUdBFGD9HqEf+AnPbWAJZ+u5/NvtyphJvFwtGhej2H39eCCxvGKCxL0BTm8VwDCMuYu2UrHXpcw+aVBNK5pInnfbmbN/Jq5S3YSXbkGbdq2JNJuIf1YEhs2bSOz0M8FTRvwj0uacv2Vjbm0WzOsInlcigdBCSUZBjropzA7g+XLFrPo448VT0JGYrU6jbjptoFcdnk3FYuODLjIO7abyROnMHH6Qrp1v5VH/j2Wdm0b4gzkceC3TUwcN4lVa3dw86AR3HnvQJpUj+P49vXMmvIyC5etoMtN9/HI2GdpUD1Rhd/K7UEwVnd9smpKik68hbVYOkuIuknkx0UwUoUY3MSYssk7VplJ49J4Y0YSLbrEK4Bw9WUO3GluPl+YwsS3UkloEscTY+Po1lEAQqYuUa0bE71YU/lIiuHARcCsD3Mgjy8WzeaFcW9zNNfOyKe1EENVpxW7Cv94yc1J47uVK5g15wN2HUyhbadLGThoEBd37kiU3aaIiboM20mGvwggaOWe213U+vQAISi1AWHLhq3MfXch+/cdUXNHJM5v7tcbezDAtDdns33PER55aTz/vPs26sZ4WLfiE157dQpb9mUw/OmX6XPbzVSOEWGsU2f5KA+CSC3PmlaOWgwagJG5fCy5gFcn/pcde1I04bBAkCuuaM8d/a+mSmwEm9bsY/ZH35KUmq5K+ibExZCRVsCvW7Yz8pFBDBl0NTXiJIuhKMU4fMrKsAlY/t4hBgn8GGmO/vNSy+UGCX8aQCjWApOfCH8O7781gTFPvYy/+gWKpNi6aX3i/B5c6YeZO+ddtu1Jon6Ldgy4cyB1K8fgTj/K1CmTmfnBR9Rr1p7XZ8ymTv0a2ESaWUvl1XfcpWQxSLlnAQgiEyoDIhiBq6ASaWkxmCwxBAKyRHiJrZRKpVjJOJAwggOPpzHfLfEyaugOMqKieefDevS8ogBb8KgCCCLFnJ/TkJlT0nnqpSQat4tkzoLOtG+UhiUoCD08RifmQgBCHY4eubAEQNCTSsM66mSAIJoILuVBEJKiAIRewx/n+acepoYAhLR9LF70H4aOnUqbLt159PGH6XFlR4K5Kfz4xRKefn4iGQEHz7wykZ49r8bq82DxCklQcy2HAEJqMp9+voxOl3RSC6LE90tWgDRsSfg+SgCCOT+HX777iadfnMoJl5Xb7xnKfff0I9GZx64Na3jl5TdZs+UA1/XrqwBCfIxVk2cOLzhUJkBYHia1XKCEb1Q1SdFB8EFOtg+3y4RdRLQkBdNuIj7ehsPuU0RBwXWH9xxRHoS5y37jol6XMUlCDDWDJO/fzcIPf+bbtZmy99TqCQSFlZ/NoUMpFHhNVKmeSMc2del7Yxtu7NkBq1li3DZNB8HgIAx4QEktq35SPIAAJp+XvJwc8vJzlXiUOKNNNpGejsXpdGIJ+nCaXOQn7+HNSRpA6NL9Fh7+97MqzTEy6CZ1z3amT57EBx9/zqW9buPhp8fQon4VDmxYzcRxr7Ji7W5uuW8UQ4bfQ41KsSHPWrlCDCUBqhToEQnlwhoKIIx7PYmCuAgeHNtIz2JIw3UijgVz8pkwNRVH1UhGPFaf3r0qY8oJsGjufqbOPETj9tE8ObYSF7XOw4Z4EM6cpBgOESSkZQ7k8MVHc3hh3DSScm3FAILD76IgL4NVK7/m7Rlz2bH/GD1uuo07Bg6kebOGREi6hSiIqlRQte89iTBbIQ+Cfr1AfU+hh6zMXHx+AY9KvYHY2Ei2r13P669O5adfNzHwwccZOvw+mtaI4Mcvl/Dqq1PZfzyf0c+9xI239CI+QkiTAhBKP0IAQYo1da5dhtSywUEAr8dM+gkRPdPLHJvB4XQQaTeTneMmL8eCJ2gnKsqm1ELXr/2dVycu4GhGLmPGDuG2Pp2oFOHGJGmOpWQgGR6EF1/9hIVSi+H1v1+5Z/F7SAqu6CCcBwjlxgdKyfVP4SCEN0EmtiOQzXtvTuCJp1/BVLUJC778SgGEGEkzyznGa6+8wrvzFxGTWI2nn3+FNi0bc2jnb7z8ymscTE6lz4B7eWTsU0TFRCo3ueIglAIQjCwGq2WTIiFqxZNEy15IicLxduqFScRMyU1ESU9qGMgQcuBxNWXlUh8P3reDrJhY3vmwDj2vyFMAQas+GUXW8QZMeDWdibOP0WuAnefHXkCzWrmYg0lhhZ0Mk2oABMODIEqK4kEoCyAIsPET9BXy+5o1jLx/FLtO5NN72GOMfeYRqpg8mHOPserrzxgxZhyFAQd33D2IW266Dqs3j8+Wfsjrb8zhgtYdefrFcVxxeWcsXjcmr4ugaBzo2kBKKEl0EL5YRudLOtFGajGIkJJ+FKN6lBhXEmKwuQvZtnETz780lV8376HzJZcz7P57qVnZyYaff2TilJkUBq3cMXQI99x/J9EOnZtSMlW1lDFb5EEIAwiefHw+D14pNqV4oKKzb8VstmFxWLA4xMku2Sni7RECmXidgxzac4Spkz9lzpKtdOl5KZNfGUyTWmZ8hbnkZgco8EZJ0qYqdS1GZPO6LUyYsoBtR/O5Y2BvHhjSkxrxLqKcHk3ZT4UYIk8JEIwaCip+rup2iC9Lk1xQlQvVsPRhD2ghhmmTpzJ5xkI6KYDwPK3bXUBkwIcr9SjfLPmAGTNnY0lsyD33P0jTBtXZ8utPvPfefPwR1Rn88JNccUUnKinQoXWkAITvixVrKk1JsSRCkFY78BbUYvEsiwIIrtgIRo9tyO39CoiyHCbodrJrcywTJp3g659zueSaWgzo35I4SwSzZ25m5eqD3HJHPCPuj6ZRnWzMpqyQFLnmtSqvDkLJAaERD8WD8Nmiubz4+lsk51p0gHCbSnO0e3LYsPoHprw9gy9W/kSlqrW5f+RDXHPV5UrUS2XemK1UEg9lVJRi9GuS5sZgD6oY/cHDB/nks2V0VB6E04QY9MtkDEpNEwEGqrCCDhAtAT/phw7y3qz5zP5gKVHV6jJ4yL10at2Ubz7/lHnvL6RGkxaMHPMEXbq0JcomHhIRO/4jAIKx/ugpthatkJs6VJqyifQjqSz5aDWbdmXRqHlTul3aGicFfL78O2Z9+D2XXdmF4cN707ZZIg4p9BUonUCpAQRNB0EAwvjXpZrjVX+rYk1/PEDQan6oHg3jZZXf9J79maFxUjL6ZWT0n/0jzh1AsPqyePeN8Yx9YSKOSnX44L9f07pFQxx+LxG+fA7s/J03p8/giy9X0LBpS2pUq0J62jEOHU6iQ7drePDxp6hTv6Zye8siGCqDoGL2RUJJc2draY4lAYLqq2Ja4uHT0AhW2PG4GrJiWZAH7tmFJyGat+fXpOcVLo2DoIrmRJF+pCavvVLAnKXHGPyQleH3VKdeFcl0ENZ2yUh9xQCCFjfRtedNPuVB2LzmVx54YBQHThRw6+CRPDP2CRKsXuzebJIP7mHhws/48LOvVHytebMLsJj8HD18GFfASe++/6T/Hf2pXVV2lz6VpucV+WQdJFisFtLT01j6ycd0vrQTrdq3VADB6JHTUQUkmUyUMHPSUvnvl6uYu2A5ySlZNGxYn5hoJ+kpKaRl5dHtqu70vet2mjevh90ktQ/CKhieZhCXBhCC7jy8HpdebEqrxqh4G2YzDqcNszIEatZqf3SAcGDPYaZM/oS5n2zn8msvZtIrg2lQ24EpICBSPAdGgqDkiAdZ/cMWnnvhfbYfK+S+Ibfy6KibiLLkgF8r3KVIiq5SAEKxyan1Xul9aCLo82L25pJ9ZCcz35rG9HmLueiqGxj93HO0ad9Ck1r2FXJ092/MnzePFT+uJz6hMpXio0lOTiE338t1N/fn1rvuonr1BBxBkSPTbYAOELIzxnPLzVLuOV+VPz9tuWflPNEAwsfvmhg34RjemAgefqoBt/XLJ9K8X3lO8rKq8ukyP+/OTedwiyVS0AAAIABJREFUspm69WsQExHJkaTjNGkT5N4h8XRtn4/TJoRd0dQojwfh1NUctc+ppdUKSXTZf+bx6qS3OJ4PI598httu70+VCAv+rGRmTJvGm7PmK3d5bHxl2rRpS80a1VSnSGpspcREbup9Mx0u6ojDZtV1EEoDCEvp2LnDaQCCdo2xpGicmiLQrxF4/dj9HjavXc/0WR/y1cpfqF2vHrVr1Wb/vgOYbA7uGj6C7r2uJiHOpqTptaqUZQGEaVzSuRYdL6yCxVS8f0u/Ul+TQjdWCWwUZhaw5OM1zF2yjtRsNw0a1lIFzA4ePEZkbBzDht3Cdd1bESegOGDUITn5CSoyZanEvw2hpP95gKB5nooK6RoV2gQkasNd2CnGqD/V9zxb+y0qh1oqYpgomzRFX4M0j7R4is+8BefEg6AET/z5fPLh+yxe8jkmRxyPvvwKjRrUEwofDnF9+9ykpqbwzoyZbN+5Q0tDtFioXb8J9414iJp1ammoQNyD4US7YgBhHfNm92Di+FZYrLoHIVSq2VinSussY3Gy4fVWZ92P8NbkDMwxNkY8GsVF7cVVLfE7ERKzk3oohndnB9m4289VvbzcfGMkVeNkAom0bEmAYNNDDC30EIOQFEv3IBQfMFoxmWDAw+4dO5g85U0yXUG6XdWDO+68g1hrQO0+JWMhMyObld//zPxFWqxb+i42Np7u19/MNddeS3RMBA6TxF2lsqYg34ASF5IRLIWNUo4ns3jpR3S65CJFAtVIWfoCWGIUF4dVAWwSZhBXep6LDVt28Z8Fi0lPS1c8B4czgnadOnPLbbcRXzkWq10mlTdUQc8AIaeaKAIQ8jJz+WXlcijcRv++1+EvzFViT+HFmeRFZGcoAMEkZUN1CeHQDA3C0cPJfLT4F75fd5xW7Roz7J5rqVE1ApNfZ43ru0m5RpwPW387wHsf/khKto9rr+1M35u74LSILLMhFW2nwBPJtz/oaY4SYtBrMRigIAQPQqzQMIJoIIjf48HkKyA3LYn/Ll/OV9/+SONWHel9x51c0LwJNmWuA5h9hRzYu4dPPl3O2nXrNeprZAydL7mS6264kcrVxVDo4EBflYTF/8M3H5CdPoE+qtxz+QCC5kVL5PsvTSxZmoc/wk6f/gn84/JC7OZjmlEMJJB9IpFff/by3y+zOZAk3pEgTVs46dM3kfZtCnDYjqn5UDwx9lQehJa61HJpI0GbT/L/yhHjl+yML1m8bDmZ7gA39L2dK6/6B/EOE1lJB1m6dBnfr15HgUt0SAyjrf0t3psq1avT7/YBXHzxxTisViUlK0ZZe7FwD0I5AYL+iCLSbRG0Vh42CTYUuti+Yy+Ll/6XXbv2q6qsQbOF3v1v5x/duxNXyYE5WKgXMjt1bbmiLAadg1BugHCKGRaA/NwAq9ccZMHy1Rw/IVkKQRo1rEfvm66kdesaREdJKqgHc1A2DXolVtVdYaBPFQGtxAuvGSGG/z0PQviGSUKDeF2kpRynUJRpZUUzThDvkcVCQtUaOKOjFNdNg2MVP0pxDITdRAPMtmCAguxsUo6nSjkU7dArIPuCQeISqxEXWwmLxdg6VKwd5wQgqMkd9OLNy8XlcuMJWoiIj9cK6piC6iVVPnIwQF5eNm5VfEcqOkpqmIX4hAQtZq6Py3AjpXaPernoI/vXMm9WDyaMb43VugkUuvaGzbjTICl1c012trAgAm9BvKpFGRWbidWZhcUk9Rjkegs+j538vBq4/ZFYnRlER+Zis0hsvzStci2L4ejhZmEAoUWpIYaSAEFVPiSIx+MmJy8Pv9mB1RFNVGSkkpYWxrNWhlUKO3nIyS8EKbMsvWWxEBEZTaQUqxGkqf5oC22R9Q+qnfex5CQWf/IRnbpdRKt2F+KTXOxThACK96BW7llTtjTj8vjJzS3QDbQGZa0OJxHRUSolTHOyGyWTyx6oFgUQJM3xUx0g9AgBBNkNGjwJlZIpJZ7ttiI4Xew9TUiFxgIXuP024agSHWXCYhYQJv1iyEZq/xDw5PH4yCsUIGXXyj1HyEQXFUV9h2dyaCEGVYtBE0oySIrhfVzqJBdZZ69P1cUwS+6+hBIKCnC5XWpXGRETT2R0FFJ2V+aFeIclVTM/Nxe32x2qcGqLiMARGSF1M4vtOuWZshvVAMJ4HSAIeC3Lg6CNb9FFcOXHUFgYoyqWRkTm4XTmYpI5oGfmBIPReF2xFBZE4/U5Ccg8thcSGZWD3XZCe1aoamf4kCstxHA6gFAEt8RfJGugq1BKObvwBsEWGUWE06nmg9/jpqCgAK+UFlViVsZztSVaE6syEREVqdzfWnErrZx2SYDw6WdL6VAOD8KpR7F2X5nDFhk53gCFBW48Xh+BoBm/yaoMiDPCrsaVIsoUU2Q4+c4npTmWCRBKrnclR6M2UlxuEzJt/SKkFASHw0pkpAOr1UNQVXKUjUWRCop215IAISEMIAgH4WocKtz39zjONsSg7U219dMR9JGZdFDx5nbs2adI75oYn9Td0bRjrul1I207X0S16jWxSiaY4fWuQHeU3PgXz/wSr7lH4Dw/rljJ3Pn/ISjhLT2MKRtFjz/ALXcM4rJLL1PaK2VtyEpr2hkBhClvvsPAMqo5Fluf9YEvZAfZBfilI40XCfMGqOVJKvDqKEjtHYrmbqkvWAQQfBzZv04HCG2wWjfqAEFygcv/VTR3jFaISZsGslv1YjZLTNvw38g5UTpoEVKRGFTjRUpOQlFSrHsGAEHbOSmVN+W5lKJVAmAkfi2GTdMhMF5N6RSoOKiKyqtrAn5991UC8RcHCBaSjyWxZFkYQFCxRs0Qlnybkj2p2qGPZHm2eCRCu3vl3hJRI0OeVQsHnP6uRR+rJEDo17cH/oIcvF63chcbAEF4FDZV3lknGZb2uRWqlt9rbxU03lG9YAh6699cgJO8mB63DZpUqqQIzGiizsIrcFLoiSoGEPx6FkNZo02+n8ftwecRaV25l1nl+ktTBMzJDsTmsKu6F6HDqLMT5kKUHbGAmRDACX01AyDMJydjAjeLByHO8CCcpnWhjy2IRPIhbPrccatMpHB3uqY+KAZAOD2GIZBxI0Q2CduUcJsY81iMEEY1x3Z6saayAILWZkMgXTgdxreXUs7GeNN+rvFSND+rFidWP9E9awqm6guLAa5DI055ECx6uWcBCO1pe1FbTTiszJlw6n5V01fXc9C+s/6tA9IWGcdF155uvpnRsxgMoaQyAYL27qe+uyotqo1zs1XfAOkeOAVYikrZhzmxT3pRFWIIeRB+0UmK/1sAQV811Ls7fW62rf2Jsc8/R54/SHxiZewWqwKEst5lpKfhM9no2v16Bt4zmCqVK2OV8F+45zvMtunmrtR+Df9hOECQEWSnkMKsZGa9M4sFi7+gTp26OOwyF7VVyheEQcMfolvXi3Whu7JWppN/f4YAYToDB9932nLPpa7RRZYpbMzqeLQCRjz83ooxLugsqAEEISlOCg8xiLhRRe4dmqHGPwwHkZ42Eb5i6+bEWL60v0sDCLU5ekSTWh41SqSWjTTH8jdMW+fC2hTU4u/ay2k/V+uefkvj1NM9QWUxWMwkJyezRA8xtGp/oSqGY+yUi+2GS7tZiWyE0z5PtbKkTnbJ9ctYTkEAQq4KMYgHYTt9b7kWb362JgUdemOTcp+J98Csyo0V9Ua4hK76heoUHayojip61snjVV8gpZeFt+gXoONTxkiMjcUWidsXE6akOAK/ScqGFz9KW/DlXuI9ELEnrQVGvFL7nlabFbvdrtW8KGE8jC9uGMvQdw8fl0pITDwI8xEOQp8+aWEA4RQmSDekpU9R7alKJEsfd0Whg7B+LDl3DDAYhjSVJLapMT/+aOfIwSKAIJLnFT2UarA+5sNmQNHIUJbX6EABqyc/oVhdEJkPVgsHDx1A8yC0p23HtviVOJDufTPeSXV8yRFW9ADjX8YGxlgjTjfqShZHK7lwCUDw5LmZP1tCDDUrwEE4Xc8aH8dY37QWal+8qO/C76B6wgCsigMkm5eSIYb/PYCgNk3BIBF+N3PfepN3P3ifYU8+Q8dLuhHrcGCTtSHgY8+233j9tVdJzvMw8rmXuOzyrkRb7aEMI613DfAq64ne08XmunjQjQ2y9oviACFAtCmfPVvX8fjT/+Kiy27k1ltvpVJ8pFqjRJTN4w/ijIzB6RQv1ZkdZwgQpnHnoCG4JJamNf2URri0SWk0NbzRoRIgYcGa8LlY8vXCr9VMuI9D+9YxZ2YPJk9ojcWyRctiCOcgGG09XV+dtIgYU7q0Kmul3Sj8BjIULASCtUg6KkJJB5XUckKlpvh9mnSxQRor4fwvsn/FHlH83iVNURFAKOqdYiawtAXSbCoGEFq3b4XHr4Uuwpe/ky8tGa7Ql0D16NKHozExSvt1EZGmqMWy28o9kc3qlZ8SLNyhAII7L1OhdG211yaXzWrDarcptT196oVggvYOUijJmGG6iS3mvzuV0dR2p35fAL9yDYdoy1gsTjyBGFat3keyhBgGSDVHZ3EebAm4qLVN058I+PVCU0rcp+gwvCECEpTXqMQnN17DAAghQxSahlrfS4jhewUQJtKnT7rGQVC7+1PvhYu7MA3DUTIfVWNAFYHT0kBWWKuKkTa1fY/J1JCffrRw5GBbOnd5gDp1WxIMBVArsJAZj9GHm+ZJ0P/oO/Xw7bkBKE73BJXFoADCMjp0akd7BRA0z5H6X9iiJJ6z8Lc3DKfRxyVHlTGfTrVYn7wGFAcgAkw9eS7eVzoIdVSao1W8NSepjpU2nkt7qrZyGn0W/nwDIBS7Sh+MoburX8q6aCFgTuDF15awcIl4EISD8L8FELTpJaFwH3afl0dHPcSvWzbzwtTptGrXmgiRpDcFsUrIMC+DLb/8xMMvTaRd91u4f9R9VImKxi7hB5XiLetXgPzcHI4cORQaohq5UOtxVfjbbKNy9ZrEV4pXnsZw7RhJ34435bF61ZcMGvEYDzz+Ap07tVPidRJiq1G3AdHxlfDLM88gvGHMkQoBhPVr19Gl68VMmfo2dw++D5dPHHZaBK9Uu2rMlIrAl7AFpbSlJ3xyhwMIYe4f2Lee2TNvYtLrXbFad0FQYvLhO/+y7liBxemUp4b3hiyIVoLBmhw92pCZM3YyatQcEhIaKh0GkwR4VftOsWhr1qTcjQpKOmeY9VVva6BT41Yl7idu2aTkJJYtW0ynrh1p004ThpF7aTUHSn+8sZhoxs4IIxgCS6K+qIc6wi7XXKlGC8OXo/D9sLZL1Yx/kOyMDFZ/9znBwj3c2qc77vwcDSCoW0l83ozN7tDCC0ZEQF0t5wgw0F4g9Brh73O6rhX3tLiAPZI/LjwBPcyjI3+T2Y7XH8UPa/eTkmmm74Ah+M2n9yCUnCcCEkTwSYRrVBtl5y9cClUx8+SOD3mHdKxTKlzU8Y8AhO++mU9m+jvc3MdNpfhCAsHwSp4nf1cN24XNEfXSpXRSOTQsjLurq4t1vgNM9fj5JxdHDjWjS+f7qVOvpca01tnY2jNP8v+c1GCtZUXnFv23weQu3ofh68WpJpXSQTh0gOWff0LHTu1p37GdCgNo7xH+Bcuel6WuiyUebLSw7Ltpw9uVV8B7c96hW+cGdLywGlazkcVwurYZTyn596nmdtHPi3ow9HGKeSy1/rcqD8KLry5k0ZKfGDd+Etf8DwIEUUe1BQspzM7ioYcf48CxLF6e8gaNmzbCLt4+yaYLijJwLvlph/nn0IcojG3CC2+8Qu2EeJyyXqkto6Sve/l98yYmT5qI2+0JzTs1mg1wa43j9nvv5bJ/XIzdbMEStqkRgmKEO51PF87n8Rcm0KHblZgCftw6P6fHjf246vpeJNSojE08rBWYs+GjovwAIRBk3dp1XNztYh59bAw39b5JuTCKlvsS0S59ZCndmfLMzOLLeCn/VXwwhyaWbvAEpiQd3cknnzzFQw9ehtUijGuZPCV3/qdC0uW2w2WcWHyiqiERrExqaiLLlu2kf78xxMVXU50SMuanBAGlGeiylpJSFsWwFpd8lNiD1OPH+f6HVbRs1YILml0Qioue9CTjB0Wdr/gFfqmLIDthcbGZRaLZgkViciVc5MUWG91lq5tGvYXFz5AFMT87m982/Iyv8AhX/qMrfreoY0rPaTsfeYbUi1C53cWowqfqp/KARM1zEPT5CXi8Gr1EJwAZ8T0TVrx+Oxu3HuJEHlx57Y2qgIYYulBMWW+CBneKh4BCdlOyGdQ80gyppPGGg4NS8VnYD4sZmNArS0aDj/VrviI760uuuMJBTIxXCYOdMqxSzIjr/6EDhFNgxPBRVa7Jo8a7ItFWYcvmLFJTqtHqwpupXqNhMWBr3OxUxrNso1pyoGp3PN17qCtU+MjEsWPJ/PjT9zRv0ZwWLZrpvgMDjIRBptJuGDbsdMwT6hvjdA26np4dULJDjfNdBS4+X76YNi1r0qxJdVXmPjx0VgSSSoOPRkDlFHNAz2wqenbRPQy5de13JftXNjoRzHr3c779bjOTp0zlmu7X/E+RFOWtbUEvzkAO27du4annXyWh7kU8MmY0tWpWxqx7kyzBAJGBXPw5Kdw1dBSp3qq8MGMSdatVIjKgZPM0gOB1s2fHTqZNewuXSzIhwgeTSt7Gj5M+g+6j2yVdcFgsxbL3xFuRc3QXM6ZOYtaCJbRs3ZbEyolK1OjY0cMkp2Zz44AR9LunP9WrVsIhOkBlmY5SZnH5AUIwyJrVa7jyqiu54IJmVK9RSxkSg3+mDbmiqRseC68QQCjxEmUtTqF9qMmEqzCXYylbado4EZOqGmjwTsu6S7nWtwqeZExV+TsCjzuCpORcatZqjMPuDAkVqfaf5sOVpmhYwYac9nS5v9vtIj09nejYaKKjo4viraGFTBuwKv4eHk5STdd22qEX0rtaAwc6Wew0LTjdmJVbBXx+crMyCfhyqFI5QT1LoWyDe6GXoy4pVlLaQqk1rfSEo/ARYryr7AhUWKHE2NaWduUsJCunAJcPKlerESKfhT8hfFKWlo5c1u9L77qw1mqdUWzZ1nonQPaJVHy+FKpWBatVmwulhbKKO8pPY0pPCWTLufLoICtocpCV5cfjchIbUwO7QwjBpXkMSoMCRQBMa045n63CeacfiBphUJ8PGelqLkTHxITBuxLXF+M4hFx0RScZvzcQov6b0uHLaRBMGNAUb11KShJx0Q5iYzRmetHXNwbDqfukvL11qp7Snld8tmg7QDMHjxznRFYBs2bN1gGCaIv8PY6zzWJQwbGAi8hgDl989gkvTZ5HzwGj6HNLL6okRuipspJ1FCA6mIc7K4m7h44mI1iLf08bT72qcUQExQuggs6KqyDEZ49XJ/SKBHZoLmv/9sjPHBE4rHaVcWOEGMS5KGT+4wd28p/35nI8M5/+/xzMBY0bEWUJsOXXH3nmuefYn2Jh2scf0K5NE5x/NkCQebht2zZeefWVUmV4/x7DIKwV4r4/o+zTP/pNihj8evD2j37AH3y/Uy5f2tKg/1oMjSa2dOolR7wJ4YzzM2uo7noOCBg19LUN5CJZE1qlyTNm4eg2RnkM9LDCaaL02g4/BHyKrHO48f8r4Ojp+9Zo0elaVnwHE2blTnHrMzE1CvKV4tWriKE/s1F0/qoz6YESyKasW+h7nZEjRtC+Q3uVWfR3Oc4WIIhWhjNYiMN3gklTpjBv8beM/tcbXH5ZZ+IiJZFV1kKLqoca5c8l49BuBo14GEftjjwz/l/UiIvGERQAoRgbKhyQl5vJgYP7Ne+rVAANB4KSlmu1UaV2PaomJhaFF5RKp3hOgwRFD8brVUUOg1YndquFKDxYXJnMmjmdx557m5lfrqBrlwuJFA9HOaZsSS+XAB5DalkkZjRyaimrvngbhcXtl3isYRT+fivh32U8/h9uxykAQtjglZeTQe11e3SjffLrihFV8XRJuzmrcaIBBAljeD1uzYjrZEFF6LPbVTjD2B1WSDRMfycBHpJRIJwATYba8BoYMXktLqiFM6wq86PYjldSSnXPippDZU3Es+qPCgytMJZ/Ba469allvVd5HlJs86mvOIYXoMyOK88Dzp/zl/WAjA8xgFaLysT5s72fFXnPswUIkr3gCBRiyk1m9GNPsnFPKv9+axYXNmtMpFWMr5auKnocloIcPlv0IVNnv8d1dz9In4G3EO90Yg9I6E8rM27ye9m8cS2vvfYaBfmFKjRr+EblvSSR3RyRwKD7H+Cqq7tiNYmoly5TL2BEZPhFNFBCdiYzXlUAL0hk0IXTl8ec2bN5+F/vMPOLL+jcsTkREpQtB8/eoKxqUgOSDRVQBeBiI8yUARD01Ja/SHe6IoPh/Lln0wOn8SCEGQgx2B5XcT2C8KfKgLerwklGLv0ZtMnwVgQCWvVGnedgGHBZiGwOh26wK35/AQaKYOnzK3lp0SdQjm4DIOhjXXLjNV6FRaXBGdGNohwezeqd3veit+9cgYOKd8f5K873wP9sD5w1QJAQg7+AnCM7eXTMWFJcETw3ZRJN6tVRBECR4bLjU8W2Du7ZzROPj4GIeMa8PJ46DevikA2Tfp4YXQEIu7b/zuzZsygsLJldJAENMwFHPLfe+U86dmqtxJasOgnSZvKTlZ3O9l17iatUm9p16+Jwimy4n0hcpO7fyavjxvPTjmxen/02zZvWw6lnM5T1gc8YIJR14/O///+gBwwLqO/oRdVPdt0ldwpFyoZ2TLLbPlOjaOzwfX48brcGEAw7KxPOZsPuEL2ACj5AMi8CmpqhAAMNeGg3DnfGq5LXFosSLBJviFL5Cj8pfEddIiyrqCVKEEzTSxeSY4Xb+f/BkDr/iud74Fz0wNkCBMkacPjz2fLzCp57YRxNu/Tkrgfvo2blykpWT35v97s4uGcbCxd+zNcrf6Lf3fdzS7++miqqrhuhTL+e5ig1hKRyrvILyGZF5eFqmVeiIOxR1A6z8siogHlQsiT8OC0+du34jdcnTAZTFe5/aDTNm9VRnomsY0dYumA+U96exsAHX+KWu/pSNSFOAzHl8ACeBwjnYjT+Lz+jxK7e5xWWf/GRJzttEfoRydGT6NoV6RvlsgyqNEOPyxUKZyh3v0XUE+1K/6DcAMQw2qJBoMCBhMs0GVn1CmFG3mIxK/Ux+VNEuCyHmyDUP6KfICmSIs8s+uxWbaKXyOyoSHecP/d8D5zvgTPrgbMDCEIs9CqA8N7bk5kybS49+w2i3cUdiXBGYDULQAiAu4BPlnzE2o1buOzaG7h3+INUr1IVi/CWQs3WdTTVOhES+Q4VWFKn6WuRPyzkppLGlZH3q4J3+dlpvD9vHq+8MpmhDz7KxV07YLOYWfPDDyz8z3xiE6vzwuQZtGjfXKWCW7WixmUe5wFCmV10/oRy9YAqAaEJCHm9ksuvMcCVTLCEFkToJ7TdL9cdTz5Jf4aEF6S8c+h24j3Q5YjleeUBCIq74NcFirx6uKLEE7U5q93bAAcV3vUbIMTrx+v16ABB6xe5ZxGH4Qz75Pxl53vgfA9UuAfOHiB4sHjyeWXs08xbsIjIWKmXEqOnP2tZQ06Hg/iEKrTq0ImB9w2latUqyrtQkupZpJt6es9neIaevLAm9KVlQViDbn7ftI7XX3uF33fs1doSNJOdlUPTli0ZNHQUHbt2JjI6Ukufluv/TA5Chb/I+Qv+93vAMIYSw1c7ZY2YqCqHnYoUX5FekVoDwnVwe04KLwgIUQRIVeLvNDc12qjrNYjnoLSwiHLtGcRKm8g2n2FoRMkyi4fCq4CTJs2sNTBUYyEcPFWkP86fe74HzvfAGfXA2QIEqY4adBewcP581m/YoNY7gyytNchEpcRq9O57B01atsAu3KiQHPUZNTl0UUlukwIJSrTJza7tm3h3znvk5Lr00n5Whj/0OE2aNlHhiXDK4HkPwtl9h1J3sPq3/6PvXLH7lXB/n3LkVOyuZ392mS4rveEVpAiEGiYxOh0gaCmO+lQ0mVQIw2pkSJzq/oaXQ5EQvcpwSy6RIWakRzAUN8DwGggJ8YzDAPrzVKVGAQchkRCRTA6qZ9iduuqjvMqpOAxn/2X+vDv8ndscPk9ONWf+vJ4p5c5hjTD+Gf63Zlf+vKOsdSM0ocKb8LfouD+8T84OIMhnkrLg4jH1qsJqAvbV/Nb3EbKmBE0iT2ZSvKtQnZA//E0MOKJxGaQSqNKhkfwIkzAhLATNkollVtpx4cf/HYCgFhkJikjVOMmf1NGY2arKFP+Vh1Lpk4C0pLu5vZqDSGLpNr0S4J85oUt78bAFWeSPldqb9JdHSsTKAmPBJHF465lUHP8DevqUIEFi+1raIEGL+q5KWboCWTASEpCduPwJBwgyOQUgKOLgKb6HpmmgqTz6vB5VvdHk82D2S06iNEQTcgoKx8Bhw+KwYzHrno/yfuMS7y4TVaVjSnuF32BgAL3CoIQYhFSppUlqv1S3CH1XUVjTq4ZaLJiUfHSJxpS3bX/Ap1XVEH1+kPLrIXlrIxnarBbCoN7GULPOcftC64eUrpPqNrJrkrlqcD3OaXsMBGt8XAGkAYJecStphgNZ34zv/2cChGJjM7yMoL62qeVXH18Ge03qCHi9uvisGZNV8uslx/9PBjJ/xFgt4x5nCxCKdYFRk0Wtv/oA039mVOoskcD7p76hPFqtKPpDRd22SPm16NHlmQp/OQch5C4JSvlcwOPGf+AASfsPEde0ObH16mmpZH/JoZUBDubnkrNrH0mbthJpjyC2dj3i27TEkhCnqwOew8apTtJMTVBKsBbmky/9tXErdszYouJJbH0hEQ3rle1u/7ObHWprAHwu8o8mcfT3nUTEVaVWq1aYYyM1Jn95RqpSUZT0Ri2OH16TwqqyFxxFYKPE/ZSh9vsV2vf7PQT9Xny5aWTt2IHrSCoW7ARNNrxmCxHVqlOrfRvsVRJOzlIoq7/CF2FV1ElqKxSFQ8IBggIHSrOjMTHdAAAgAElEQVTBCL9oF4dUG/Nzyd+7h6w9BynMd+OsVoPqHdpir5xQtAid04U6SMDlImXbdrJ278UW9CtKlUXKjctq64gkpn4D4po1whobXfRJzxlOFUDgFS1u0rfvJHPfUUxeExHxCSS0ao6zTk0NYJVzrJX1qcv1e308aFLgPnDlk3PgIGk79uHNdVGlVm3iW7TAUjWxCND/me0r5u0RNOqFvGyy9x4mL9tHpfoNiaiZgMmmrS2+4ykcX78ZT3YuZquTyq1aE9mwPmaHrmXyZ7a1XB185if9EQDhzJ/+f+fKvwFAkFHrx+RzESzMp2DjZtIXfcqGNZtoP/YZ6lx3NRanUV/+HHdswEsgM4nsn35i69yP2b3yR6pEx1PlgibUvX0A1XvfgLVypbNj5p/JK6ndm59gzglyN2xg90dL2b78a+KlimFUHM0HDKTOXQOx1qgSKlh0Jo8562tUKkCAoK8A76F97Jm3kJ8XfUKty7rT/ZlnsNWuLJ6w8h0qlVJLb1ShAf1Q1RvtdmyyaJVwKWsiSgEFDnwer8pSENegzZ9P9vaNbJw2g2MrfiU6NhGv1UFWwETiRRfR4+kniW1Sv+KLtrEAi60K6M80YpOh2gsSvpCMC1sJ8Ritr8TaBvKyyFr9C4c++Ji0X7eQnppCZPMWdH7sSapefTmWSI1opI5ztkgH8aSm8sNbb7Nz0WLiTWAP+ol2ufDl5ONNqEmj2+/ggrtvJ7J+7aJveq4Agux2Za7+uppNcxeQ/OtmHL4g0dWq06Bvf+r164uzXq1z61kLAWQ/wdwTuLZuZteiZez65ge8aRnUbdaclvc8QMJ1V2OqEnsOAL3uolIeUTfBzOOcWLWCPUu/JM9SndaDBlOl64WYnH58qUkcWvAxO+d9hOdEltoYN+87kHp33YmjSX1M9rPMSCrfrP/TzjoPEMrXtX85QAhIlMZbgH//bo79tJrsBUvIX7UGX4OmdP1oIabWF4DlnK2CxXot6M6j4Jev2Pb8q2TsOErry6/GbPFxbNNakm1xXDbpLWIv7wy2MySwle8bnXSWqkzoc+HatZXd49/g+PrfaNG0JRa7icwdO8i0x9PsiWdI7HU1Svbqr+g+tTiKS9WFP+UAaR8uYv+U2fg8FmrcdT9NnnwE4iugqhgUz7YPT6GrWBql8APETa8KNBmHUXlRQgriOVDFo7TaAyZTAFtBOnm/fMPed+ZhSnJT/aKueOPiyRalxxZNaXbrjdhiozXAUREDZ+wYRYlRSImqsFPRtk2LAFmUYJTVZimhgyDtC0h5PlwbV/P75DfJXrubFq0uwufOJenYMexXd6fZiOFENajzlwAEf0YGB75ZQdaGzcQSwFGQi3PLFnJ/24m7cWuqD3+ASr27Y0qMKxpy52TsicHz4Fn9DbsnTyV7016qNW1JTKSDlO3byYxKoMnIh6nVuwfEOM/dfFAfXMIJbny/beLQ1Klk/LqVxAYXEOWwcGDLRqJadqXhgw8RdXFrTM5Th8jOcKkovp4JbU02F/k55O7aQeaqlaS/O4/UPQep238EDR8djbNlHYIFqWR9towfXphA7bia1Gp6ATkH95B6ooCGQ0dTrW8vLFXi/trNx1l2yHmAUL4O/IsBgqSaucjbtoljc97jyH+/JTY5jZo+B3ntu9B07nRoVOPcTeiS06kgl5TF7/P9yGe49Lqe1Bw2jKA5n6TZb/PjF79y/RvvUunGayCyArn35fsupz1Lpbv4XeTv3cnBD5dSPb4yCRd1wGQqJPW9ufz86Q+0f+ZV6g8eAOJ8OSeLdBHJTqvOrLt8TySR+9Vyjr3xDubfD2Bv2p6qIx4lon8viCr/gihhAjG6otYYfoirPlw9sYhroAEDpY4YRg4UV68l/SDZnywg9ZOvqdzyCmoMHAy1akJ0BMFoh+KXhLgRFek7PUPCCC2Eezq03b4JCYfY7HpWRDFWonAUfASPJ5H+3hwOzl1IbNMONLz9LkT8/MCGX8lPTKTprX2JqlWtqAsq0r6zHXtCfvL7QFJM3bkE9u7i2Iy5pH+/gcQeN1PtvruwNa2n8XNCLp6zfWh5rg+Ct4DMBbNJfuMdYis3ovo992FLiGDfe3PZs3EnTQfdT4M7+0Pl6HM8H/zgyqbgi8/Z8sI4atVpSp2hQzBFBjj+n/ls+2U7jR54lDq398ZcKcwzVJ7XruA5EjYIFGSS9tOPJC/9jIwV39Mw6SiFEbHE3/Mw1e4fjK1ODN7tG9jx0muk70mm6aChVL+8C3mrV7Fi3CSa33gPje+/F3ujaufWG1PBdy3r9PMAoawe0n7/lwOEgCuPXW+8wdEFi2jbpQPBpCRSNu6n0a3DiHrsHqgZf+4mdGgHKv8IEvAWkLr+F7b8ZxldbuxDXKtW+A/v4Mibk/lpxVp6TZtP/LWXg/PcehC0Zoo7WmfyC3EsPxvftk0kTZ/J7t+P0nrM81Trfa0yLuccICi2nR9yT1Dw40rSZs/FtGUb/hwX5m5XUf/xZ6BTS61t5TzEAyC1HoRHELI9IYOrqScKiBCjrEIKei2FYrc3aQIn5qO7OTF7Gie+/AFnq0vwtmxLRO061GrXDmuzhiA7OaPTyt9E5XEQqWaDSFlMMEraqsBMGCmxGEDwgb+QwN4d7B83hYzlK6nVqRu5rdvhaNyAmu3a4rygEUQ4ijgIFWlbOfu5DGSqESj9XoIZR0lbspQDH3xKTO2mNBwyBGfnNhBxbsGyNlODmDy5pM+fx5EZ86jW5mJq3v5PAoFC9rw/h+S9R2kyeCi1e/eE+IhzOB/EheCDtCSyP/qYtW9Mp3HPvjS4fxh4Mjn+/hy2LF1F43tHUf/u/pgToyvmsarQN9UKBhce2svaiZNxJmfQICYG9/o1BCJrUuWeB4i88SqwZ5P/+TK++9dEml/Zh/rD78dSO470FctZOfYlWl49kAuGD8HWtIbmOf0/epwHCOX7cH8tQBBXsNdF0hdf4MxKI7FTC7I/+y/b5n5D+4f/TUTfqyBWFsTyvcwfdlaIOWkwtrUdcfBYErlLl/D79Jl4azWh02sTiGjbTIujn+s26i8blNhrdgY5m9aQ/OlX8ONGKl/di0p334ntgjrnIK4Z1ushUpYfCnIo2LSe/XPn4tl7iKZ1anFw/e/YulxB02efg7pVy80/UCFTI71R8Qi0Q/EPxF1vtyuugWGci3kNitAEZksQq9mLb/tWjowbT8pnK/HEVCIt6Cc2Lo42fQdQa/BgzPVqQjgxthzfVhNe0us4lMiykCYoISchJYrmQeh+4awxH8HCDDxrfiJp4ttkfLUaf1QsB2wm7ImVaXtLP+rd+U+sDeuqnVs4YfoPG/flupHUnc3DtXk12ya9ReHhXFreN4JKva6FhKhzz8dRCCEA3jy8a1ZxZOpMvBkunG07EszJImvHdqI6dqX23XcT0bKJnn1Urhc9u5NC/AMBCEc5segj1r/xDk169Kb+oLsJJO3j+Luz2bN6Gw1HjaHWoNswV475EwGCACk/7pRkjq36noSqVYlx2Nj36muYrZWpNWwEzm6t8aXuIGXSRA4uX0vje0dTdcgAzE4PJ5YvYdW/xnHB1QNpOnwY9mY1KwTwz64z//irzwOE8vXpXwwQNMMaCPgwB/IIpOzj95fGsePL7dz6/mIsnWRCn8MdsNFnhqEzCftYKd0QSE8h59sV7Jv1Aa4TLto/NoaI666AeN1lWQ4jUr5PUo6zQgAGgj4Pvv2/c3DaG/w+71Pa1G5BvaeewnJzD4L2Mmrel+NRFTpFtUvSuApx7fydPXPeJ3nzVppdcSlxTge7F35GwhU9afzs4wTjnCdl7J3qWWJ8RaFRBJKUQmMJgCBpjhrPwB8KJ4QqMIrgkUifqvoJZqxBD3nr13HkzRmYjqRSs+sl+NzZpP/0Hdk4afn480T1uAJiIoqaU9a3VaRETUXSkJoO9x4IT0IpMdptWmpb6CgOEAJZyRR8uYzkybMIHsmlRrcroHIcB9atJtdip81jY4i+5h+YYiIxqlSW1bQKfb+yTlbN9RE8kUzy+/NIen8xVTpcTu0HRmBr2biIK3TOGmVMVB+4s8n79SeSZrzHiV824fF4sRW4iKrbiDpPjKFS7+sh0n5ucbziBPowFWSR+9VXbHttEvaoWCI6dsSRfAS++5Hj2T7qjX2B6gZA+BP7TtFhxLNnEi6Ch+DmLawcOpJazbvQ6IlHsV1QHffOtWx9aAwxWZWoO2IkzpsuxVR4lKwP57FqylxaDXiIBkMHY6mT8Jdxw8oapuX5/XmAUJ5e+stDDBoPzC+iMYF8/L+vYe3zL5B91Mw18z7A0qymSk8/p0fYmh0w+TAL2/dEGjkrV7Jt1nvkp7n4x6BRWG+9FmpIyplhrc5pK1WIXz066CWQdpCCFZ+QtfC/pG44QOPRY4i9d+C5daeq1xcmoRv3kb0cfP8/JP13JY0v6UadS7qS/c0qUldvpcrNA4kfMgAqa7vN8sggSOhAtAQ8EvsOCGjTDqPkstxE6QxIp+iZDJqqWZiksQgeiXH2uHHt30f+xt+JjIghsktbAqkHSZ8+mWM//EZi/+HUGn6XMsyhtfpUi7Zhn6QIk64eKUAlHBwoNUbdexCq/HgqgHDiCDmfLODQlLnYImtzwSOPYK2TyNGZb5O2ejN17x1BfP9bMFevrPXduR1yGq/El4/n943smvg2+buTaXrfMOJ794JK0apErfZhzlXD9MwPfyGFu35n35szcP2wnnrt2hJ/QQPy1m8hL9NN/F33EC0ExYSoco23P6r12vCQDYYH3749pMyYxbYvviIjJ5faLjf18vLx1G5BlTHPEN/nWkxxfzIHQU3RoCoNbHJn4vlpNaseGUvDS66n4aMPYq0dTd7671k1/AnqVWlN05EjcVzRluChLSSNf429q3fSdMQYqt3WB3NizDn8zn/UFym6z3mAUL4+NaaySIrIYZR7jokwhyJMpmDJ6jvlu3fZZ4Vc0pqL0LX8IzZPmEz1VtdS95knMddJ1JWry77VH3JG+IZO6QwUwolkclesYu/MDyg4lkuHISOJ6HMj1EkollV37hZFUcWS/pJdkw8pC2ay+SE7iZyPlvHbS9NpeOsgao56AOpWObcu32BApV6mfbWcjS+OJ9rto9Zl3cDuwLJpK54sF8Grryeh/60kdL4QU3nEnCS84A8ocCC7cxmnxezP/2PvKuCjurL3NxoPSZCQAMGDheBetFiLVGgpFIq10JZS6quV3f233barla0XdwnS4lDc3R1CQoi7jc//d859b+YlmSSTQIJ03v7SdpMn954r57tHvkMbngQWlHOAwQPXodcxgRIBEZ7GNpMIsmOiGsqisMJ25RTSvvscN3YeR8ioF9Hk5SlArcDyCWGKUUuTBcPBlii1ib5NbpCS4EACVI5GW2DNjEfmquVI/GoxAuq1RaP3fw8Eq5H6xWdI23UEtSbNYNndNYBA/vTsJCQtW4prP6xASKO2aDz9Jag7tAS8RCErBgnVBuolH78hE7GLFuH6F3NQv3ZDNJo5FboOTXFzzjzErdiEBkOeQr0XJkPdpG61n3o5M8VcyNkp+WdOIevwMegzMuF9+iLid+1DSN8RCH3tNag7twS8qyN+Q8jMnhGPjCUrcGH2WjR5bCxCXyAXhxrZB37F5hnvokXDDmgx4xV4dW4O86Hd2PXmn9CgeRc0mvkqdN3bA75e1bfl3ZHNvehLPAChYkKVLZbVDxB4dyf/aw4yvv4Sp7+bhx7vfgKvkcNgD/J2yQBVsa5V4G4lQLCbYS9IQ8GeX3Hp718h//hFPPT8G8CYp2BvFA4EekPFhCGSuqqWU5MI/rMb8pF96SKu7T2MsHrhCGvfGva8bGSuWoOzs5ai2bgXEfbKNNhDpVNwtbSNDktWWFNuIXn1clyYuxj2lAzYibMgNxeB+QWw+wYirVU7NJ/6EiLHjmSlUt4l3AtWBghWKxOXFtmYlK4E2apASkpJlex4wGZBYdot3Dx4CNb0AjRp1Qb6mr4oOH4I17+fBYNZh1a/ew8+fbsDfm5sgHJQokTe5KqKJWVYUNVG17upcsJZYc9LQeHOXxH/5WJoNMFo+vqLsOqNuPrNV8hNSEerN/8E34f7souhyFVt42uEPe48zn3xP9zYchwtR45H/XFPwxoeRASezhiLipbbLm8SlPp3kp8JyE/F2W9/QNysFWjVrgcajh8N1NTjxvwFuLX9ECJGjkXY8xOhaRxWvQCBbfoWZF+7iPh9+xGi1aJOk0ZQ5eYhcclqJO06ikbjn0etic8A4bVEVkCVj6WQGQVbn/v0vzDG2xA5fjICB3cFAs0oOLoXe1//AGE+oWg28Tnom4chYdUqXFy5Ea2fnYq6k8dC1YAyGCRGxUqP3d190AMQKib/uwcQ+CBFp6cUnH37D7i2dR9GLFoCddcOUOm55lQ1LBqFsKTgIru1AHkXj+PSx3/HrUUb0NQvCHhiFAqbNYHNLwBN+/dDSFRLgAhDWDNVTOCVu5usGhbY8zIQv2k91v/5Y4TXCELj/n1gMxTCfvIcTHY9ol55A37DBor0y2prGwEEG6y5mcg7exIFly7Dp9AC74xM5Ozfh4Tjp1CrY08EPDkaXj06w7tZhKDBLee0yemNRFdsEhUXS1gQZEGSxUAy5xM4oJgDPs3KD7D7wYysy6dw6Isvkbz9MNq0aw9deB2YY2/AeiMZtfsORKOZ04GIum6NJzM0Up0FiS1RTo2U6yyIAEpdSXpkx+BL/hD+/1bAlAvzuTO48uVPSDp8CiHdu8FmN6PwzEUEtopGy9dfhbYV+fpLCs0Zk6CYiHd6ThrzkLfvV5z4/CvkplkR/cJM1BzSDxZfLdQqu0RYRafgO/3h0laL04IQv3wlbnw9F94mwLt9W9i1NpjPXoRWH4gGk19A0LAhUAVLQZSVW3yVeIrmnAk3d23D7k/+jYDUTERQ2/ILkXHqHCLa9EDEyy9C27UtVL4SGVwVik7AUTtUNiMKzhzCL6/+DrXDotF55psI6NAc8DbCGnsBNz//Bqm7jsOrWSTgr0fi/kNo1KQDGs6YAa/eHRk8V+u+UgnJl/eIByCUJ6Gif7/LAMEGw8047H/3A5iTsjDw+2+hahhWfftMCXxAKY55SNi2Acf+8AHCDRRqBCRAhQyoUBgUjJHvvocmg/oDSitCxWReqbspEplYJy3x15G4ZCXOrFiL5Nw82LU6NG7cHF3GjYdfn95AWB0qFn4XABalX5pFZLnFCltcPJJXxCD24FFEjR6LgOHDAPkELOvHMjZFmSaZAALzCiiIhxzYQE2FSJxWgxK+cPn9lAeek4rCvbsRu3A5Lhw7hXwbUDO0Hro8/AhqDhwEDWWlyBtgWSMkMTvKKY3Fb2X6Z71eBCW6temTMMywZaUjY+OvOD1nEa5cuwpfvxro2KEHIp8cBXWPdrBRgKKiUJXY8qX9mmMuqGIb/SiAtVvfL386EsNj3NoYXFi0DEERLdBi3ER4tW4OK5cTEPUwtEWyNMp/5+3fYWVOEMv1q0hdvByXN2zBrfQMWFRqtIpsh1bDRsJncD8gIqxYgOjtf7n8NwhQakm6iYzVa3F+2WqkJCSBSKoju/dC5Ljn4Netc5XHHsjtFEnRNqhMBmQfO4CNn/wXDdv2QLvJk+HbMBRQEx10NsyHD+PEVz8g/uwFFJpsaN65G491QPeuUBPIqgA9evkyujt3eABCxeR+VwECnbgMSclIOXoc3lY16gzoDVVgMTNqxfpT6bvlzdZuMSD74jkUHDyCILUeKpuKFzb95Hp7o1afnvCuV1cA6eo6MTks0lz3GOZb8cjadxCa/EJYdHroIyIQ1K4dEBgoneJEoN5du4ikKCsTBRcuwJCTh5CotlCH0UZUjF+5nCbKVgQ6rTuCEaVOycDAUVbalXlb+X5Kh8zJgvHsKRivXofdqoKqZigC2rWDum5dqNxhxZRcC2YzxUUUrQtBzeK4A2WdBbeHgMCVBZasTOSeOovCq/Hw9qsB3yZNoWvcEDZvPSwEcooBBAdQkiwoZD3hHy7veoeAAlly8nOQfuo4cq/FIqBeY/hFtgACKDhRpJvSj6raWU85zJnrMJivX4XhzDlYM7NhVeng1bAZfNu0gSokiF0Lbg/DnVowDIAJ1FphvBmHgmOngLRcWKGDT/so+LRqDrVP9fEycBIDc0YYkB8Xi/Szl+Ab2gDBrVtCE+AL2uGY5yI7C4Yzp2GIvQmDwQbvqDbwb9saGh+6R0ajd0pId+c9HoBQMbnfHYAgHX/o4zTxJOp+h9lZ/n3FunJ7d3MbuG63MOfzgrA6yuyJl3OBHSrnKdjxqm3jKRJEyVRO7PcXhEmUzkc59sXS6O4mQODxpbbJQpXs/cX64Y4A5cqIDBIkBckZAlotxxtwhkJpfS0CEOSxtDDIEoNNbgCZW6D80aTvm01yVUhnVgV1l1MaJbbECsWnOGQi5EVWAipOZacf4lcgEij6ffnNk6YopXVqSwIFN59XriIC8JSlYTUZmeKbdIhFpWWwTGPABFAUiEnrotoCFIu0UGQLMFAQ2SwqrrtL7g7N3QkmVsxxqrrKFMfEQknh4CqtqC4peVBvb8eqwNOS+5TmkQADtHdpuNy5vNfy9KC2UjokMWdyWznZm8e6EtOnAg2svls9AKFisr57AEFqJ1exk0+FdyXJW3xcqFoBpN26qnPFKNtEUflO4zLr4JJNucsWBN5snI22Swq8iGwrIj9mSrQ5TexkUuc4hjLM+K7er9y8HeEj0i/LAVTCmiGCJsmaIb9eYEUBWASVsmQlKat/JeaYAC9yWWqzBA5E5U6XA1xyikpZHfQHkovgf9BAK8VkcPXMilycRWKFhTgoLFRbwgYbgWOo+X9a4paolLWkIo1w/155H6E5JnqqsKAoQz7cf2Xl73S1hzj8QdJrKzgclW5MkTlPQNOx0xUN/C3ePl7D1dzWSnfS/QeVAMEGDc/p6hoK91t579x51wGCyM8VAlHdRYDg2ENcbd7yhqMct+qeVcU3Ofn/F1vE/Ovq3hBdzWdFu0rItjKycxe4SbqhRJOKy8txgxtgSlKWIuWSrA/Oi7pC4IAKMTFbYmnfVz6k7AunTErWAipLTVTR3FaxcSkBtPwKAiSuMpCLUzyzG4ZAAlkUKPrcXauSBFYo/oNiLWRrkMB84p3sSuEsjWoOJr539s6yW1J8vt4tgKBU9GKTlQ5DDhjl7Edpa6wy6/UeHSeCR4VmOwqMNorqgr28aOl7tB/V1SwxJezQ2m3QqwA/H0018CBUV+883/FIoDISKLZRkmuBykabWFk67TekwZkMSaeHlhSwu6d0+f2OIk+CiZHJlkqJbWEzr2Q5IcWv3PfZFWATFhZR6lp8gJ9RsDnyc25s9iJLQ1SlVMY90HvpHQQOmB3S3f5WZgw8z9xZCTyA1oDKCIjEUGCyw2CyCw8yu1HcWBSV+dgD84xNAAQ1xXFrOStXcse7CB1/YDrt6YhHAqVIQGmWJWXJ6ZaC7pkuqVSWxJSok4iCKrDJSO8XLgWrAAcyI6Sk2NmfrnClcLyFlLVRJACRXcd2Ud6aKKcl2ukilM8MYoSFg2M2yrqkLA2z0cjvK35x3IFeXwoBlGdGeSRwb0uAlh6Bg0KTlQECxW7JbIGi5Urn4b3dl6poHYmkpCHJAxCqQtaed96vEnCc8AU4kGtByKd2Vt7SSVpfmZO0ZMIndwWBgyKndHmLorgGdhHIwZilkS5JQibLgQwUitWnoD1PrRZuAUpHLPXkL9WWcLoWJAOjdE6QwQG7FjzWg/t1dv+m2y0Agg0Gk1Vy5akdgF/GBmK6VwDwP2ASLRkQbYeaLQgqYUGQw6yqjGr5AROopzsPmAQkGM1ZC0YjEzbJl1zrgU7jrHA5s6Vi/bdb7QwMqM4EBzwWjw2Qgx6lbIQKmfKJgZKCCyl+QFkfQso60HPZaddtFrUvhLWEmTAV7g6uoCm7FjxxBxUbcM/d94wEaGmbzHaYKCuKUzgonqfoqVnhRLxn2l2tDZH2I9maQNsbwSidWgUfvQYa6XBQdbUYqrW3no95JFBBCZRxwqc3kYLVeVHcgbKEs3vfkCmki5vwZZAgAgu1kjuAAgvde6/yLgIgVgsFGFpglWIT6O+ieJSO0zFLBBdSCiNZS5iYitLyhIuDQYIcx8AuCjeyNCreZM8THglUiwRY6RGXm0XAAMqwYo6Iavn6/fERwk2KMCnOyiWAoFGpGRw4qgx4LAj3x4B6WnlnJVBakB6DA1KWfJKmQlAV21YEr4CNLQcUBKi0SsjxBqLIlCA8qvSuxaU7bGylIKUvxxLIit6RjqloPqWRylkagk9AZqtWMVjhZ4jo6rftor2zE83ztrsmAQon4iwhF/O5+Kqu2Cq/a1267Q8rQYEyDkGOWiohFw9AuG2Ze15wv0lADtIzGQX3giJOV+Y7IDN9mRwMpfSZ3kf+fQIIZNeUF5xcw4EsEgQQmKaZj+6VFJ5kGyRgwPUiJFeDDELI+kFKnwGOFHcgXB4KMirp8xTUyFkaTKWsaFBl21bJLnke80jgjkhAqQVp+ruYx7/1qV08NaFUHjoPQLgjU9LzkntdAgq4LKc0ksJ0WaWR8/8l10IFdhImWjJbYDLLREtOghaZlZBSBx0m/NsFCFJ2Ayt+RQaGHEtA8QQU2yDaJcVDSFkanCrJLgkCB8IlIadW3hZwudfngad9D74EXHE9VGAdP/gCcr+HnhgE92XlufN+loCcdmi3c3AfB+kVg9GO/H/lSdrNjUUJDrgyJXMzCYAgl6h2UBYr3+nm+0uIXnFKklM0lYGWZKnQe3ux0qc0S7kqJb3HEZgkUylLoKWC3pT7eTZ42u6RgEcCbkjAAxDcEJLnlgdAAhyUSHTORZWl3DO5zgKb/ytYBEnUkrCy5YD+LQKiBDiQy1TLcQclIhJvFyCQwme3hondGjLooWBFrjipVjviFBN9wpIAACAASURBVEqwMDq4EyrAwPgATAVPFzwS8EjAPQl4AIJ7cvLcdb9LgGpfcSEmk0hpLB53wNH/emFmlwGCO8pb5hWQTPishKXTPUUZCBZGiaK5RKrjbQhVaUYlqwi5Nsgqoih2xZkMAAOEEtYSjYbdCkys5OE7uI2B8DzqkcCDKwEPQHhwx9bTM1kCUglnMsUXJy2iW0RqoOAOcFgP3AEHXK9KWA8oMJEzCWTgIVEWc1Bi8bgD+qib7y9zEBUggd0MRpMzm0GibaZbivMwcDyElApZLuuiZxZ5JOCRwG9WAh6A8Jsd+t9Ox0VKY1EqZYdrQUUpjTo+5TNzYAUVd2lZC5wNIZ/S5YJHdwoYuBg6KtlMbJAEFMq6nFUpiUr5rtRv/u1MPE9PPRK4zyXgAQj3+QB6ml++BOQAQg5MlEzwrKsrWsK5+KekdEmjyciKWY47oNucMQ1Ee6xQxBUEIOX3TtxBAIEsCMpARVfPsrWEUiArQQDlbls893kk4JHAgyEBD0B4MMbR04syJCDIiyRqYtkNQGZ2SVlWlrCIaYupAqQEPOSsBWoKBwl6eYmCR/JVReCAXm8nciYpUNGVKMjVQAGTRaiUGSV5po5HAh4JeCTgWgIegOCZGQ++BCTWQa5fYLUwORIpcyJDqvRJmqwHlBFhNMFsIVIkoYBlywQFANJJ3cHEWMWKWGQyEPVyyYBEubYEESHp9V7Oao9V3KYHf2J5euiRwIMtAQ9AeLDH19M7WQIEEsiSYLMJ9kQAurKqHpYjOTmugawHyiBAR+yBnuiUK17HobIDJmiXLSLVUeFGcZSU1opATGqTh++gslL2POeRwG9LAh6A8Nsab09vJaDAJ/3bSO/jao2SSZ9Ah7IQk5zWWBmq5soOkNKCoCwtzdTLUpaGRqeR2Bk8roXKytnznEcCvyUJeADCb2m0PX29YxIgK4SF3AuKgkz0cpmgSF0JqubKNo4JoBRsibLVQIAgJ5UyAyKPW6GyYvY855HAb04CHoDwmxtyT4fvhARcpRXK7gUdBSfebjEmNxvJrg6KrSAeBqlgEwMDiQdByfHgKN/o5rs9t3kk4JHAb1sCHoDw2x5/T+8rKQEGCAajg5hIVsocnCgVSeJXV+WJXQ6UpJLPZMmw2R2ujurmYaikGD2PeSTgkcA9LAEPQLiHB8fTtHtXAjJAIN4BOf7AUUWRSJcqQtdcmW46SjiL6pEUg8CFoaQIRNlyoFGSNFU1YKlMPzzPeCTgkcA9KwEPQLhnh8bTsHtZAq4AAleDlEonVzVAYPIni6i/IFePVKZZluA7uJPgQFkHoiotJPfyBPC0zSOB34AEPADhNzDIni7eeQmUCRD0kgXhTiplRRecVSnNsFiI90BRWlqieObaEneapElRYrqIRGWQ4AELd36ied7okcBdlIAHINxF4Xs+ff9KQAQpEsWy1dEJ2cVAtR2qiiBJgAPiPDCLDAq7M+6AGiJXj1QTx4OybHVlRM2FKUV1SkqdpG+LUpVOJMD/RckRFBSpVt/+NyvTTs8zHgl4JFAlEvAAhCoRq+elD7oEbERtbDQWqX3AVRJ1WilIUaq/cCdP1VJVSnItMCGS1eoEIkXqP+icHA+V+b7EFcFgxGZlQCIAgiCYchhGCBTIAy3xLVD2Brla5CyKKg3SfNAnmad/HgncZQl4AMJdHgDP5+9PCTAxkcSDoOQdIKZCvdK8XxkFXYpIOKWR+A7MztLSDus+gROtApxwxKKbslXEFNjsEtOkBAoovkHJzOjqjbJdgf5G4IACI8mSoVFroGbuBakh7rbHzWZ7bvNIwCOBqpWAByBUrXw9b39AJcBMimTmp0JNFAQgXRyoKFMa30liIrYeWJlOmSwIDrZEu11Sylq2Xmg0Er1zecpYGWjI/y1oqAmAWAgU0I/dXqRvDreJizFlkED3S7iEAQKVu9ZqhUWBKloWb1N5bXxA546nWx4J3C8S8ACE+2WkPO28tyQgKWxXJZblkzwHCd4JJSi7FojvgMiQpFoLMjDh73l5sUJ2mwypCEAgcGCHVXq/kqpZ/kZZ4KD4wCifkYECWVZKVM28E7K5t2aFpzUeCTxQEvAAhAdqOD2dqTYJkJ+eTf4WtiJYSWmLdAL2vwvCJB2fnm8XJHBKI1srihZior5yYCSlVsrkTO4qXQkgyBkRBDyKuxOUir5oXIEz9kAYH4SlgeMUFNYUeSxYHlqycOiKggR321ptg+r5kEcCHgkoJeABCJ754JFAZSQgKVhSimajmUs+i7LKItCfFCoHLJJSvB2QIFkqmO/AbCnWUlK8Gi4rXeJ0XlafFOmK5LYggMOWCUm5K60FVL+B3i3HFHCmglPzc2fpMbtduCcIZMgBjUU2Gg9IqMws8zzjkcBdlUBJgCCfLFTE3CrY2XjXKxK+XE1tVppBXX1S2oxdtsZzOqmmQbrNz5Q3xkW0zG1+6049rlwLdrIi2BggWKwWqVqiSA1kkEAnZ61G+ODlteR2O8TJ3EJxAWazULzSO5hKmYmZtBwU6FYN5xJuBZEuKddwEABHBBWKKpBqBgbUD7WK4ghcLSrF7yQrAteGkIACCYLvkLgahCVBK8lD8axnvbo9K+6tG2l8xXzxXA+eBIoABMf+YQOSczOw48R+eBHpi7zt0SQoYUKsyA5fEQGWU3lOCqyqyBur+t6KLhJ3lpQ70pXfUyLuTNlhF/KqGOajTUDxQjlHvpJCZSO1OwKo5Ptv+zF3++cw1dMJWvASqAkc0KrhiD0VR/Jz8SYV/Tj7LSt70VanIuXHeJ3ZqbyC41ROd9kYr6sIfYhTPb9XJQGH0meLbB1wtEuqAEkWBP6WNBY2OhgQECBQIIEDTlmUBCq+oJg5UmBikanGvAki0FFF9SGob6I7ouk6HVQaDehb3B1mWyiediECHqvqch0v6fyt49vVPUcFtlTIuGwJ8BnJhXIutlTvvBjtgIbmudWGDi3aoW6tUAas98RVbOLctbG8J4RR8UYo504JC4LsU9x/5SQm/HsavIPrAEYroKIfldPHSPucQ+lUxVJWpEe56CNvKTY77I520EKRNqGKy+TOPKFcIGUBGGX+uBtfLku6xfevEvcqAF15W27pe6G8kxc9LToVhRudKHKLi/dV9BVVfb+wm7v+SglBiVMUrKQI7dBBBYLVBBTEBi6F9kunc6dBTgG6HJ8i7Sr8+vQu1qv035IiIFomixqgf/MaUKthV6vY2ifGQ9nmkmqC2qmBGjoboOH2CjDDzVepYFLZQY4Mu0qsLYFHiq3F4uCpuJykdUh9ICWis6uhJQkx8hEAxKQGLNRRajc/z9DFAVSKztWq0dLCsiGDIxffUBhOy1fTkhDdmpfKcZK/q4Bgir1DJqoq/tqqIuJyq/l8kw56tR5++VZ8MOUP6N22G7x0evcfr8o7CVQzhwfFxAjwrARRLN6qmVJV2asqfTetTZIUnQ20Wqcb0QkQFPsKTcqdF3ZjwJ8fQa9ej6NdvZZQ281is3Al2dI20tvtUhlmK3HqkUZZ2rCoW7SpOXypbuPw222otJGWkE1pqr26Z2cxpVGZz7vqSmXeI4u62PtcvaoqYKf7I120RUXOlkUUh/M0rSIlJylzNR39beSiI6ZDSW3L60Qxr0vrN89vJWjguS3mt1UCBUKxyutAnNRlnVfaBmgj0GGzQ2tXQet4XAAAAhpWlRo23i2U3y9NaiUhp+iPhAQEuoDaruKTJmMYqcMWgjcqIRuh7GQ0In1LRieOT5c/2RQqttRhdtwjf44aJY2HUhnzn53/cGPaKPpQ7t2ugFyx/rmxp7pcH+WLqdzWlXcDNc2sVuN87DXcPHsO/5jxEYZ07AsfnVd5j1bL32lITcR0arHCZldBKmPm+LYADNXSlPvmI6Q7SVI6FeDtpYWjWr1d1qZKgKCyY8/5fej31mD8c8aXmP7oJNCGJ5aAQrJuTOLbklApg0gbXHZWNo6fOI6otm3F6YpMu7Kp9W5pFqm9hYWFuHr1Glq0iGTSHEc+OR+QypiZlcETxZ8p4/W0EVPbEhJuoVatmggKCpJy16UTcFmDVdUAQQUmAEpNSeWTcYP6DURmwF25SgqRTiNpaSlMr9wgIsKl+Zvky5kNxCdgtbDLgVISaczFoVByI0gnZZfDLQcKynpScfrhuACViGvQyFTK0n0pKSkwGo0IqxvGgZESSXJR6VE8A2VDKHgUlD1l3gI500B6Uuk2U2YoiN+XBhAUn1WpkJKcjKzsbAQHBcPXx5efo7UqvifxJJSSn+mUUdk7ulI9F1e/cmvke8TfxVjkFxQgJSUZwcEhCAqq4TAa8b1uKxG3b1QIxgksXU1xmjM0TtevXUPt2rVRIyiozOOHQ06VaUoF1xhFwmgD/PDTz4uwbNUC/GXmuxjcpR+87xELAgEEg8UGo9kKC1sQJOtUkTVVwU4/4LerGb3b4KVSwcdbC51GdNhlFgMtnj3njqDfW73xvzdm4aXBz7oWT1Ur4lImO23WV69cxaeffoZXXpnOQVS8Ebu/oqtguJ3m0bS0NCxfthzjnxuPGjVqlJr+VQWNKPWVrFzUalbA23dsR/t27dG8eXNBuCOd4lylqFVXG6l9uTm5OHrsGCvXIYOHcODfvXBR2yjF8Oixo8jMyMTQR4Y65prLtD5qtI3oiZ0R/U5iI9EjhRXZ0cUiZ1DHqVbh8VdJLIXMKaAuAlIO7D+A9IwM9OvXD/7+/lJ2gRL122FTkCyJvzhdHPxtKa5BZF2I+ayMFVGeB5RLrbiqk99NzxP/wfFjx3AzLg5RbaJQt25dB48D+aw1Wh3HUSiXuvKE5+4Ww+2XbmYroouJU/wetVqDW7duYf/+/WjdpjVatmzpAPMceHcXLdE0BgWFhYhZuRIdO3ZEixYtyrSKyzJzV163s67oG3UbN8KCjSuweOVc/PX19zGoa997DCDYYTTbYWGPnbC+Ka+7dfS4HblX5bMaTkiwQa8G/Ly10MpM8Q4LQhFsqwAIr8/GS0PGOv2xrnaGslqunLHFdwGxR5V+lQMQ/u//PsQbb7wuAEJVWzMqMDqpqalYvGgxJk2ahODgYFhtzoI+FXjNHb+VNkQ6aW7ZshmdOnVCyxYtOQBOBggV/WBpQ1vR9/A0UKmQk52DQ4cPsTIePmIEVyq8Vy5qE7UtPS0dI0eOLN+HKc1HAttF6hgoCiDJkf0yYhCHclGMydV8ZgpjCvArkTapwq5dO5Geno4hQ4bC39/P6WaT2mGlAk8mM7MxirN/sbJLvNZENLqc2qhl4iUBFFwBmuJquKiCFs+RReLokSOIvxGHdtHRCJMAguwhpP7Qd4pYKmQAVYHTsPxtBl+lPFfkHqmwVcKtBOzYvgPR7aIRFRXlYKiswKerZIqSpYgAwrJlS9G5c2e0atmq3ANQ2WbzO7dayYIQ3rgxFmxagUUxc/GX197H4C73EECwAwazHUaTHWZSey4Ojh6AUHTaqskCDyt0ahUCvIkmXfy9DAvCYWFBeG02Xhr6rIMEpsKr4XYAQikfow33yuUr+OSTT/HqqzPKXTgVbvNtPkAAYdnSZWxBILOqCCAr+yIxVfWmREAqOTkF27ZtRccOHdGqVSsHQCivfcX/Lptp5d+L05bcA/FvpQG6vL6xBSE3F4cOHuKc/EcefUS07Q5cd0K2JqMJh48cZgvCsOHD3Jpzcv+VJ2wRWiD8+0ImUlqh5H6wWakQE7ElOg3lJFcugkSWA0qZdLHh7dmzBxkZGRj48ED4yQBB/ganSpLLg7gOxMi4OmLLPA5kfKfMC3ZlaLXgyCXpcval+FnVdSo0uRGOHTuGhJsJiI6KQmidUFH0iWIhVIBOIlBi94xirPm/y5k0JbaWsq324u2Kh2g93Eq8hZ07dyK6bTRbEdw9aDhHx9lo5ex3IZ0iM7m8v7M7sKAQMati0KFDBwbz5VpIy5SXkwa7XMGWs+assKFeo8ZYuDmGAcIH5GLoeg+5GCSAYDBRwK0HILizhdLU0dit0KtU8PdVQyPNpaoHCMUWpWPRu7OY3QAIM2e+6k7/y9HOkjFRzsUqi/TByYVT6jojM/7SpUvx3ITnKgQQeE+U3u9MAVNsauVp2XIkoVKRiyEFW7duZbNlq9YSQKiEBMUG6QQ+bJK1O3P9aTuiILSiAKL0D8kA4eDBQ6zIKgMQBBAoqqi4HXISgcvPK7ZqOd3AMQ+cWooBwuHDyMjMxHC3AIL8ZedJ3ZHOZydZiYBDcYn0YQIH1HdyTTiP7KSsRU0DFfMpuJ4Ee/fuZQvCww8/zC4GAhh8p8RNwPUbCHApsAH9XSZxklkQlcuSXQ4SRbJ8n9PyIMdTiCekZEa5N45lTs8dO3oMiQkJiG7bFqF16oCsGfwMR0wLMilnqmZJhevqZFxcwbqBJ0qMPgOEW5UFCEpAI1pTFB6Xnk8iN6SsMz3NY4oXiomJQYeOHdj9US5AKGMdKy1GJWaQM8tVTLvS9hlpIRUBCKvm4P1X38UQBgj3SJAiAIMJKGSAIFwMxfvkav5UYht8IB6Rh5viELwB+BFAcNuCwC6GUmIQ3BVPRUejHEXotCB8gpkzZ7rbChf3SQ2za6RAFoqqplOrTQRxK6OrJcOsrMCVG6JTC4plSBaEJYuXYMLECRUCCBS5TqlxtFlyKyQfMJl/ZJE4F7BiK5cUm/ibaENxEXIQpxSDcCcAguskdWcedHGAIO87pQ0tuxhycnD40OFKWRCKbIC84YnoZaFcnDIp+n359zzYdG6GDTQX6AXCFC/vLBUGCPLUkgSlUlFgHkEqynSgCCB6u5Ti51Di5AKwKKwLdJsGaq0OWi25FhQ7ebHZLAME2YLABAoSQCBwQEWe5Ag82YJBvn8GHpS9QORGFhsoy0GCy+J5pm+QCJOYkEmZ615ilhVRlPy4miwIR5GUcIsBQp3atZ0AgU4txAQpuU2UQMC5ziRF69JAIaOd8hWAq3lH64ECdsk9I1sQhMjc2LAcuatyeqmE84qFIcvgtKKblCuAcDuu1KJAWRKmYlNRysfRe8UvZaxPe5IMEBZvjsHCVXPw3sx3MaRLv3sni4EAghkoMEoWhMqgx4oO2H18P61oGnMCCATxyIIgZ+yXb0F4fY6IQajo5ZhlIt3LrhKBhEzA4jgFiQ2aza4csS7bNUTUKTdSeaSR9noy2V++dBmffvrpbQAEygEXkZt2uwZWu5bPwxq1DRqVmRJpxalIpZUOc9Q25+ZJGz1Hx1KuN8MtacNX2TgQsGIWBDkfXQAEioI3qzSwkHKgqHVWW6SwhKw4Vc2R3ia1A6JinjgvS+l1Ci1+5wGCiA2WtBCJS8hLAjgsD7WSYU1uk+uJdGcAAsmPRoZS6tijBhsxAPLuZpHc6bIjRAIHLFCRDmVX6fhHpaaZIAEEUpjED2Ay4/DhQ8jIcNOCIIM6Kc+eoAHXKwCZ7LUga47KboXabgVsZliISpnSsmSjjIoAjhoqrR4avRcrUrrXcW4tpvFKAwis+Cn2gLMpxALid/DpnSwTIs6Axs9koSwHAWTo6zSPSJZCfnaoNFqoNHpATc+IH6e3wwm2lE0jgHD8+DEGCG2jokoABHKdMECQC01Ja1zmk6J9QbSEMByNpZpXHktHYnolmQk1LaVryrEUCrcFp5sWQ7WVBggSABVAShwo2AJDexzJhSPnZdAi5p+Uje/2LioDhJUxMeh42xYEea8T+4dMzMEps7zHEVMmwWPBveHADYr/kGVHKbACIDSBByC4PZz39I13ASA47Zg2mxEnjhzB1h374OXlg/ETJiAkOFAyl9GytsBQYMSePXtx5OhxFqRWq0enTl3Rs2d36L2YYsVpImIFKccgVMCCoAQsvLDtgKUQN29ex659x2BT6dG9V180bhgGHQzISE3GsWOnEHuL0u7kRaU8yavh7eOPrl17omFEA+h1GtjtFkBl40DAZcuW4bnn3HExiM2Dg0RsNmSkpWLX3v3IKDCiYbPW6Ny1O7zVZujtRgY0xMl/+Wos9h48yDKkp318/REV1Q4tWrYSPmNqhwMkyAfJO2tBoLaQCobdysFU1KaTp8/BYDBB7+WFxo2bol2HTvDxldLauD0CJLi6KgoQiuBGx6mXiHksyMvNxMnT53H2chzq1muE7t27IzCQsLEM8ISC4R+rBTfjb+LQ0RPIMwGRraLRvl1r6AgkSGRJFQMIsnIVmy1tugaDARcuXsSps+cREByKdh27IiwsFGq7BXpYYCnIxpXzZ3H67EVkFZgcyo6TT7V6NI1siU6dOyPA14uVYoljOgBXAIFpmimtUarhIFgUxRhoNCro9DRnrbhw6QpOnb0Am8oLrdt0ROPGDaG2G6G2maAlYGUxIi0lGSfOXcbN1AwGCLXrhCGqXUeE16sHLQNBWUUXtV7JMQiJN29xDAKl7MkZHQxaCaRwaqXInBAKSuKOsFsRFxeH4ydPI7fAiNbRHdG8eQv46IjDwQgNyc5k4bafvXAJBQYDvyMgoAY6duqMho0aM8AuCpid8+92AIKA5dRWsszYcCMuHkdPnEZ6Vo5kqFGhXYfOiGzZBj7eegHuJBm5oy0YIBgKsXKlAAgUL1SRS2m5oDHXgsCoDcnJqdhz4BDSMrPYQlqzbhhatW2H8PBweGm03E4GhcKoJm0ejkRd5sgggqv6jRpj8eZV97YFwWCHhYF2+fEsFZHtg3ZvNQMEydhLJ2GLBSeO7cWHH36KNet+RVi9xti5ezuaNgqXTAM2GAuysWJ5DH78aS6uXo+Hr4+e87mbNG2BKVOm4YmnRvICU5o9K+NiEIxx8umaTulWxMdexMJFC7B6/Xb4+IXg3b9+jH59ukBnzcf1y+cxf8EiHDx2nk834txpg9lkRFZWDgoMRtSqUw9//PPf0LNrZ/h4a2C3mdnE7xZAkJirhNIiulsb0pNSsHrNGiyJWY08kxWPPPkcps98FYFqA7yt+TDkZOH46bNYvnYDDh87hgD/ANilDIlWbdrhyVHPoE3baHh761h5yxQh8oQmRUfWjS1bt3AWgyNIsRIznjYbjd2EjLRb2L57L3buPYpLV64yaLFZbAgLb4DHnnwa3Xr1RI0aAaA0Gj7xKUPJFd+tCEAo4k4gZScpYjp+5+dlYd/eXZi3eCVOnL+Gnr0H4p3fv4N64TWhsgmrgDibm6G2WZCblYlNm7di9oKlyDNqMGrMREye+Ax8dLRDCp89jb3JTBaEwxwIWFYMglBwdKqkDdnOvAknTp7AoqXLse/gEbSI6oSpr7yJTu2joLMboVeZkZ+agHUrlmHpirXINKngF1gDKg0RFtEmrUHvfgPw3HPjUbtmsKTgSw6YEiBwFgMxyVEhJg5OpPZIJ0S2RtmgozwmlQ0XL17EomUr8euuvQisGY5JU1/D0MEPQ2fPg8acD7shD5fOnMbu3ftw5PQFpObmsQXL28cPnXv0xpBHR6BF8ybw0tE2I7tlnO0TAOEobhFAaBOFOnXqOAECmTXJzcFVL0XitUZF88rK8zo+IQ4rV6/Fz+s3w2LXYuILMzB8xEjU8AH0thyY87Nw7NgZLF29DqfOXxLvoHmmVuOhvgMw4onRaNqoEbw00pgUs7rcHkAQStdmKsDVq1ewet0mbN9zEEaTlWWbm5uD1m3b4+lxU9C+XTsRGc7uSzfcF1IsjQAIlOZIa7Wl26tUtuXIFgHaC/Q2C1KSE7BizXr8vOlXGEwmPkjo/fzRpm17DH/sKbRpEwUfvQYau5lBguNUxu430W4PQHB7GO6bG6sZIFhgt1pQmF+IX9atx+JF87Hml81Qq/3RsFkrbNyyBs0iQsVksxhx6tBevPrGO7h2Mx1Tp01H04ahuH7lIn6aMx/1G7XGv778Eu3bRTKBg+yZqBxAIPY4C1R2MwoKCnH24lWsWrMSW7ftQIHBjqCQBnjvo/9D757toLPmITsjFRcvXEJqRp6IHqfTpNWIhPib2LJjLy5dv4EW0d3w5z+/i+YN60OrplO72CDdAQhCkZDZmaoBFiI+Pg5rVq/Fhi3bkJKeAf8aNTF09DS8+PJUhKjyoDdm4uKZE/j3/37E6Ss30KfvAHTr2hlWQy6OHDqMX/ceQI9e/TDh+ZfQqmUz0ddiG/YdBQg2K598Dx3ag29nz0eeQYW+/QagQb26uHblGo4cPYEGTZvjsVGj0KlTO2hstPHfaYBA4MDGfbVZTLh5KxE7du/Bpi1bcPLMJah0/nio31C88fZM1AutAbVNKG3aMDUwwmIswKlTZzBv0TLsO3QS3v518dSYSZg0YRR8tHQypDEVGfFuAwQ201phtxiRm53Dcli5ZjWOHT+BQqMJ7br2xfMzfodO0S3gbcuDl70QaQmxWDR/AbbtOIiWUV3QrnNn+Nfw4/Qsq1qDsPBwtIxsDl8Cyo4CakX3HxkgDHp4IPz9/FgJU+wBAQSRESEAAm381H+LqRBnzp3Fqp/XYe+Bw8jKzUODxm3w3LQ3MXRwPwQgGzpTNpJir2PBoqXYd+gEWraORpv27bn649Hjx5CSU4iHBz+C4Y8OQZ2agWyNKH4xQDhKAIGyGKQgRdmPQl4oIkvS66Ai0zyBPZhhMRTg/PkL2Lh5C7bt3IVbyamoFVofk158E488OgxBXiZ4WVJx6eQR/DRvBQ6fvYbIqPacDqgyF2Dvnt2IT87EwBFPYdTjj6NB7UCo6aRfLPvjdgACRaroYUTKrVgsXLAYMZu2o0795niodz/UDPTG8SOHsP/wUXTs8whbEls3CYeeeKcrDBDIgkAZR5UACNJcJytQYVYGVsSsxNxlqxFavxl6P9QDKksetmzZgivXE/DoqPF4+tnn0DAiHN4qM1viHDE4HoBw3yj7yjS0egACm6ToHyYkXL+ENWvW49sf58BYaGC2suQ0Axo1b4MNm2PQrEEoTz5DXjb++eFf8NVPC9CkdXfMmv0DIhvWRuyVc3jxhWk4ffUWprz0O7zz+5cR6KWBRO7EP7/WxwAAIABJREFUmx+lOVIMwquvKrIYJHDO0QLFTgtsZrMZkZOeiJ17D+CXLbtx+cpFaNRapKRkIzCkMd77+K/o1SMaOluBpMwoXoJON4DaYkJm6i2sXrseK9dvRYFVjbGTp+OxYUPhq6W6ECbJ1+geQGCrF5nn83Jw4ugR/LxxE44cPcbMi2lp6dD51sDQMdMx/cUXEKTKgbogFYf378Y/v/oJfjXDMGr0sxg2tB+suWnYumkT/v2/H6D2CcArb72Lh/v1hp4zgIue6O4cQCDTvBkpN69hyZJl2LhjPzp06YEXpr6E0No1QObki5djodJ7I7xRBCKbN4HWZr0zAEGKceB/2W3QwQqrMRcXL57H2g1bsefAEXbD5OcbkGsAevUfijfenIF6dYOgtZmhZcsH+f0NiLtxDYuWrcKGrbuRnVOAgOB6GDVmEiZPHAUfDRVeEifv4gBhxPDhpUZ6ky/XZjUh4cYV7Nq1B1u278HNhAQuXJSVnYWorv0wZcYf0KltJPxsWdBZshF75RK+n7sYpy4l4IlR49B/4EDUqhnI8478/mx6Z3BT0iokbwiuAAIxUxJAkEPTxYnSgsz0ZBw8dBAbt/2KuJu3YDIYkZWTg7oRbTB+2lsYOqgPQtSZ0OSnYM/2HfhuwXLY1T54Zsyz6NitK6wmI65dvY6kzFzUCquP1i2aIiSIyJmkOAfF2hMA4RgS4uPRloiSQus6036JTVHJ7WC3ISczFceOHMbP6zew28pkKkR2Tg78g+tiwjQBEEK8DPAyJmH96hj8OD8GuXZvPDPhBQx/dCg0hkzMnT0LazduR8Pobpg2bRo6t2oCLVHF30ELAsUF6VGI8ycP4V9ffI/9Jy/gsTFT8Oz48QgP9sKW1TGYtXA5TN41MX36KxjQqxN89CKOyZ2rqIuhI1q2bOF+FgN/Qpz6CQwSQIi7chEf/P0zHDl1GU+Nex4Txo2CH/KweuVyLIpZD51/bUya/ib69H0Igd6AzmaS9ls2Y3ksCO4M2n16T7UCBLutEAd3bsPv//g3XItPxtuvv4yTJ45j3pINaNwiGus3rkTziLp8ks/PSsPzEydjw66jGDZ6Gv79j3dRN8ALWRnx+ONrk7Fk7X48NHgMfpj/LWr7erkBEMRElpdh0ahoO7S2AsReOo3vZy/CrsOn8PjwgYDFgnlLf0aNkMZ49+OP0Ktne2htBi4yI5uj+YRqKMDeXdvxj69+QFJ2Pp4YOxVjxj+L2kEB0FgKHcrYXQsCL2GbFanJiVi8aCFW/bIe3bp1ReMG9fDzmp+RbVZh8NjpeGXaVAQhF1pzFpITE3Di/GVofIPRtFlzNK1fC/b8NBzetx///d8spJhsePmNP2PQgN7wUplLnDYrBxBcRImS5cNqxMXTx/H5F9/iakIqunTrhejotsjKSIG33hvNW7RF+649QJydVMdDRwCBzJYVcTGwaVxccoCdiB4Ruc3kstCrLCjIScOGjRsxf+ka+AcGoUvHaJw8dQZHTl9Hz/5DGCDUr1sDaqsJepsZOrsVOdkZ2LB5M5asXIsCowVGIxVBCsCTo8dj4nOPwVdL8hOEvM4YBOJBIBdDGQBBrWKL0OEDuzFn3nykpOfioe7dkZqUgF179iCyU18JIDSHvz2Dgd/pU6fw08KVOHEhDm2iO6BhREN2E4XXq4+OXbqhdp06nFtBgarC9FsSnyhdDAF+fpyVQOCArAiym4RdbHYrLl86hznz5+NS7A307NYFxtxc7Np3AL41m2Dc1LcxdPBDCFGlw5oRj/nzF2PR2s2IaByJzh07QavXcExFeN0wRHXoitrhEdBq7NBp7OB4R0W8EM0cIkEigEBMigQQiCiJXBR8yVwLOgkEwY7Yq5exYMEC7D90GB07tIe/jwp79h1Cod0H46e+iUcfHYaa3gboDbewevkK/LBwNWzewZgy/XUM6t8HusJ0zJnzE5bGrENoq86Y/soM9IhqDq3dVEI5344FQQCEfJw5vh+fff4TDp2+hIkvv4nRY55BWACwfc0qfD17MTJNXpjx2hsY0r87fLxcVcN1rVUqDhCETOXsD1H8in5nhdpmxPnTJ/CXT/6DW+kmjJv6Cp4cOQC1vApxYv8+fPivr3H5+k1Me/MDPPbEkwjx10JnNzj2Ww9AuE81v5vNlmcKHbgIwwb4iDRH1n+lMylKREnupjmKIx1sNhOOH9yLn35cjEaRrTBx4igsnPsj3vnTv9G4RXus27gSkRGhUNmMyEyOw5QpL+PA6ViMfflPeGfmeIT56ZGXdQNffjwV38zbgzY9RuD7BbMRFuBH8d98ubQgsEJ3BiSxIuFsHokdjjZYSyHir13AqnVbkG9VYdyoobh87gxef/czBNWsjz9//Bl69mgv0DMVmGETnQUaawHSkxKxYOESzItZj8i2nfHGn/6Cpo3rwUtNlgnZnC/UmDsuBtmCQEGJ69evR+yNODz22AhozEb8/aOPEZ9tQP+xL+OVqdMQpMqDl62AM0AoQMxGaXJ0erblw5ybgm1bd+AfX8+DX2gEpr/+Nnp268RBXHKUt0PJVjgGwWkSpehxMWVEHIfZmI+jhw7gP59/g6S0LNSsHQovbz3MhgKYjSaE12+Ex0aPR6fu3eHvrYPOZmEF5y5AePSRR2BRECWJSmPCVM4ZJNQeyYJQkJuJPXv34dDxs2jfLhrNGtbGoqUrsWbLYXTvNwhvvvUqGpCLwWqAt90ES0E+jhw5jqWrf4bBaETTJg1x/OQlJKRb8MTo8Zjw3HD4ackdRVHfFQMITMtsLMSZk0ewbcd2jlMhgLBr8wbMWbAIjTv2YYDQpW0zBNjTYUy/iQ2bNmHu0p+RmJ7HQXw+XjoU5OfBxz8AfR5+BAMGDUX9ehRERts+uT1k8OrcAYrEIMgAwWwWZFNSHAW7GFRAbOxVbPl1K3S+Puj30EM4c/gw5i5YBJtfPTw79W08MvghBNlTkZ90Bd/9OAcxm3YjMLgmavj58xgYjPnQa/Xo0XMA+g8ZhvCIcOi1BBIoHZKsbhS5L7zWAiAcxc0bcZzFQLUiZIBAcRYUoEhWBnHZER93HRs3bkB+oQEP9++D1JsX8dPcJUjOU2Hc1Dcx7NHhDBC8Tck4uHsnZi1ajRupuXjkiTEYNmQwVIZ0LFw4HzsPnkG7PkMxbuwzaN0glONlpGLZDqG5AgjupTjaOf5Ah0LcuHoOc+cvx4YdB9Bj4DCMHjMG9YN8sO2X1Vi6dhOC6kVhwuRJ6NquOXzk6lhubNwyQIhZSTwI7lgQ5Ngv2rOE/HmWqKywWgpx+sRRfPTZ5zAiGE9NfB5DBnZHqE8hLhw+hA8++Rznr8Ri8ox38cSo0ahTQ8+B2g4yb48FwY0Ru39vcQAEik2CAAgcUnS7AIF8kRQhLW8GdN4iZrSMtGRcuXwD7Tp2gLeXEV/961P87t0vEdGiPdZvikFk/VCAfK9xlzB56us4cv4mnn3pT3jrtXEI99ejICsOX340Ad/M24+W3YbjuwVzUa9GADe+bIAgWRDslOZGxTrMnOZGudu0XLQqO4yFOYiNv4ladcJRP0SHbZvWYeZ7/0ZQzbp47+N/o3v3dvCymbkCHbkAtGSqN+Vg7+7d+PKHBYhLy8LzM/6EYcOGwN9bBY3NIi0kZ/S2uwCBFLjBUMiR2pTq1bhRA1w+eQwf/u0j3Mg2oN/YlzB96osMEPQ2g8jmZ9AiKQpzLi5fOIkf5y7F7uNXMWTEWIx5djQahdeBirIe+MTobFfFLQgiwYyIe8xmK+xMhEQR5jaYjPk4dvgovvzfd4i9mYCwehHo268/opo3xunjR7Bzz0FEtIzGxKkzEB3VAnqbiDov7SovSJGzJuxWVnhGqzNpTcvlvq1ISUtDXoERTSLCkJN8Fd/+OA8xW485AELD0BrQWA3QWQpw9dJlzF+6GtdvpWLo4AGoHeyDufOXITbRhFFjJ2PShJEcg0DvdbgYOM1RBCmW5WLgUFarGRlpSexSqFW3LqPy5bPnYNa8RWgkuRg6RzVDDVsGcpKuYc3adaxgaoU3Qbdu3RBWKxDxsVewadt2JGfmYeSosRj5+JOoE1KDffRywJgycLd4FoPVTIyMIr1RymoktcGlXPPzc5GSnoYaIUEICfTF+hUrMGvuItj86zsAQg1bKrLiz+PHOfOwfP12aHwD0aljF/Tp2QWqwmxs3bQF2Tk2DHvyGfQeOgBBQX7sQhL1FTQcW0BjqlURUdJR3CQXQxTVYggTPANqci9omYeB3DIyQMjJzUJi4i0E1ghEWJ0Q7NmyCl//uADJ+Tp2fzxKAEFvgA/JLi0Rq9duxJrNu6D1DUJkZCRnJp2/eBHeIQ0xcswE9OrSAcFexBJHtN1FGU0dAIGYFKMrwKRIqc0EEOwGmAqzcXD/AcxesBzJeWZEto5CkK83rly6gGyDFkNGTcLDA3ojLEjL1q5iXo4y1wMRJa2KWYX2Hdq7QZQkskiIppvGXrBiikBXStu9euE8Pvz7Z7iVkoexz0/H448NRj1/C04f2I+/fvYlLl6LxcSX/4THR41FWIie3SeOjCMXAKFBo8ZYtGkVFqyejfdnvid4ELRepbreqlN90j7JPAieLAa3xH5nAIIyb0Y6xR/Yvxfr1m0U3PB2QXoyYdLzaNq4gazKYTal4Ot//BPvvP81GpAFQQIIKlsh0uMvYdLU13Ho/E2MkwBCPX898jPj8OXHz+HbuQfQqvtwfDt/LuoFuQMQSHGK1LUbsXFYu3GjxMOtYt9+ly490L5DlGCJstqgNqRix9b1mPn+F6hRMxTvf/QfdOshAILGTnnqFt4EjDkpmL9gIb6cvxoNm0fj/z75F5o1DGPTnVAiRVO73AUIcsAZEdXQHmkzGxggfPR/f0dstgF9x77MACGYAYJQ+JSFTOlxFoqevnwGC5csx/Z9JxDZtjuem/wSOrZrDW8NpSkJnyuXDZauygAESt1MSkrEzp17kJqWIYCWToOwurXhpdfjp5/m4FZyGmcLUAxCk/BAHNy1Ef/56nsU2Hww+rmpeOqpp+GtppQ5U6kbpDsAoSAnC8eOH8eJs+eZt4DaQgF8vfv0RWhoqAB01nwkx57Dd7MWYcXW4wwQ3nrrVTSqE8DgID0xHmt+XodNu4+ic8++GDNqGG5dP4svvvwB8WlWPDX2BUyc8AR8dBSDQCBBymJQAITymBRpXDWU+64mV4gdOekpiJk7H7PmLUbDbv3ZgtC5TXME2NJhzUtFXNxN3EzJg19IXTRu2gg1/bVIvHEFy1euxqr1W9GsbSe88PJraNm8CfRqi+BOKGZFKA4QiBiJALyj9DnrZBV0OsFcyFkSMMNUkI2NMTGYNXcxrP4N8Ow0siD0QpA1DZkJ5/Hj7PlYvm476jZpjdHjxmPowz1gzUjAwu9/xJYdh9G59yA8OX4smjRpwEGgDEhl1wGBBQIITLV8k4mSZIDA2QtFrAfCgiD4FkTGkMpaiF0bV+KbnxYjqUAAhEcYIBjha8uCpTAXa3/ZiCUxvyDXaEZgQIAAZ1k5qN80GqMnvYguHdrCT2MRMQh3HCCY2H126uQpfP39LFyOT0RAUAg0KhXS0lKh8a2DsS+8gYf790KIr5XboKSZKmv3ZqpltwGCsOqR7LLSM7Dt1+1ISk4W1jaVCi1bt0G90NpYMPsnjr8aOOIZjH7mSYTozFi1YgViftmI9MwsB0AIDyaAUKAoU14yBsEDENzSvffFTVUCEOgk98P33+Dl6c4gQW9vb/y6Yw96dOsk1W6wwWxOxbeffoK3P/ge9Vt0wC+bVqJl/bocJJaecBGTpryGwxduYtyLf8Jbrz+LcH8vBghffDQB35EFobuwINSvEVC2i0EKWmMfrcWCfXv34aU333IMkL9/AF565U08PWaUMA9aLdCa07F9ywbMfP9zBBJA+Pi/6NajPfRW4WLgTABLHhKvX8CsuQuwZvcJDHtqGiZPHIu6wb5McMNkS8X86hUFCLzZ0ztsZlw+eRQf/vVjxOYY0UcBELw4LoJM9ORbLsDli+ewYOFi7DpwEk1adeJTZp9evRDoq4Wa2uXitF4ZgEAuo3PnzuLvn/wT585dYHn6+PigV68e6NunN+bOnY/k1Ew8MuJpvDj9NdTQ5+HKqe34/IuvceWWAYNHjsOkF15GoDdtkEan2bLY0ikPIJC1hfz4s+fOxcJlKx1Pd+jYCW/9/o9o1aIFByHq7flIiT2Pb2YtwXIHQJiBJnX8YMtLx8G9ezFn8UrAJwjjJkxB+zZNcfboHvzvm5+QkGHGE09PxrPPPgFfHxV0atlaA4koqfw0R8ksJ4AZjanGjrwMGSAsQcOu/fH8jD+iY1Rz+Foz4KMq5PQ8s9ofZnjBbjdDb8uDKTsZu3ftxZylq6EJDsPkF19F29atJPBHJ1EnaRd9szSAwARJzC/gBAjEykiMXDaVBdbCHAkgLGGAMEYBELITzuMHCSA0b98dU16cjoe6tIQ14wbWLF6M+SvXI6JVVzw3eQpatWoq1qeUZUF94pLOajVOHj/BNQ/aRrVFWFgYjx1bD4qVrBYkXzIJmBUaWyF2b4jBN7OWIqlQh3FsQRiBWnoD9MY0HD92GPOXrsKl2AT07T8AXTu2g7kgC5u2bMXpi/Ho1Hsgnn5mDCIbhfNaluM35Mlz+xYEE25ev4aVa9dj9abtiO7UFQMG9EWAHji8bzc27jiIepGdMXHSJHRs2xTexJHlguXUlRapHECwIT42Fu998DecPH3G8drHn3wGY0c/hRuXTmLZylXINarQPLI5NDYTTpw4juzsXOQVFOLZF3+HJ0aNQXiwji0I4nIdpOgBCPeF7nerkVUCEGjjWbtmJf75j38LGliVhv3CX371NdpGtRCAVkVmzjR8+9lHePuDWQ6A0IpdDCZkp8Vj8sQXsef4FYx+4R38+XfPo26AHgWZN/Gfv07BN/N3oW2fJ/DD/FnlxyA4AAIRIFlw5sxZ/OPzLzhFkSa53tsHI58YjQGD+rJbwJusA6Z0bNuyEa8yQKiD9z/+HN26d2BSIk6fs5lhNWRhz6+b8e2Pi3ArH/j9375Aj05t4K8j7gIymZekv60UQGCWRCMunzyOj/76EWJzTOg79iW8PHUaWxC8bQbo7GaYzIW4cPkcFi1bjj37T6NZqw4Y/vjT6NmjG4IC/GA3GzmXnBkii21GRBrD1Rzd5kGgNEwzYmOvY978Rbhx4yZPOC8vLzbJtmwRie++/RaJKRl4ZORYTH1lJoK0OYg/9yt+/OE7nLiajz5Dx2HyC6+ghg9lEBgciq34zC0PIBAQy0pPxfoNG7B1+y5m1KNeNmseiWeeHY/GDSP4hOZlIwvCBXw7ezGWSQDh7bcIIPgg4+YVLF26AivX/Yrg2qHoQERO3jqkJMTh+PHTyDeq0bRlK3Tt3pn579u3bQ29RpD3kLn+0CH3AAJPCba4EXOoBXkZSYiZuxCz5i9Dw279JIAQCT9rBrTmHJgtVg7Cs+v8mE/AT10Ac3Yy9u89gFlLVkMVVBdTXpyJ1i0jWcmoGACWDhAozZGCEymbQwYIIoJEBY1OmPWZspP80y4AwtDBvRBsT0NBylXmJ1m0ejNaduyF5196BT07RcKaGYuNMSsxZ/l61G7aHhMnT0HrVs2Yj0KwkzpLJZMF4dSpk0hMSpIAQl0eO7YeUFSjdMnQgDEGz18ztLZC7NmwCl/PWsYWhHEvihiE2joj7NlxWLh4MZb+vAWh9Zpi0pQX0KtrW6AgBatXLMOilRugDgjFlOmv4qGHiGxMsGwqTfyVBggcMGqB2pSPvTt34PMf5yM1145JL0zH8Ef7oZaPGYd2bsW3Py3GqWupeGH6TDw+cjAC/YnoqmT8yJ0BCCLDJTkxCT/8OAvXrscKF4Md6PXQADw2fCh8dSbs2bMPW7bvQ0Z2DnQaFQJ89MjKzMGFa9cwZto7ePyJpxEaqIHWTi4GD0BwS8Pe5zdVCUAg02VcXCwuX7jEi50AAm10ROoRUrOGlM1DvutUfPPZh3j7g9lo0KIj1m1egZYMECwozMvE7159FXNXbkL/EWPxv68+Q/1gX2SmxuF3MyYjZtMRPDJ6Gv71349Ry6/8LAbB7idom3Oys3H5ylWo9V68SGhrqBMWxgx2lJNPaYA6Uxp+3bIZr7z/X9RggPCFBBAMfOIgn7UhLw0L58/HN7NXIbxpNP76j28Q2agOcyUwk6ALp2LlAAIpYwIIFIPwd8RmmUQMwjTiQciHtz0fMOXj0uULmLNoKfYcPIGojg9hxONPo3On9gjy94XVTApYskYw4BAbotxEGSBwLYZOimqOpU5wYbrML8hnl01hoVEqB6xGQIAfDHm5+O6br3Hu0nX0HvQYpk6fibqBVlw99Su++fp/OB9nwJDHJ2PilGkI1JM59vYAgsloQFJSEtJSM0WwJgBff3/Ur98Afn6+0Nqt8GILwgWOIF++9Rh69BsEAgiNQ32QcuMS1q5dj4MnzvMWz4FcdivysrNxKzEFJqsWQSE1EdmmJQYOHoKBfXvBSyuUHSnbQ4fcpVoWJ3aKIIfazABhJQGEecvRqHs/TOYgxRbwtWQg69YVHDh0FBfiUtC4eRs81LMbwoK9kJFwDWvWrMOytZvQqE1HdjE0axIBvVrwLChpv5UWBJkHgTIYigMEikFQUYVGHRV9onlihYUBwirMZhdDfYylNMfBvRGsyoAtOwFLlyzDrKVrUTuiBZ57fhr69eoA5NzCSsmC0DS6B56fNg0tmzUCrGbYmXNbxL4wDblajdOnz7CbKiqqLcLDw0TxKbIeSITvjlBYqUSAALZmJizbvXE1viYLArkYCCA8Mgy1dYUwpV7F4qVL8fOWvWjWogOefnYcolo3hM6Qhl9/JrKxjTB4B2HM8y/iob694KtTc1S+YJMUadC3AxAoddBWmI0927fjq9mLYPGqjfGTpqJf746o7WvB6YO78e33i3Dw9DVMeHE6Ro0ajqBAX2HJcZGF4gowV8TFIMjW7Cg0GHDt2nVmYVSptLDZ1AipWRv1QkPghUJkZOchLikTFrsKeg2RxREfzDrmjZjw8tsYPGgQgryJX4RcmjJ687gY7nMMUGbzqwQguPyiMiNO2iDNllT879OP8LsPZiGiRSf8snEZWkbUZVMkBbrFzPsRf/zbPxEY2hBffvstWjcKx9XLp/Haa28gJdOAP/7lMzzz9DAEeBGbobhK40FQksgwtzjlkGs0sNnssBIPvihkwCcJCvYSFoTNmPH+fxBUsw7e+/hLdO/eATp7AZ/W6QSTlXYLs2bPx8LV29FrwON46Y3fIyI0ABpzDrhKwx0ECLAbcfHkMfztb39HXLYJg8a8jBenPo8QdR68zDlITriGJStWYmHMBvgF1sT4KS9j0MAB8PPWMzkVKQ1y85CfmRFaMYAguxjcBwhC3nJUujKFzWYzIy0xHr+sXoXla9YjsHYDPD1mHHp2boNTR3Zi1tz5sOtqYcyEFzFw4CCOQaDASUdkdLEJVJ4FgZQNB2dy8Juaswtok2fCZEKAEr8BEQ8ls4uBYhCOcprjW2/OQESoD8x5mUhKTEJWnhFWFQXHARqrCRfOnMaSFauQkm1G/4HDMeKxYQgPq4XawYHQkkLmWgwVAwhiajgtCCvmLsCsecvQuDu5GP6AzlHCgpASew4LFy/Dyg2/olXbDpg8aRIiG9fFlfOnsGjRCpy9Eo9hj4/G02OfRe2aFKQoKKLLAwhsQZCyGKj9fHLlNSGojUXhJysshlxsiFnFMQh2/zA8yzwIfRGkyoLWkI7jRw/ju/lLceFGEvoOGoqRI4bBHwYsXDAfOw+fRb8hj2HsmKcREVYbsJpgo6qRFmJCFECBwMCZM6eRmJiItm2jUa9+PWjI/SBRK7PFQE5AdBRkEumYlKWze9MafD1rCZLzNXiWeBAGD0EtbSGQm4B1a9dgyepN8PIN5iDOLl3bQ23KxsZVgtuiTqMWeGbK84juEA0fAghcHkTUHWC3i0Yq1lTRIEWmRrdAaynEsYP78fn3c3AtKQsjnngajw59GKE1dNi1bTPmL1qF9Dw7Xpg+A0OH9EWAn1cVAQQnhTbX+GACDemHjQAqZCQlYOfWDYhLTEGT5q3RsXNn6NRWrF+3FguWrECL6B4YO3Eaolo1h4+G4lzISuUKIBA5vhUeF8ODAxmUaY5ysSYiWuWp43aaY7EgxRLiKZIuL0F0cjGY0vHPDz/Aex/ORmjD1ti6fT1aNQrjzcNqtSDxxmX85z9fYP223WjTrgPq1amJpOQEnDt3CX36D8I7v/8Db9ZUp1qesWUBhCLtIkUimcn4VCK/wgY2EWpMmdi6eRNmfvAvBIfUxrsff46ePTozQKC8aY21EEnxsfh+1lxs2HEUo8a/hMeeHoPwWv7QmPN4w3EVlVwRC4LcXo4Ytplw/uRRfPDXj3Arx4hHR0/BtJemIxj5QH4qDu7bhb9//jXiEtPgHxiITl26o0H9cMepzcfPF527dEWnTh1FZPgdAgiuwaAFdlMerl+6gHmLl+PIqQsIDA5BVOtWSEpMQFpmLvo8/CiGj3wSoTWDRPS9ctOpKECQTn7StHWU3pG5LmgcyC2ktxuQdP08vv5pLlZuOYSefQfhnd+9jYi6gRybQSdau1owClDKoNZqxJED+/GP/36NhPQCPDP2eUycNB56rZW5HrieglpdSYBAx0UrcjOSsGTOPMyevwzNu/XBC6/8Hl3atoKvPRu2/FQcPXqU6bOv30xCWHh91AoJRGpyEhKT09CiTUc89sRotGzdEl5awYQowEHRwNjiREmUIkpuEWeao5irAiBouWAaRbebCnPwy8oYzJq/BCq/Opgw9Q0MHTIA/hwYW4CczDT8snETVqxdz/TfkS1aws9Li2vXb6BW/Ug8NuppdIpuDX8C8ORyI4pnid6ZQALJ7vTpU7iVmIjodu0Q0aCBVGK6aFUOidtHWq+CGpn0dV8EAAAgAElEQVRiEChdkNxF6YVqjJ0yA0MHDUaI3gy9JQtXzp3G+k3bcOTEOfgH10S9iAYMUm5cu84EZw/1HYReAx9GnTq1OIOJACEBA5oDJAeKg0i4dQu7KgwQSJaCvjg54Tp+3rAZ67fuBHQ+aNq0Mfx99Lh08SLyCsxo17kfhj82As2b1YOerFFVYkFQBiPL6Y0OcmTe9zJTkrFu7Ups2rYTZrsKLVq04GDt69euQa31xvAnx6JH774IDqRsFIrXUBQGK5LFQM4fGyI4iyEGC9ZI5Z49WQz3LWJwRZRU8XLPrgCCM0Be3reLCckKizkbC2b9gKUxO+EdWBeff/VPRISGOAjFOAju1EnMmTsfFy5e5VMhmUFbtYnGmGfGoH10awbDIlGxbAuCXM7Wka5PudhSNT5HhLQUdMMLwJyLo4eP4ocFK+EdWBNjJjyP6LYtOZiOAALlzScmxGP1zxtw/loi+g4age69+yA4wA9qWyGT19wOQHC0VxGkGHv5EubOW4AsE9DpoQEYOfJxBFAmRXYyDu7fi+XrNrN5Xa4PJ9cmJLVBgZgDBw3CgP79RcXMqgQIxOlvM8FcmIvzFy5i2+4DuHT1Ohtx9V4+TMs7+NERCA+ry6cRecMpLc2rXAuCfNRUnGqcRFgyQRbl8ZqRdus61vyyEftOXkGLqPYYM3YMQkMCWYGJTBBxBqdATmLXvHzuPFas2YDUXAt69n4YQwY/DG+dVCODx6aiFgTpSCyVeM7PycCOTRuxddsehEZGY/CIp9Ga6hfY86C158OQn48z5y5h687duH4jDioaX7sKjRo3xcDBjyKyZWsuBkYAS0BeefSdy80lk6JElERUy7KriTIMSDFqtKKkq6kwD3t37cSWbTuh8q2JQY+OQtfOHeClMjADHwXOJiXexJ59+3H42Alk5xZwfYi69SPQu/8gdOjQHgE+Xpw5JMzcnIvLdSAo5Y6kferkSSQlJ6F9+w6oX7++tFcUK9ulmBjyCGlsBhzavQMbNu9EjkmDPoNGoEuXzgjQUYphIayGPK4SuXPXfpy5fBUGqeZEgL8/unfrgQ6duyKwZk0uJiUcUtJxQbKk6PQ6JCYmYdeuXRVLc+QekBneDJXZyKmv23fvw4Ejx5GbL0X/24GOnbujV++HUb9BOLyIJIkrULoZgyAVa3KfB6EYD5QjdZQsTirYLSZkZyRj376D2HPgMLJz89jXEh5WD9169kabtu0QXLOm4LHgmiXyKpFPkhIDioosCFSsqRGWbFqNBWtm471X/4yhXfrfe+WePWmOboGWqgMI5X6e+AhMiIuNRWJyNqDxRnS71vD10onZxpuC2Exir11DRka2oEhWaxBSqxYaRkQwyqUNwy2AUF57pNK7TKlEwMFqQnZ2Dm7eSoVN54ew+uEIDPCBhmht+cRrRWFBHhKTUlFgsiOoVl0E16oJHZXrlfLRbwsgFGkvmS2JejmPa9Sb1V4ICKmF2jVrwctu5qIwRKqUlpMLu1owz5EVVxCiiJhQIpypXasWgoODJeBSNCirsi4G12KVqhVSoJvZjOTUNGRm57FvX6PRMbEOMQBSmiSXNS7F2uKwoKhUyMnJweFDhznA7pFHHxGn39Iu5mRwXsJCJApCmQ15XLUuM98C78AghNcNhTcpWInkScw62jZt/8/ed8BJVZ3tP3fa9sY2ehXpvSl2BSsYUeyJKcbYNZ/pxkRNzPf/EnuMURNFxK6xBBsCIiBdKSpgowlbYAvby9T7/73vOWfmzuzMzsyW2QHvzW+DsPfec857zj3vc97yvNB8Ho6lOFhRgxavBdm5vVBUmA8LvUtmp4QFCAbGwPaWHWWn+NxO1B46hMPVdUBmPnKL+yAnM53Je6ygHx8XKDtUVY26+iZWwLTic7LzUFjch4MKqc4B91dWOwzNnFmzZg0rKmMtBrK0qWJNxlgUCg5UVgSfz4PD1ZWorqqBz5aJXkX9kJeTKdY/FU6StSXq6mpQWVWFVpcXPs2OjKwcnt+0tBQul+3vlwHIKTfD1m1bcejgISb86de3ryxXHsURT+P1tKKm8iCqKurQqjuQU1CMnBxy+1C/KGXWC82n4/DhWtTWNsBLribNAqs9BQVFRcjMzhLuJy51Lb4F/5nGojFny6FDh/DRmjVs3Rg9ZrQ/LTTaViJWEPGkED2bhpraOhyqqoLL5WGOBwJ4hcW9kZPbiw84Kg0xlvgDujt+JsX2eiy+VQpebqhvxKGKSjhdlPYJZOfkoFdBEewpZFxWXGgKUBpSpEmMIqGB86P6DhqEl5a+iRfefAp/vPkOnGUChOhLJknv6EGAEOR3iEs87RknItZiiKMFkd9OOdsW5rvnMxl9BF7Kf5cnND4BMtMIB2EKf7eXgx5DKyUam47VxRCi4QSHA/tGiTLPxrn+Hg+RNnmF/5S0LFsP1JdshCfiv71eUZueFEhoaeWuBQgcbs5brsUiTMkiiYtYHjVWAl5mmBRHpkiWg2CA0ICPP94EyuGPDhCC38h1QHh/E2CSTsoikJHmTBBnCUgRsrI4kE5jXzkz1/t0vlcAjsCJs00MQiyDkoOjzdlGp1ZKZySKHS5WxHyQIt+f01epuwT8hPVAhbLRfFKwqbiUxUqlSQRWUDiAQG8nsEUln43hMoqngEot05ridcVZITZ4ObDDw3wbPLeU+SAtXOy1oqJKMjqe5eoPmDRCECllMqdbBA/CwfIyLjpEZYVpTO0tCLL6cSyD28UBxRaLjWNGPPTvvLZl2XD+Pi2cRUU1VUQxJrHq6R38LSj5cdXTwNzTMAlQU9Dr2nXrMGEiAYQxcQAEYSlhCx5ls5Ic2S4rvzoqtOUT36LK0AiWUPubVdcCBGP6qWC6FOtLXB7qJ5HLGboU2lfOwpYAgaBFX7IgLHsTL73xFO686Q6cOe00pNodcezA3XcrjcMkSopdvl0DEGJvL3CnXHFBNRGMe3Q7WiM0pMG4oXQFQOjEcPzqOdI7qKTyy6+8zFXccnPzDBt8O63KctSsMiRFtIIBAcUQ+nwY2pU2ggs80/UAQUWyKPOt3EHUWS1C3YVwUqC+NTQ0cCohKbSoACHkJSrQzbixyYx6/3wpd0y7c+8PajCcnsK5GOIACDyPysnOjQcz+qn+iKblR0FBmJE6yuAv+ArwIJyBzIxMCXJEQC/FIlB2gf8ZxgNEi0zWHspooIBP2Z70NwvARSdPcUIWdrw2n3ZA6SpqX3mLmg96/9YtW1BWWuoHCKzkI1z0O2YD9FJFTAqWE6dp+iZ4lXEcgQAegf4TKDXITrqF2NXBgI/cHR62VBJwUOOgd5DrY/36dRg3YQKXOw4eZbjxKsNn8AxIWOJ/ILRYXHSIHCyQYIAwKQYmxRh2NB67CLoV/AbyGcN/RnqLUiJe6HDpOvoNHYqn334Jb7y2CH/+xR8xewYBBGmFiKEr3XmLCRDik26nAMI/b30a1559BZ+uQ6qlRu9FJANCxw0LYnuV1Rzv/du9uOHGG4QCkJ2LuKnyXe3ZJaIPJ9Y7qioJILyCH3yfAEJuoHpdOy/w61IySQe+21ibbHNfOGVIMiLrxooPVnCe/6hRo8RG3NFWwihTfxnNeMCBnL/6erIgCIBw9jnnwMunvtgvGkeIXSHk4Wh2jPBt0VNkQfjkk09QXU3Fms4LrDcDU2X0nqp0sdCzWltFFMucBBS+xkRJh6urccbpZyAjUwAEseJ1eD3Exy8CCMXHIv6P4xE4WI9AQiC/RLxXqkqpoMWD7fTKAGrVaEgZk3tk69atDBAmTprEFoRIAIFiJShwmU/90urDlg+lwNgKQwGGIhuDf9R3rwACxUeLwH1/lxkU6IIy3OcRf1JbFKx46CABhPUYPW4sxowdKyxPBvCnRhx2xgzrXyx3BYvaSiv4e4xhHWrgolivv/4Gx3mMGDkyUM0xrjUXfubC9iBkgzeOWSkRck35HDYU9+uPt9Ytx/o1K3H1xVdi2siJsFsp3T36V9Ddd5gAIT4Jdxwg3HYyHr31KVx3zpXwqujbOBZAXJtcHGMipfb1V1/jjjv+gNtvv118OLJf/kpxQe8TJ6C2V3uDiaX34TtdcegQFi5ciOtvuIF9fLxZx/Ll8Iff8XZDhyyKVwUuktPB8nK88847mDlzJm+Ikfz8MRWtiWPO2ruVt2SLhrq6Oqxbt56V8YXzLoTHKznl42hHAcVwj8QzptD3UIzA2jVEN12Fi+fPF66prputNt2NthJCTcArV65ket9zzzkXWVnZ0rQt1hKtPwIIDAaFf8x/kcIlJW4l9wYrR2GeVwqNYYI0P4vfGlqOYS+gd5MCLik5gBkzjsOAAQPaAAShwAkceNklIoIqBY+COpiwxYP4E6h2g1WkuIYTWpuvx38YESMSsiCg4GXXSllJKVauWsUuhrHjxkkAQm4UYVVheYRdfyH/Gsu3K0FMTFsBmclbWvDc889jxvTpGDduXIA3ogMAIXQc4cRnXPOhYxbHFh3FhUXw2m1waT6U1B1CTUMtBhcUY0TxEGSkpBvqasTx0XbxrSZAiE+gHQIIH+38GKf94mT847YFuH72FSLqW+4tMamwGDYPNYxIt0b6DugEQulJ//r3k/jBD38oThjy5nAmwkAB6Ghqyvj7mEbZ5oU0ltraWq7QOG/ehUhLTwtsuMaBGl4fyXgb3zQH3y228WDJ0gZAgWzr163D2HHjMXjwYD5NhVOqHdyDOtxlmsOmpibs2LEDbrcLJ510clA1x3heHHE9xfMSozVCA9wuNz777HPU1dXi1FNPZS6G9sBInE11CiCQ7OiUTgDruOOOQ1pqWpDVipYamdepiA+f0NmSIOwtfnO9BAl8glYajE/j/LTsn3IhSYtdDN84ndK379gBsqqRCb+oqFC2L1SW4FPyweMhcCDTMv3xy6J1ijPgGhI2O1sNlHW8LeATQENcIZ3jM4RU+BIkEFiorKzEtm3bMGzYMAwZPJjHTjwR3A4B7GBLvDGKwTBnRmdWPHtM5Htpr3W5nFi6bClGjxqDYcOGxvWdRnKVxNo7ZZBR94sR6iguKsKqrZuwYsMK1FuaYEnRkOq04drv/Qhjh4yCnYBmD18mQIhvAjoOEH5zMv740wfw/ZlzwCYEWRkwnNktsJAMnTN8o3GftkJXqP+1wobo9no5t7qwuDjGwKJoCr/tbteOF7idL1vjk1BlVSWKioqClHQoPgiVSagfM75pDnd3CECgxD6vB/X1dUjPyEBqSqrSE51vqlNvEHNKQV3Nzc2s3LKzsmVCYgxaqFNtx/qwjqbmFnZ/5OTkCBUUy1Ew0uvbWY6svqMMO3COF0q+vqGBrQQU5S8cGQIABD4beUJnkCCZGCkgVt0gU/84BZKJdkQLSjH4b5MaM+aha0Bzi5BbRkYGK3mjYufAYB+lQ7v5ZB9QbOLrYN4C4m5gACNIstoTqXh3tG+dABPFOXjganVy7AsRjKWlpvKTgo6ayKSCcw4ivzV6e2FBSztLjwJkaSw1NTXISE9HamparAuV7+sIQGgXPOhUYl1DcUEhnl38Mh7970LUWxthselwtFrw7188gFmTT0KKzRCo2J5YuvGzNgFCXEtFsA+zAcDHlWep3HM7REkU1AOs3L4BZ9x6EqaOPRUjUgdBI4CgfJiy/aBNTC6GSBsb05vyrhpP58PcLFMVuRgMVcujICRjtE2U18fVfAwbTVi17A/YEkFSYYcdsSOxbjbxyNGwvUuyGGHWVf/enW3G00/JcEcBabJMcXzrJUJbEQ6VcfZMKgw1p10gs/ZAQgwAwah0OPtFWtIiuVI4O0BmabBv3/A58jdE7yAfP7PwBRz5gW6G5/2IJkfRN8FJwmtOjY11uVCEItPEIBC+J2DhULEBAWASXkAxAQRuJsCsyn+TwIK7JwMgw21WgR6Ggu9oUoj392I+KMZCuWDifUOH728jWiJ4ovxGC6780Q/x+bff4LHVr6LZ6gSV9dAbmvDY1fdg9rgTAwAh2ucR30Yc11BMgBCXuAIAAcQjIwCCvQ2Tol/B+ziM/tN9X+PuJ+5BekYaLIcFAYpILlKaXnYinGkg9KgcX38Nd0dbRdFWYaCPMd4ZUObxPNDh8ZkPmhJItATkwpbR/cJ7IP7Nv+SlFubQHlbuRN8r43yU28HwfbT/qYSa+gNWCxU8SKZ+dl/KrUWQm1Hap3DjqOyO0MNH5HaNm1K4PcRwmqHTkD9Q16D+uQQ7WSwkvFdZHuHhfqInMSHtCdCo9lANbpcXV/30amz66nM8teQZ1FqbYLXqSGnyYcHPH8ZZk0+FQ1oQosYoR8mciLbztycAEyDEtzziqsXAaTC6hrrWFuwtL0Fqih0Wsh4Ig18Hz9RhOmw8SUSb7bhO2xFOFvHJrEsOrnE2ad5uSqCbJWBQqTJLgE7tPq88TYdY4hgcME+C4PcXBZ5kF5WOjdrjtgCBVa6sjcIZFpStIkGCAirE6GeT2RX8b0pRBzcfufWA7yT85qNEIVkfOYDTYFWjcRORkqpDEtp+nKbQqFJKthuMLgreqikOR/eioKAQH25agw83r0QTlYTWAIfbghvn/RiTho2FzUpn0DDSCUFz0VxoYd8Ro5BMgBCjoORtcQGEwKvVjIZE6UTQ9UbkEM2A0Bl0GN/QDXf3SKMd7q35oCmB7pGA8eTPYUUCIIgsh9AE28AJkq0J7H4QlgRV04CBQwhoCK8hgocj2iWOBg8DBDbxy0MDByU67AIghAl2iNW4F+snT7EvLpfbn12h6Nk5MJKqTsbJedE9E9ezb1WWY1ohVXWHUdvcyAXlGbzpPvTJLUBzUwsHylKGiHENSI9OMGxod3JC0YSOXr3yUUy02eTTiHKZACGahIJ/30GAEF8jcd8dy1cebuOJuyETJHRGZOazR5kEwnx3gn+AuBK8rCRF1VPJo2AI+gsKENQ02O12VuQiPqDtZWzKbwCQ/0htUWCiSGsMsPgRICAl4HA4/BkLEWegPSUTy/4iX0xAhTIGqE8qMIce5/GlOCTzYLzxU0fZupHDMRwbgwbo9nrwyrtvobWlFflZ2bAxO628m+MoArcri0S7ElIPaEBVdTXSU9Jw9ulnIFcGCLf3rAkQ4lt7yQkQ4htD9Ltj3RBiPVZEb9G8w5TAUSMBZUngdEhmHvRBl2Z3GmRojjyTINntSElJgUWFPMcoDQIklDZK6awqiFcRHpBrgcABnxQN/CYxvjpYC7X3kGEfIFDkcro4DdSoyShrwpGawhTZQRGdcXfm6H/A5XHjwaf+hWOHDsXoocPhsMt6OzL4VUkgEsCg3xt/53dqaxp27dmLHTt34vL5F6O4sDCqME2AEFVEQTd8NwCCcYVFko8JDuJbOebd3y0JKJeDjE8gU7HyzfPn5ecaEe6GaBaESMKjk7qbFDJZDww3EQihNEi2SlBdg858r/TiSIcGeq/h3QRYiJyLQAvFRqiLUj4dbEEwAUK0D4EAwr+fX4SZU6dj7LEjOX4jKF0lNGoxShCC8de79+3D8pUrMW/OXBQXFETrCk+7WYshqpj8N/QgQJBOxTa2xtg7n7A7QzeTzmxOXd3p9mB3V7d1NL4v2eR3hHwPVL/B6HJQ/y0yDGyiIqQqHB9p3YRR0lQbggCCooP2K2SrFXaHg8tRt3tij2U+27MohnzbBHzIgkAAwWhBYFdHPABBbndhRdHe7xL6zYUIr4v2PQIITz6/CMdPmYaxIwggULAiCdoH6C44W4inw83itdnT4EjL4iyRiJch9G3X3r1YvvJDXDj3eyZA6Ia10rMAIcj3JNKPFCM9jTVmwpVuEIw4FUmc6+epD9A2c2GYbmo36mtlURnRfiidmySo77HOGXsfmGCVJc+HhUT3zd8NeXTkvclAvuE3V/fQpIZVWIbCAYmWV7gFyH2UHVUncApFoGJO9D+u3ijz8ykNkAmV2lnJYcbMgYkuF8ceGJUxV5i0O1ixaFS6VC77wNtD0qvlx8lNxDqlEYCFESAYOSQUQCCK56guBn/FTSUQ8SdnhSkhdfcch44v3JrTZGE1VS6dqbcN7Jkd7KPT68aTzy3CzMnTMHYkAQQiTKI5c8LdVIn6ir1wtzbBZ0lFVv5AuLU01DW0cDlyI0EOkaSlp6WjT58+bEmiiwDC0lUf4sI556O3aUGIqjrivaEHAYLacCSvOuVeHzqI2gPlcBT3Rnq/PrDYo0elxjvgWO+nkra604nmA/vRUnoINt2K1Jx8pB0zCMhM5xTxCPFXsTbRwftIXl7objdcBw+hYd8BWOlDTklD+sCBSOlT1Dn/bAd7FfSYUSH73HAerkT13hKkpOUgd9BAWDPTjRVlu6LF9t+hlJvuhaepDs0HSuCpqIbVZ4FPs8JjscGSnY3sgf1hz80G189O5GWQl+5shbO8BM6yQ/C4fbDk9kLm0MGwZ2cmskfB0+lyoankAFpLy7nEMpMmUZ+JFsVqh62gAOn9+8CalWFgX4wPHNDd5Ocncz7FOqiLmiGrASkEwZYYTuP7AGcLmg6UwHWoElaPDktqJlIGD4StsFfEQMmYBKoDzlYnXG5XkCOc6lOkpDi4T20Bi/HNXsDjREtZKVrLKuBzepHeKx8pAwZAI3kpRsbuXHJtwIAPcLeg+UA5mhucyCwqRkphHjRiwNG98NbVonHPXvjqG6FrdmQMHQZH7yJoNmug3lpMwhMic/kBwlSMHTlaWhC8gLce9WVforlqL3xeFxzZfZGaOxgff/oNvt61D62tTilbUSyMslr69euLc889F7l5uX6A8P6qlbho7lwU5xdEPXvQe0wXQ4yTJwt/izNde0RJsb8vzjvJxOQDXC1wf/ElWpauwraP1mHSrf+DjJOmw5LSQyVCKbWqoRotn23FrjcX49utO5EKG/r0GYRBF1+C9FOPhyWHzGBxDrcrbte9QHM93F/txP53l+CLFeuQoutw5PTCqDnzUHj+udAKcnsKvYgRKoXsc8FbUYbyJe9h+3urUTj+OEz80Q9h7ZMHtGNB7Aoxhb6DC8r4nGjetRN7nnsRFR99Al3X0KpZ0KRZkTdxCk687lqkDRsIEAlPd3Qi0jvZt+2Fr6UBTTs+x4E330L5pq3weHzIHzEOIy6/ApnTJkJLS0mg9UVpFR3uykP49NnnsPudJUjz6bBpGojs2qEDnoxeKD79TAy4cC4cg/oERhin9YDWDGUukAUhtKIjBTxyxkBYl4UONFShZfun2LP4PRzcuh1wupHVqxiDzp2DgrNmw9q7gOeULrJO7Nmzh+u1MBCRzJy98nrhmGOOQU6uoMr2AxSfzpUT2aphuIIAQsSx6kBzHTy7vsCexe9g/8YtcDe2oveAQRg2/zJknTgTWk6m+Fa7c8H5DSxksfABDYfRuu1j7Hl7GVx6Poac/z1kTx0BLU2D93Alalatxs5X30BL+SH4NBvGzr0Ufc6fA9uAYuiOAJ11rF0mC8K/n1uEEyYTQBjF8SnkWvA0lKKuZAe8zVWwpKQhs+hYfLW3Bm+/vwplZQeZXp0NDZK90+32YvToUfjRj36EAmktIAvCktUfYv7c802A0A17Vg9aEGjDdsFzsAyunTtQ/fx/0LJmE/Y0ODHrtVdhmzERsCVYiygBu5xo/XQd9t77APZu2oa8EWN4UVv27oez/2BMuvMepE4bC9hj/US6buZ0jxuNX+/EZw/ei4qNm1FY1Adp2Rlo3rMH9oLBGPOb3yPr1OPAhNmJ754cKFHkuoGaQ2hc8h52P74AZV+VoPf8qzD5zjuAwvSE943ysdFai/r1K/DFA4+i4atDyJ88GS1ZWWiy25AzdhwmXXQh7MUi0Cmx4M8LOBvg/vJT7Hn2Rez/aAtycvLRUl+H6qrD6H/BfIy94XqkD+4X3ZzdZUtNAQQfPNWV+Oa9JShZvwEpPh9SnC1I2bETTdu/gKffcAy99ib0u/xCWPrkxwYQ/CDSqIlF9gKBhFCAQOCAftryHlCRDhd8n65HyTMLse/DTbD26o3U9BS07N8Pe//hGPazm1Aw6yQgSxw2qOjXK6+8wjn5/fv35yDDxsZGbNu2FZMmT8Y5Z5/Np1NyHVB7FIhJ1TpDK5tGAwgijc8D/eudKHviXziw/CNoRb1hd1jRuns3imeeiX7XXIfUiSOhpcq4ii6bu5AXKYZLdyvcpfvg3LwRVS//B3vWbELeCRdgxG23IWPKMYDrMFrXfIgN/3waruoG5PXpA9ehMng9KRhx7a0onDMLWn6GrFMV++bSFiDYoLsb0HToS7RU7oJFdyKtcCAcvYZjxxcl2LevVJQg1yxcV0dw8WlcF4Ou+fMvQn6++E5NgNBdi0a8t4cAAuVSu+He8yUqFv8XX761FNrW7chrdsEx9gSMeXkB9GP6J3iTDgja19KIktdfxPJbfo2RYydh6i23QUvxoey5Z7B2xTqc98jzyJl7MpBmi9vk1tnp9LndaNy7G1+99gqsTi9GT58Ou8WJgy+/gM1LP8akP/wvBvz4coCQfuzfcGe7FfS8rnugNVbDufpDlP/jCdSs3cybdfF1P0fhTy4DMoX/MJGXTpaX6hI0Ln4ZB19ZjMxBU1F86RXwFveGJ80GS04GHNmZbEb1XwmTn4f7VvPys/h2wfNI7z8Wgy6+Ek7dg307tkMbOBjD5pyL9H7FCQQISotT9TMX3A318DbWQ3M1wVq6HxWLXkLpsnXIPf1cDLhOKDqk2GNfc0azt8yQUBYEo6+flLQjJQU28jmr+VBxLAT63I2oe/U57H30X7Bn9sagS65CWn4adr38PPZt34sRV9+CwVfOBwoyoGs6GuobsPDphejXvx9OPPFE5lOoOXwYd999N4OHW2+9FRMnTuSql+TWIIIokXKpiKLE6rDbHXA47IIHIXSd8KmXLKMNcC5bim13/i8yM/Ix7OqfwJFtx7cvPouDe6ox9IZfoGje2bDkdDdg9gEtjWj+/FN88+brqPloLVI+3YkULR1FP74JRTdcA8fQPExFeo0AACAASURBVPh278BX/+9vOPjZbgy/4GL0PnEaGj5Zi5X/fBKjL70RQ6/9MWwD89kFF08xsjYAwWZFS1056ks/h6W5XFAyFwyAI28YXN501OzZA19zAyypWcgcMBSW1HQGCJUVldi4cSPOOvss5OcLMGoChO7dRXsMIPhaG/HpA/fh8LtLkDugH9JqG+Dbvh/FZ8xH4f/+GuiTE/tm08Uy8jlbcHDDGnzx1vsYP20mCo+fCW/Fbhx4/B/4YPFKzPvHS8ibewIjf5VykyhdwsFgRNzS1AirJopSeXdtQ9kjj+DTFVsx+U/3oe8V83oGIPBJhU7q9XB+vB4HHn0CjUs/RB5RrE49BQN+9VtYT5wMOGRgVxfPW8TXcVCnG779X6H2X4+g7t1VyJl2JnDcidB690b2sUNhG9AXXIWkM/n1HR2PrxW+PTvw7YMPovaN9zFo5unwnTQL6D8A6QP6wz6wH6y9skRMjlKOiVpwjBOkK1B3AXXlqHrnXexf+AZS0wox8CdXI/OME4HsDig5A0gQ/AcutiAYAQLzDTCfQts1Q6BPczeg9N+PYd+Tz2HgjFkY8IOroWvN+OrJx7FryxcYfc3NGHr5RUBeGu8n9fX1eOnFlzF8+HCccurJrOBrDtfg97//PTZv3owbrr8BJ518EjIzM5GZkSmsCIrNUc4v/RtxPFCmRhtFqeI4NQ+0w2Wof/U1fPLgPzF01vkYfMN1gF6Pg88twOdvrsLwa36OgVddBksvcjN0dPFEe44+Sg+a9+/CR3+7H5b9JcjPyELWl1/AoeUi/0c3IP2Sc4GMZrSseB+rb/9fDJ1wIobceCMcw/uieuW7WPGH/8WY2Vdh+A0/g314b2E5jcPE1hYg2NBcXwZ3zR7odQfgdTfBktYLaYXH4OD+aux681XU7duDtP7H4sQbb0N2fyq1bUFlRRVWfLACs2afIQCCBuzeuxfvrVqJ+WYMQrSF0KHf9wxAICrV1iZ889or8JWVYsQJ01D3wSrsfPY9TL71j0i74jwgL5H+1mDZ6T4PPFQit6UFDkcKNE8rGt9djK0P/gO+7IGY+n/3I2PGKGi26FTTHZqVaA9xFLkXenM9nF/vQP3y5Wh5/yO4ho1G/+tvRtq44SLQLpFKRBbq0t0tcH3xGfY+/TTKN32KwQV5cH29F9q0k3HsH+4EhvYBSG6J7BxT9brh+nILyv76fzjwxjK4ivrCldMLWfn5GHLW2eh78aXQ+hYKX3WC5aa31sL18WocuP8fOPz+GliLilCRW4C04r4YevZ56Dv/Alj7FQeUUYLFJ2JKfICnEd4vN+PLvz+Gmm0lGHHFT1FwyTxovXM7FtgZBBB8nN4oItfFLxThEhMSBcUfKC1MfWpC/ar38e0TTyPdnYreJ50OT0Mddn+0Ct7BwzHkxz9BZWYqdpfsA6VQ1tbUYOvWrRzoduZZZzJAqK6uxi9+8QssXboUp55yKkaPHo0Rx47A5CmTWRERvbOfEVIHByZSn2wUoBhmrYjeuYFD+1H38qvY/Mi/Mez8izH42p/Bc2gPyv/1KL5ZuQ3H3HI7+v/oMljys7oRIJAgPWgu349P31yMvnl56JfXC2WPPwF4M1F8zY1IOXUyPLVfo+pfj2PXs8sw9Krr0fvaq2DJ0lDx7n+w8o/3YuwZEiCM7NMFAMEOr6cBWmsJGku/hLO5Eem9BsORPwxlX+9H7eeb0VJdDXthP4w6dy7S80XgNVkQPvhgBWbPnoX8AoMFwQQI0TRGh3/fYwABlEfd2sAmS9ogv7r3fnz5xibMffJF2E4cA6QkeqM2kqeoEG0KVqxB48YN+Orhf6Lms28w/Vd3IfOyC2ApyhYg2mgq7WbFog6P3KbXBfe+z7H/qSew543VGGEvRJ/bfw37+WcD6XGYeju8dIwPMmIBfF449+9DyTOLUL5mDfrNOB55GRn48qU3kXPS6Rh1151APp3k6P5uOzKFH1FrIypXL8OWv/wVzv2HMPD00+D1OOHe9ikcvfph1K9+j7STZwAZiQamPugNB9G6fDFKH3oCjTtLkTZhEprz89DwzddIy++D0bf9CuknHw8tPSVgQaBRdvN68wuSFbYHaKxA5SsvYc+Cl5AzbCKGXH8zUiaP7Zy1yq/rBWMhWRDUFR4gGFEFRTY2w/3peux75DHsX70ZSMtELw+QmdcbRTfdiJSzT8d/lryDyooK9OvfH60tLQwUjp95PEaOGskAgVwL77z9Nnbs2IHsnByON9i5cycmT5yEs886i4sQUVoj15YA5erbBQdCBJ4H0UMvB0/WvvEGNv/1IfQZNhJ9zzwT+re7Uff229hXWoOht9+DAT+5HJaCrPjmMu551+FzueB1NsGq6dB278X6W25D0YDRGHTbbbCP7Q/XN+ux6467oO/2YuCNtyHz4jOhuatR/eqzWH7fE5gw/2Ycc93VsA2mgM/4gnSCLQgyi0FvRuvhPWio2A17ei7S8oZhd3kLampb2WJlofrAVjt8Vit8Pi+yM9ORm5WGtR+tZoBQYAAI761eiflz5qI3ZTGo5RFBRmYWQ3wbfs8ABD4eyFOJrxXebz7BpjvvRun2Rsx76Q1Yx/RNsK9VCs2/94gTp95Yg+aNG7Hj8YVo3r4bw793Mfpe8xNoQ/pAt8kM5gQDBHFQ16H5nPAe2oWK/76Ofa8sg/3rQxj9uz8i4wcXAzmJzv4gcOCEp6IUFW++hUOvvovCiZPQ7+SZaFy7CQdXfYJel1yK/Gt+IOIPuH5v3LtcfCs76G4durMJdV9ux/5V65CekoUhJ58IHC5B5YLHUbJxO4ovuxkDrr0KeoEEfp1oLb5HvfDVHED9f1/Etw8/BZu1EMfeeDOsg4pQ8sxTqNiyA4N+dgt6XXwhLMW9gjFBokRI8RveJnh37cBXDz+Oui27MeKHP0Wv+fOAgmz5rXaiM7SmuSiSi1PZyILA2Jsom4mQiCwIQQHLCpC64f52Nw69+ALK314GX1ExHAP6wr7jK6Q2A8U/uw62c87Ac2+9iaLiIpx80kkMCOgnNTXV7yKgbAZ/IKKmoby8HL/+1a/gdbpww/XXY9SYsUhLS0NKaioXaLI7pHshUp6z2tu8LrTu+Bw7Hv47StZvgtVqR++GRmRXVqK1cAj63n4X8i85F1ou+djjvOIQtwiYJGuncMm4NmzE8lt/hWHTZ2PYb26DbVA2GjevwIZbfo/e2aMw7MZbkHb6ZOjlX6H84b/i62WfY/h1v0XvKy+AtZCsHfH5udq6GOzQ3Y2oLv0Kmq8VWUUD4LLm49Hn38aeg3XQLXZYdZ2PEC6fD43NzRg1qDfmnTEdn2/+GGfOPsMPEL6hLIZVIouhdy9DmqMJEOJcUOFv71GAQP5qzdMM14rF2Px/9yKl/3GY8Od7YB0k/EsJv/jDpv9zQW+qQcuGtfjq0adRs/UbjJx/FXr/5IewDO/bIxkCirSJYx7kiU5zN8J38FvUvrYYXzz0NEZc9lMU3Hgd0D8/sQd03Qe9+TAa13yAr+//J2wHqjH4nHOg52bCue4TOMvqkHLeBUi5eC5yxw0T4CrRAMHn4WA7uCjH3gbNrsG3dzuqH38IB1ZsQu73rsPQm38KFCUw9oX3WS+8h/ej9o0XUfHof5DVZzz63fFzaAUOVD5yHypWbUDBVTeh4LKLYelb2EMAwQU0VaBi8ZvY98RryC48FkNuug4pMycIdxG7PDr3waoaDMw34AsABGXOtxo4UQTBEGV+1KH0zdex97FnkePIw5Cf/gAZk45B+XPPo2zxB+g7Zz5yr7wMr6xfzRkLp552atiKf6JCY2C3qSg/iJtvvhmVB0rx02t+itETJiArO4etCxSbQECBrQfhhmw8ZHA8TjNqNqzBt2vWwl1Viewvd6Hx4y0omnEmev/PL2E7bjz0tLZ8L+TSEJwPEeQah7hVYSSNsirqytHw37ew89HXMPiceSj62RXQih2oW78UK266A8cMnoYRN16PlONHwb1tAz7+7e+Qmz4Ug2+5DWmnTIWWSRY2ZoGJeXsOAggjRsFus6K5vhpNdVXIys5ASmYvtOqpWLLhMxysbSYqTsYggoJL8FD0z8/CuKF98MmGdZg9KxggvCcBQh8TIMQ8J7He2KMAgfyaeksD6hY8hi0PP4GpP78LWZfNB3ql90wZVf64PfC5atDy8Xrs/r8HULtpB4Z/70oU/+RaWMYMBzLkx5zoDEzdB5+zGTX79qLii69Q0KcvCo8ZAjRVof7VN/D5P57B4PlXod9tt0Lvk9vZ/TrW9SPuIwKiilIceOFprL//UdganCgsLESO1YKs2kbUunTUj5yI4TfejIEXnwk4ujmtK7T35IM9XIGDn2+H1uRGvxGj4MhOh2vLBhx47HHUVDTh2Ft/h+xzTwOy0sTTcWzA8QnLcDcDBA/0hnI0LnsX5X9/GSmZAzDo9pugp3qw++8P4/CX32LkLb9B1tmzoOWFkCUloo/sOmoFyr7BV4/9C6WLP8Hw865Ev2uugGWwBPJdERNByRJE/uVygWiclQWBTvttsxhIe3iA5gpsf+xxHFjwGkZPOhGDfvpDoHcaSp9agJJ3V6L/nPnI++H38eqmtRgwYABOOfWUALFRkCk62C5dUVqGW265GZX7S/H9H3wfw8eMQVZuLgqLitArPx8pqSntky9JAH/4212o+uxz5GpW5PbpDUv9YdS99ja+eucDDLzw++j7kx/D178IXo49DZgiCRioH8qyoJ82VTHjmntFhOCEp3wXvrnvYbRub8CwK36MrLknAXlAw8blWHbDb3FM0WiMvO5qOEb2Qe17b+Ojhx7H2At/gkHXXwPr0H7QbYYS3jEu/DYWBKsNrU31fBgT8SUOuHwaPvt2Pw43N8Gjxub1IcueghH9+iM7LRV1NYfx4YcrMGtWcAyCCRBinIgO3NZzAIEViw++hhrs/+Od2Pnq2zjrmZdgPWmaiHJP1CZtFBpFu/ta0br/C1T+41EcePRZFKXnI/uKq+AcNRLN2VkomDQe+UOHQEtLsJ/f54W3uRrlHy7Hhvv/iSF9+mHg8TPgbG5AzYqP0FBagzG3/Ro5l14APSNczngHVkesj+g+eOsOo3rTOny78WPoza1Iq6uBY8cXaP1yDzDkGKTMmYc+Z56NnEkjBL9FXBtcrB2JcJ/uQv3u7dj+r3+jduNOjJlxPFL6FqHh009RtmYjCqafgtF/+B204QMBZraTV3f3kc1CdBKuRcu2j/H5fY+j8esDGHvBXDS6WlC6bBUy+w7F2N/+FvYpYwSwMl7d3T+B/gBXE7zbNmDHw/9E5Z46jLn25+h9wdlAtuEb6GxfKJzA4+XSyj6PB5qBy9zqsMsSz8T0J/tEcmupxq7nnsHuvy9Av8wiFJ1xGrx2oGzZUuiNXgy79kakzDkTj73yIhrq6zFq9Cg+eKSnp2PChAlsVSDF29LSjC2fbEZ5aSkoyqCxphYLFz4Ni8eHSy6/HMNGj0Z2Xi769O2LoqIiVmrtr18qDe3EwTUfYNtDjyO/FRg4aQL0pjp8vXIt7Hn9MOKa65F58vHwZaTApxnhgWH5aZpwiVitDGzIasFlteMGZIKtFnoLXLs+w/KbfoPsrMGYcPMvkDltDLQ0L1q+/gQ7/+9BOLfsx8CTjkdqfgY+X74cGjIw/tZfIu+s0wCZjkkn+3g+4FCAYLNRkKIgrCouKkZ2TjaaPV78Z+UH2FtdAY+mw0ceEZcbfbLzcPEpp6MoNw9VFRWcxTB79uygIEUGCHPORx8jk6LpYujkpike7xmAoAKTdC9c+/ZixS3/g/pdB3DR62/ANmpI4jboUBFSdoWrAaXL38W6m3+JtL1lyEzJQFPv3mhOS0VDTi5m33EHBs4+A1qCT8E6pVp5mtD89Q7seOwpHHjrfVhSU+G2aMjvVYyx8y5F8bzvQRvST7IUxm4C7PxK4t0dRBOsk4nY64Zv7zfY/8wifLNqEyb/6BrkX34ptLw8aJzimOAMC90D9+FylL/9Nr568jnU7NkHPT0NaRnZGDp9JvrP+R5yTz8RyExLaNCpkLtgePRUHcT+xe9g+8IX0VhWjvSMHAwcNhqD581D7tlnQCMq3EROqX9R+KA31uLb/7yMrU8sRP6QMZh888+ROWVswNXWWXAg26JaDGRB8FKgotojaJOyWrhQE6cV+msX+ABvCxq2b8W3/16I0vdXoZmAhdWBgt79MWz2WSiY9z1g2ECsWr8OLzz/PLZv346WlhYMHToUt/3P/+DkU05hgECZDff+7a9Y8u57zK5IFSUPlZdj2ICBuOzKKzFq/Hjk5uejX79+bBkj0qb2AQKlhTrRuu9rfPWvZ7Drtbdho+BIrxvpYydg9BU/QvEJJwL5OdCplkUU+ZE1IRgoWAM1KWL6eAVA8LnqUbFhFV77+e9xzOTTMfOXv0Dm8IHQrF74GqrRvOpD7HzoCRzcdwBNXjeyR47BhMt/gj6zToG1mPgPCJxEiQIM05+2AMHB8/zeO+9h8uRJ6D+gPzk/sO2bb1DT0kjOIwZNmteH7NQ0jB96DLLS0lFVWYkPln/gBwgkNo5BWPkhLpprAoSYlkKcN/U4QPAcPIgv330XmtuCUZfOh7VXMNVpnOPp3O1kTfW0oOazbfh68XvIkOlWPh8RlFrgzszG6HkXIOvYoaKdLtoYo3ZaEslQfQiNONR3fYPdS5aitaYGWmo6ioaNwsBTToNWmB/wCSesc2F67/PAW1WO6k0bcPhgDYaeeBrsw4ZA4zKvCZSb6hqfnjzwVB5Cxbq1KPn0U0qiQXafARh24qlIHTIYyEjttB896jxGuIG5Iygr5dBBlKxdj7IdO5CblY8BE6Yhe+I4IC/bT8ebqCUX6KoPemsjDn38MQ5+uhMFQ49Fn6nTYc3PC7ihu6pTTLcs6jHosh4DqyNNZg44QjIHKHjS1YymndtRtn4D6qgOgyUVfUeNR8HUybD0LQYcDg5AXLt2LTZ/shkVVRU4VH4IV37/Spx11lkMEGoOV+O3v/ktlr/zLkYeeyzyi0VKaXF+PsZPnIi+Awciv7AIffv2RV5eXjBpU7g5lS4GT2sTmr78GntXrYGz/BBcsKD/8SehYMoUWLMCgYnRAIJqgt0OFgvXpuBqmdEKYvnXP8nQB5+rBbW7vsDXq9ehYOBoDDxuBhy5IuiQmUarD+Lw6tXY/+U3aGr1YsjxJ6F4+nTY8ijLouOgPjSLgSwITmcrXnzuBY7pyM7NYXn7ZBE6JQ+y5lC/LASQNCvqG+o51fGi+RehsFAwKSqAwEGKpgWho1tQxOd6BiDI7tDk80bgbIWm26CR6S7heegG2UjzJZ2E4aLiLLLeGtm7YIFOxESUasaEOl0+F5FfaDhNsXnP44Le2grd44JmsQP2VGhUt6K7Od1jHrKgwNVdraBYZIstDVBlemN+RxfeqA49Pg90VzOIrpr2Q83igCW1h/smq/px5D5ZiUg50rxyICWtNbuomCjXWyKXnZgBkb7Kc+nxQbM5oNnpBG34BrqwU1zR0ZDuKPMVWJE7HA6mPA/44+VviemQ+uf1QoMVmi0FcFDlR87H41FQLQUCCpSh8Pp/XsPkKVNwxqwzBECorsYdt9+OLR+txdy5c3Hs2DGw2qxw2B1ITU9HZk4OCgoLUVhYxAotHGmTf7XKjAyv18MMjLSXaFS+2uPjQwZS0qExK6RSfPRFC+WrAncpaNL40+ZLYJBgZZDgL2AV6XPxH/hpHn3QPSQnHzQtBZpcW5zgwPPsFlZAjxfw2aARB0yKUd4d+ybDAQQq7/zZts/QSPTJmghHVIWrxK4rjBUsBykbj9eL1JRUTJw4AekZ6WxkYibFlTKLwQQIHZugdp5SAMGi++DQyMhqUWVNoOlGSrOubjqogEjgWMmLIX4rVtf0LlLKotqlVDe7cEOMueNGmSggw9tfj2mO9rvOJW4N6VCdjHKPWU5hT3SBoxTR7bLEWONyKBx0Opl1qoHOP8yS8mfRyIVmnPMe7aD0YUdyfndh32jLoaqOVJeBzP3+T0+j8BALAwRKfQziIDCcPDmDNgJ7ESmew4cP45G//535EEaOHAmrpqGloRFvvPE6ag5VYN5FF7FLITUthWMVMrKykJ2bh9zcPGRlZQVqQoSOWYF4n4+tIPTjIwsHZWpRn3TK7BdOXSZe0ohwSSh4f0SxeicDBDAfA1E80w9vxWqcnDSi+UGMhQIHjWMOOx9+v65c9yH7BtNDy4RIKUNek10wt06PG08+vwjHT56KcVTN0W7n8ZArh8AKlwuXbfm3YOOeK0NPaIw0bsFJITpGFoRl0sVQXGBWc+z8ThT8BjX9Vt3HBJpZaZQmLO7pPoBgVMRK6ar1mwwAIdxHEQk8dPWMHDXvCzfJPTQ4wylKnU4C9nGVJd4FO2EHh2c85LV5hQFjdfD1XfdYgoA7WRFYyXoIJJACCbilGCTY7AETu2F0SlRhByzdhU6XCx8sX45FixZhx/bt8Mjy0tWHD6NfYRGuuPwKjJ88CemZmexOIMY+ymBITU0LbtO4XKQyIy4HysQQdNHUC6H8BAcBuQdIqVuYgZGCDUV2QoTAEnl69lEgt9fLAZxE+UwpoGqcJAsuhc3uhpDA30jLuZ19rM067KJPwunxCIAwZSrGjhjJdSz8U6oOiiFt+Q+JCsuHTqoUAlkQCCBcSC4GWeGxvQVPj7W6dDS7dHh0Db5OuE667sNK7jfR1DBAsABZqT0MEHr8KJfcc3WE9a7dLbsHxqKOJcp60ANdiKfJBCnkeLqUqHsVSHATSAgplESKkU6R5Mu2RuUjCO4xqdeWphasXr0KWzdvQWNdHTMpOt0uZGdmYfToMejbvx9ycnJQVFzMrgUyZzOLYjhlopaUrjMw4PgJRRXNAEGoQgIE1GdW5pyNINegMGLJI1kI2pFalDgiCCCQm4RcFwQSlIJVIIHYHYNiErpIuXfFfBNA+Pfzz2LmlKkYM2IkHOQm6ooXSwvCcgkQyIIQ7QoABJ8ACJEAWrQXfYd+T5wUBBCo/l9GQiwI3yHhmkM1JWBKoGMSaA8ksImd0v8IKFAKYKSAPeOJmSL5vT5Rwrm1FS3NzWisq0dtbS2aWpq5DgSd6lPT0pCXm4uCggImRyJfP8f3hLvo/azAKeZAuEUCF9vq+XRvJasHmcbjrISo3kUggfrNIIHqVUiQQL/3AyaKu/Dbfzsm8+54qtXjwd8XPAl4vCjq1SvARdHRxiQAo3GXHTzIgOxHl1+BogQChK4COB0VQUefC7XrxvIeAgg2CRDSTYAQi8jMe0wJmBJIhAQiggRpnCJ/Pil1m02ABHHIDzAQ8gGdgAH58SU48Pv2dR0upxMtTc1oaW1h5UvvIlplijfIyMzkwEhWupGMThwz7A4DDoR0CMTQ6Z6AjD+4soPahUCCkIebQYIxRIxdLw4HiHEyrKUjEZMVoQ2Pz4cNn25FVUUlZyREBFux9FFgLh47vavF6USfwiJMHj8e6WmS5Kyd99Cycbq8aHHpcLMFQXDuxKM4NV0QeR2Jl3DXWeIarwIIKRYNqakEzMXIuy8G4UiUrNlnUwKmBHpEAoGYBAr8I44Bf4Szvz8MDoieWAayqcJKvPmz5UAE/Km/80YpswUo3oH8+yoAjngOmHdBxgr4tUEYrUDPUtZFsOVAKjAVVGk82ased1DDMEggdwOBBArilKdpei0XkSJA05OZYBFWiFv2lbsrx95RD5oCCKopK8ViWCiuI/rypDZdLi+cbi+7GCgzLZ6UNLFuVAB29PaS8g7NGhHgsMcsTDwIuRgIIFD4CLn1GIh3axZDUkrO7JQpAVMCySgBBgkUqOf1CGVsMLGH7a8hM0WBgXD3sYKlPHu2QlBcA5EQGbIC2lE6AWKnQIlqBUD4hEUR93Y7R+2L2g2Gl8WgzMKOS6ZRikyJ4PgMpqWWVoROndITtADaiZfs1h54PT54OPiVAEL88UjheS+7tctd+vJoOVsCRgcuut8KHyUQQ7PosJC7jcC4zxftK+zSfpsvMyVgSsCUQEQJCD+8j6mY2SKgUv8Mp2jjw+p0HakwmGIoJPM/cRsIF0VshED0bkrFpLgD6pcWoQ+KAZHAB6c0qliGjgIEOUCyIpDlwmhF8AMStiJ0soGjeR22NUDFN9ojXbRR/CltAALhAYGypZwkb4cJEOJbN+bdpgRMCXSvBJg4x0s1U0SwIccTSL6EyMjCsCMaCiFxkCMHOsp0w0gZBWFeTDn8lLFAcQuCe6GdiwIqZeaFiEUgMoTOyYkzG1wipdKY5UHjsaem8JjMy5RARyQQDj+04WghjOD1euOJ3ehIX8xnTAmYEjAlEL8E/IyFBBIMZEIy5iDUesBBbcRDIEGBoi3uSNAcl6am2ANiSvQJIiS6lEWCz1oyvkH9t7GeAtMkM0FS/MP2P0FESkwo5QoQKcmMBkdqKqx2EyB0QrrmozFIwAQIMQjJvMWUgCmBHpKAouKlIEQKHKP4RaGRxd8l06hyMRA7NJMTSStCh3ptKEtNMQhGDza9l+MNLBZW2kQNzNYNotFW8Qcq3sFO8Q6GzIZYO6OObAQQPKJuhTFAkuMQ2IKQ4JLqsfbfvO+okYAJEI6aqTQHYkrgKJdAiK2TT/AqPl2lPgrE0KmLrAdU04FO7uxaMAQeknWCggQJhFB8hM8rKZclVbIKiORuUIVKRRsda9ElBj+B7pObw+10sptFXSZA6NT0mg/HIQHN4/GYLoY4BGbeakrAlMDRLQGKgHc5W7mOgBFrsPWAS1IbihvJ9EqRfSHTLA11IxTBEVFHiyyHGGUnd2XidSAeB4qDCAYIposhRkmat3VCAiZA6ITwzEdNCZgSOLokQIkKFBhISpndBmp4lM7oJ0QKKb5EvAUcUElpmsRdoOoziIc588Aq2CD9wZLtWTpCLAjUF9PFkOB11tPH5liBZDeLRXO73T0tim4eovl6UwKmBEwJxCYBci+4glzZ+QAAIABJREFUVClqQ1qjYjGkmIKwaYwcUCmokonO2Uflsw1BjMS64KdLJibEaC4HuSszg6Os/aCCMoWLwbQgxDajnbirJzWjCRA6MXHmo6YETAmYEugGCXjdXjhd4sRurDbIRZg49sBAhmTcxJVLQFI+k0uAfjg9UaZIcrAjMQKyJULwMoTlb1DvosqRBFYMlMsEEiiuwZ6SAioBbV7dJIGeBAftWZe6abiRXmtaEBIscLM5UwKmBJJUAjJ7QaUVGlMb28QeRHEREDDgstBM+BScCUGPEjigksjscojAH0z8B0TUJECG7qdcpgwG6o+/7kOSitPs1pEvAc3lcvU0VjrypWiOwJSAKYEjXwLEfUAmfY9gTuR6ELIYE9Vu4LRCdcVgAibFLuijPVxbQecaE/IFlApJ1gRJ/UzVII0BjOzqkCRNwrVAAIGqOmpISUkV1Sdj6MORPynmCHpSAiZA6Enpm22bEjAl0PMSMGQMkPWAuA2IHElddMp3kEm/I8RHOkQAI1kT3NLlYBixIlcKrQZJGRTk6uD0RqYNFtzBdF9KSgoX0zEBQs8vnaO9B5rT6TQtCEf7LJvjMyVgSqB9CZD+9Qq3gCqzrIIChc9fVlDsoBw5gJGKL/njEgIuA7+VggiYpJWC3Asuj3AvcD8ojoGtBymglMkuqcNgoN3v4LDMx45yCZgA4SifYHN4pgRMCUSRgLDgQ6cMBDrpSwuCYkfsNEDwBx2KktRkFSAAYCzjrEACuR3o8pLVgVwU0i1BFgQKlCSAQCmTMdV5CHf0k8xSyv3hz4zg8r4aLERFGX/xQ3OJHaUSMAHCUTqx5rBMCZgSiFECCiBQYKHB799lAIG64adPJopoaU0IKcJEt5GSlhEHgUeokqRFYwbHmAmXjOBA1rRgUCB/aGzGAlBUr4LiIChLgyteUqnfaKmYMYrXvO3IlYDW2tpquhiO3Pkze25KwJRAV0hA8hgwQDCc7lXtBVsXl1emapVeTyAuIdSawCBBBSFS7AGnWdo5RTKm7IUQq4WyXChQENqeAif+YlQyHVMQO5nRkF2xxI7Ed5gA4UicNbPPpgRMCXSdBAzKNBQgUCOUMcC8AxQY2BWXgeeAshy4pLWKTZDGBr5FExUjyexP1gMCCTHRNRssIhTzoGIqjBaDcMPwgwZKu5RZFhSYabOJktkmUOiKyT+y3qG1tLSYFoQja87M3poSMCXQHRLg1EI3PIq5ULZBCtLuoOqJnSzfHNpnA7kSl3UmlwPFP8j7lAWBYw8cEqDEeJj3uUU8hao0Sa8MZzUICxToH6XVQFXFJNcGASUTJHTHwkved5oAIXnnxuyZKQFTAomSgCwrHSivrNIcdfbJO4jUyGEPJjWKUVmHHULIsYyUN7k2qOgT0TRTnAJddHInQiWq48DKOUqb9BilSBLI8Xo9sp6EeEjUvhQXKX6rhd4prSKSiMmfNcE3BUInrBYLp1jaKINCuRw6M/5EzavZTqckoDU3N5sWhE6J0HzYlIApgaNFAmTyJ7Ikrp4oCYpobHSKdzhSuIRzQMt27agpFZJdDgQQJA8DZSz4zfvtKWSVnUDVH12Uqun2Ez0Ze6mAAVlDyH3gZ3GUAIk5G6S7w1hLgsACAQqyIlhNkNC1E5/EbzMBQhJPjtk1UwKmBBIrAVLSXEdBUhwz+yFb3C0cJChKPUuQ0B0naCJW0iX3gWxXI+0cLfVQKnhyK9APET0Fd48sBoK5kQGHTGsMlS6DAgYJlI7pEURN6mIuBgvXgiDA5M9y6A45JHbazdYiSMAECObSMCVgSsCUgEECPo9PmvsFV4Hy3fMJmkCCOkEnk2Ik14LbA5ebXAtCqVP3VKqmlcpN0+nfahNWg2iuCmlJ4DgGac0wVpPkmAQCCZHYJZNJNubq7rAEtKamJtPF0GHxmQ+aEjAlcLRJgDkCKMjP5RJMhpLmmM3sHNVv55N4l7AZdpHwmAWSXSPhCZgojiFi9cgIfVCWBHqnik0grwvhC64jQYCJMiuI/TEUEJgAoYtmtmdfYwKEnpW/2bopAVMCySYBRbvMdRlEoJ/xIpDApnqVdtjGTm/4h+5UlIZusfWAylQbakhQL5TVgwGNsWpkuH6FOSqKuAh6N4EEKjglxiaMEJosXU2AiTI8Ql7anWNPtjVzlPZHa2xsNC0IR+nkmsMyJWBKoIMSoFgAqsTodnFmgREkcOqfRZOVGCU3gbEZ447aXUoyZNd2O10i9sAAZogdkcmVKG4iGjiI1H/6d12mf8rYBgEQBOOjIlZSoImpotWYu2vsHZxS87H4JWAChPhlZj5hSsCUwNEuAUk2RKdmMt2TX9+ofOnXVHqZ3A3k21c1FCKKpSuVZZgjnbOlVWReGC5KjbQ7hGsh6IrWlzDvp6BFl1NaKIj6mQCCCHIQFgWLoGgmlwNbK2JIyTzal9DRML72AYJaKNEW1NEgCXMMpgRMCZgSUBIwKEkiGwoqbmSws3MNA6tMGQzlB+gKS4JMXwyamDAcCuRioH4Kba2Jkz3VVeBsBcq6EA+J18W/oRM48reh6+IdmsYuGOZskMEJBBIoy6GnQUI0s3j8EvhufhpaQ0NDWFk2NTZh9+7djJBVqo/Itul50SrCj2ToS1zLpgflF6BRjW0OxR4Y7TOLa/RtTjHG+eP2IgRXx8oA14neJN+jca4VfyBd8o3k6OgRKUgCCtLdINauPD1LZWmxioJHQkGzpg6MXf5nZ76ooJ3XCGB8Pg5O9NHJXgIEDiIk4KJSMlVP/ORHqo/iF5G+MX+bROREJE5eLzTVjq6jT79+SM/KNIAPYU0QMRqi/Z5gXwwnZ2kU4r4SZOp5TZY8n0YkW0BYgECL5YsdX+AXv/oFB7nw4pHSTAalHMQIdqRNc0+sytCvJVofOrOLxbPmVT/aO2klqi/x9DtR90abJ2M/vstySsh8iHRHCtoLOtQbAxjlyd3v7w8FCR3sZ7QDER3gCBwYAT3t06So2wCV0D6E+wbD9lOOXVkLKABS1/GrX/4aU2ZM57aCQIaFwJKFS1MnlKJZfgceCq6kuWI/iBik+kTYPRTPt9XBeTuiHpOkYOQ2s1qFludA1Pr6+rZbiw5s+vhjzJ49C7POmIWx48aKyY9X0XSjhGpra7Fj+w7MnDlTFDAx9M0IILqxCxFf3dDQgJ07dmL8hPFIS01Tdj2ZmNwTPQq02dTUhL379qK4qBhFRUVtTw499OHQkmxtbUVJaSmfUo499tggatielRr49FRaUoKWlhbuG5fDDY3a7upOxqH0D+w/gKbmJgwZOgSpKanJITtdEAyVlZehob4Bvfv0RlZWlpBSD62zwEFamKvqa+vx7bffoqh3EX8P/iuC7P36lJQPpUD6FabYdQKPKXOYeIIUkrIuxDJ2Wltujxtf7PwCxb17o6iwKChJgNsmJUikSn5wINrkIEoIF0PoGvVXiJQDVQe+9vZMvkeWh6a26PS9eeNG7Nm3Dw888CBOm3UGAwRjnAa1w1kONisXmuqyQlfRvjE5AS63LtwfPg0+WOAz0EZHe0VSLNDYOtlld7GUdB/sVpovC6/XiACBFsEnn2zG7DNn4S/3/AUXzb9IdCRJAAL5A2lDfOGFF/Gb3/w6cYsvhumgDeNQ+SG8/PLL+MEPf4C8vDy5H8oNI45NP4bm4r6l/OBBfPjhh5g0cRJGjRrZ9vke3LjrauvwySefwOVy4Zxzz4l7bN35AIGXTRs3oeZwDebMncPm21g2+k71KY618tFHa1BZWYlZs85Adk52p5rtyodJSWzZsgXlZeWYMHEC+vXrl1T7b1lpGVatWo1x48byQSgaQAj8PmBREG4HVbvBsE2yog5cFAtAJzQiF4pqdteA5qZmvP7665g0aRJGjx4tnuEUTGI59LHSDqJDZuAl2uS4CCrV3FWph5TVwXEOPlg1DU8++ijeWb4Md99zD049/TR2RVMWBdFEC8AiQCD9O8ck0CEuEXuLDIdwuX1wESOmT4MXFFBpgR4ki2gfVyI625VfWufepek+WHUvUqxWpKbQ+owCEDZ/shmzzpyFRx95FFf+4MrOtd7FTxNA2Lt3L57895P4y1/+EmxB6OF5pQ+2tKQUCxY8jRtvugG9evXq/pNmLPKVdtGSkhK88867mHn88Rg3blxgsw73vSRYljU1NVi3Zh1aXa246CIJSmMZWwLuIcvB6tWrUV1VjUsvvVQAhNArwfJSzdOGvGzZMlRUVDB4yc3J7XklbFhP69avQ8mBUsyYMR2DBg9KwGzF2IQOHDhwAO+//z4mTZ6MKVMmiwej6Q7D6+kkr0o2MwdBCGeCsSf0WqY7ZkbDMLwBxps1gCyRzz/3PGYcNwPjx41nMEBghCs0ciaBtAOHDJfuoxgAf3ZFZ0CClAWN0+MklkYf7JoFj9x/H15Z/F/88c9/wmmnn87VJsmC4KEfD3FHCMBE1gNiXUxYVoM0dDvdPrS6vfDodDamw5nUeFJWcUxxjIvpCL9N98Kq+5BmsTBAoFAaxnh1dXVhXQybN2/BrNln4B8EEL5/RVKNngHCnr148smn8Je/3JN0FoSSklI8vWABbrzpRuT3yk8Mco5xhkpLS/HO2+9g5vEzxYmph5RauO7S6XztmrVwupwBq1WM4+ru21pbWhkgVFVV4dLLIgCE7u5EhPf7AUJlBebOnYucnJwe6kn4ZtetXQcCpqToBg1KIoAAsCVyyZIlmDJlCiYrgBCn9FSRJTrZc7YD/Rh89f7X8YmaFLedT/jRvr3GxkY8u+hZltuY0WNAbInBbg3ewoUpmNIOJThhH7u/+qKtrcM93m9eWg9cThe3zwDhwQfw6luLcacECAQE6CKXBwEm5bKgGLYgboQ4ZRv37RIgtLp1tBBltk+kY4pMjsAV7A6Ku5Wj7gGLdDGkaRpSU2nO2gEItNC2bN6avADB68OePXvw1FNP4Z577hEsXklykexoM3z6qadx481JCBBKSvHOO+/geLIgjJcWhCSRHQGENWvWsIvB79ZKkr6RBeGj1R+hsqoSl116WXKtOZ+OpcuWorKiUlgQcqUFIUlkt37dev4mppMFIckAwv79+/H+kvcZHBBI6PDFAXFkQJCxAT5yAwS4E+h3zJtAZaNjLN3c2NCIRYsWYfr06Rg9apSoq2CItBPAQLgt6KLTPZ/cpcWAwAjxIARVoFQDjAYSjMdGn84cCJTmSBcBhIcefACvvbUYdxFAOO00OFJS/IAnlFSqwzLtyIMEZgD4AQKPg0BUACCY4KCtYBVASAGQnka8HhIg1NbWhrW2kIth9pmz8cjfH8GV308yF4MfICzAPff8Obk2ax3sYlAWhF75vTqyzLvtGbIgvPvOuwwQgnyu3dZi7C8mFwNbEJxJaEFobcXqVUlqQdB1LF0qAMLc85PPgrB+/Xr+JkjRDRw0MPYFkYA7yYJALgYCCJMnSxdDZ9uVlRX5tM/vUlusiOyPpVgSPUUA4ZlnFmHatGkYM2pUkMFBpTHS4YgzCKgWA8UAGKov0r+Tm8FfXMo4rlgBguQ/4KJNXh9jD5vFioceeACvv7UYd//5TziVAYKwIPT4pSwIHh3Nbh1e/ruMuDN0znQxBM+UAggODchIjQIQhAVhCwOEvz/8d3z/B98PROL3+AoQFKhkQViwYAH+9Oc/sdmuxy/lqwPFIJRx32666UYkHUAItSDI2IQelx/AAYBr1qxlTvmksiDo4AwLv4uBYhCSzGqV1ABh3XoQME1GgKAsCJ1xMXTXt0OZH88884wECKNBpEzqIjeFMcZAAQSP2x3oDpElaWS1MBAXxQIS/FYKHR63hytbqmJNBG7sFgsefOBBBgi0/yYNQJD9ZguCR0cLZTJEAAjdNWdH6nsVQLBrQKYJELphGk2A0GmhHpYxCCZAiE+UBOhNgBCfzNTdRwJAmDp1KsaOHiNz02WBJKqxYAx0pABGr4/dcxzEqCiQCSTIeARlbfBLKpIVgW3wOrweD1slOKbA8D6bhVwMCiD8GaeedioHI/b41R5AiMTC1uOdTo4ORAQINTU1EV0MZ551JlsQ2MWQRCdNQrN7du/BwqcX4u4/3x0+ojzRcvcDBPBpacFTSWpBMF0MHVoZZEGgGISqyipcctklybHm5EiCAcL5yEmiNEfq4ob1G9jFMG36tO+Gi6FDK6ztQ5TFsOiZZzBligQIMoWR/P1kPWhTPVEnvg5S6i4R0BgWJMg6CdRcOIAgHfQEDoyWgyCAYLXhwYcexBuL/yssCKcmF0CgIZgWhPgWoZ8HIdSCEA4gKBcDAYSHHyIXgwQIkRZVfH3p9N1GgHDXn+4yXQxxSJQ26qAgxSQCfsnuYmCAUFWFSy69JIldDMkHECgGoaykLCkBwv79B7CUYhAmT+5wFkMcn19st8pvklwMzzJAmIKxY8b606UjAgQ6+PvEyZ+plyVIUFwIZEngH0nBzGRf8mQtiPQo0NLHwY70jtDS0dx5TWNrwQMP3o/X33gzKQGC0cUQKQYhton47twlkkF9IDtQkIvh8OHDES0IZ519FgMETnMMxNn0uNQYIOyRFoQ/JacF4WniQbjxhuSLQUh6C8I6jkG48KILe3ydGTvgtyAogBCOB6GHekyAftnSZaiorJRpjslDlHQkWBCWvr8Uk6ZM6rogxS5aB431ZEFYhKlTpmDMmDGs3GmuSUFTXEEkvmDFl0AWAG8INwOzLBp/KGhS1mJQpEvGP0OHQu1SZsR999/HJE5/+tOfcMqppySVi8FoQWCSJP4xr/YkQC4Gyv+ICSAoC4IACA8HXAzJYkGgIMW9AiDcdXcSWhBKy5D0AOG44zF2/Nikch1RDMK6tRSk6EougCCDFD/6SFoQLkk+C0IyA4RktiB0SxZDZ3VRkAVhkbQgCIBAlzGmoI2bQbmdyJLgJTeBocpjmH4ZmRajFUUT5EuCFfHe+zoJEFSmRzg2SKln2L6hwEwsxRPCxCCIc3G0lI3OTtiR/7wJELp7Do1BiqVlWLjgadyQzBYEEyDEviJMgBC7rMLcaQKEMEKJ4UhLMQjPPtMWINDbSFkThXFYjgM/SBCkRRSX4OdkMDA9xlNLxNgePXfvvfcGLAinxGdBYAuHlwilFLGUoIwOd5EbhIIx+YcAksrkiBQ/wefgQAyCCRBi+3QjAoTq6uqwM7Plky046xxhQbjiyiRzMXgF1bKyICRbylkpAYSnn8YNNySni+G9d9/DcccdJ3gQkikGgXkQTBdDbJ904C7lYqBaDHOYSTHJXAwbDEGKA5OMB+FAiT8GYdLkSfGKvuP3h+66TLQkGBhVPAAxKb7wwvP+GITQ0s2c6miztQsS6PsmdkMCCF6iaTbUSoh2riYeBRW3IEo3B9gf75MWhLvvvhunxAoQyKrB1NRertkgqKkjl5pWwiVAQuBAxU7Qn2Gpmw2B4ipI0XQxxLZECSCQrcUuYxCodAYbcsIBBNpwtm7eygDhoQfJxZB8AIFcDM88/QzuvOtOEdGbJJeqxbBw4cKkBQhMlJSEFgSmWl67Ds5kq8WgAy2tLSAXA9ViuCRJXQxJCxAoi6FUZjEkG0DYX4KlS6kWQwJjEAzggP39dJpmpWmgUgbQ1NyMl196CVOnTWWq5VCAwIrTZmPFSWZ/UuhtLg4wEEqYKaDJouD1EGrw140Id3qnEzsrZA5oFERDfoInHYgZIPhdCRT4KOpIKE6FeLdsEluAIMoGqy24voIKNDAtCPFKFlTvMhggyCrZWlVVVUQLwtnnns0A4YorL0+uIEVlQVi4EHfddVeSRZQDZaWlIIBw/Q3Xc7GmZLpoo05mCwLx9hOTYrIGKVZXV+PiSy5OujTH5cuWo0JSLZsWhNi/uAMHSrBs6VIGCFQ1MWEX7bryRE0ZA/TDVMqypgL9SfTeL730EqZMFVkMHKTI2j7QS/bRE8+BjRSmIYWRj39tR8OARJaqFtzQ8nXKxC9TKemd/MN8zvI9/lrXAiC88cYbIAvCyaecHBykaARAlBFBoCAEGESLd2hvHqhPDBRozHbBJMmXaUHo8PKNCyAoC4IACA8lpYuBLQgLn8GddyahBaG0DM8kM0B45z0cd3wSuhg4SJEsCEkGEKQFYc1Ha0SaY9JaEKq4FkPSAYRktCBI19qB/SVYtmwpg4OEuRhIKfvEiZriA4LM/uxjF51raW3lsvFMlDR2LLMiqgyDUE0gAhcVSFD24Qj6QqY0qt8aT4gBTGEABtIK4DfrSwsCAQQ6oIVzMSjLCI9PgoNI2ovpp2UQoj8ugoGLiE0IJWoKcj0YGSXlL0wLQvw4ofMAIf42u+0JplqWACH5LAg6KAbBBAjxTz+5GEyAEL/cAjEIJkCIWXo9BBDUCZ6UpsowCA0DonvIxN/qbMVLL72M6dOnYdy48TLNMVBeOvQULgL6qPYCuR0sEdMgjaftuOSlPBiRAILfwiDKUns8FPcQ4FNQyl9ZSoJ4GaTTm3kZ5MUAwadcI+FdE/ROBYxE1UgCUSJIsdmjS8N5tGiLmKVw1N4YESBUVlaGdzFs3oJzzj2HObc5SDGJLgIIFKRIPOUUg8CUo0ly0eIkFwP17brrr0tKF8OSd5dgxvEz+FSSbEGK69auZx6EeRfOS5IZFd0gHgRlQUhWFwPHIMyZg+wkDFJUREkDBg5IqnktoSDFBLoYaO9ik7v0x4cqeRWIR0GBzS3NePG5FzD9uBkMEMQ+RwpTh9ftZutDm+ela4DN71TIqb2o/3hmwohidOD++8nF8CZbEE4++eSgYk0c5+AShaP85amZY0nFMZCLQICZQGXLCErcUPiKLC0i0DLAEklDIGBks1lhs8nKlRrQ6qJyzzooSJG86zEkjcQjjaPu3rgAArsYtmxlgPDA/Q8kZzXHvXuYRIRcDMmYxWBaEOL/htiCsI6yGFzJBRBkmiOVoiYXw8UXX5x0a45iEJIWIKzfgLLSMkydPhUDkyVIUSo8P0BIhItBBys4t8cNnZWnUFtKeZGy5NOwrLHQ1NSEF557jstkjxs/IXAQoswEclFEAAkcUKhcDhRkSKWOw8QvxvWFhgAEikF48803ef/1EyXJfnFVSSoNHZK6yLEDMmVRZUgwfjEUoYrYJ8mXwJYXskxQoKUxFoNBguBpoNRPBRA8Jg9CTNMcESBUVFREtCCce965DBCS0oKwb6+IQUhGC0KZcDGYFoSY1qb/Jir3zBYEtxPz5iWnBYGyGOZfMj/JrFY6li//AFUVlThvznlJZ0HYuGGjyGKYNg3JaEFYtmwZJk6a2P1Biv5aCW62ICgFqhQn8RrwYUcqzCZKc3z+BUybMQ3jx5OLIdhSSqdzrrZIlgQKPAyOXpSESjbYrJQK2YVmdrYg3O8HCCpIUfcRAPLARbUgPF6/9UIFOlotVn/WhYo5iG+HEHTQZEFxhxSlIs8EpUJaSYZ2G5weDS1un2lBiFHAcQEEZUEggHD/ffebFoQYhcynAV3EIFCRFQYIeb3CF0WJ451deStt1OxiOG5G8vEgkAVhvXQxJBNAIAuCU7gYGCBcPD9JLQhVmJPEAIHS9ZLGgiA/KmJSJIDQrUGKKrrep3ONBDphU2qjuihewG53tMlCIB6E559/gWMQCCCEc6Wyj15XQMEtXQ7Ck084g0AFgQ5Oh1TR/p3FCmEAgt1m98ccqDRKdilI1wITHcmUzA6DAyUwslR4vVyUiiwyxstCMRh2BzywoMXjg0fX4IvFQtGVm+wR+C4TICRo0oIAwnUyBqGzH2QX9j2pAUJNDdavW89ZDMlpQViL6qoqEyDEuR6VBcEECD64XSJ2wGh+JwVud6SIwELDFQQQJoQHCOp2n8fHrgtlTdBkyiT76IkvgUmVKCZBZgx0Zk8yAoS77sRJJ50Msg6wwpauEwUM1J9Uv6FNGiZ3Ls7FpHwynN3gleWtA2ALsPJYfRYrWrw6vCZAiEnAEQHCoUOHIroYyFxJFoSkcjFIP9fefXuxaOEi/PGuPyaZuRcoKxMWhGuvuzbpLAjkC16yZAlmzJiBMWPHJF2Q4vp1GzhI8YJ5F8S0sBN1EwcprjEAhKQKjNXxwfIPOAbhvPOS0MWwcaOIQZg6NelcDAcOHOBCV93OgyBTGym+hk+9Bv+8KoAUerIWTIpkQZguXAwhACJo7SvGRJk6yRYK6bdnJU3xDZIrgdIludBTR5SzVNB+F8Ndd+LEE0/kqpCclUHsiPR6XQATP0Ch+ABpQWjDqxDvR6w0FrlsXC5hkfHL0wLNKgCCk2TCFEBB4QrxtvaduD8ugKBcDEkNEFQWQxIGKdJmSAGUDBCIKKmjH2I3LE2yILy/5P0kBgjkYnAlN0CYn4QuhuXLUVVZldQAgQh/vtsuBh+vbQ7gM1wCINjbMCEaAcK48eNiOggptkRqg07zCiRQcxQgyCCBGRKjpEFG2ntkVsEDDzzgj0E44YQT+G6yXqjy0RoBBMM7FOsjBWGqdMQO74uGIy1bEZwutiYI7EKpjlZ4NSs8mgVeTQAE82pfAhEBwsGDB8NaEIhq+by5woJw+RWXJ498DRYERZSUXFkMR4YF4bgZx2H02NFJZUGorakFFfYhJsVktCCsXbOWsxjmJyFASGoLggxSTEYXA2UxqBgEClTstksyJwoLQnB6Iilte4ojGCBogB8gTIvBgmDoOJMLeYiIyc3WCmMqZKASZAcDFyVAePDBBxkg/OH3d2DmCScIEieyHrDJIPyR3Z/FIEFKhwMnjRpLBwcsUmlr5piABToBBAiA4GP2SdOCEG1dxwUQSNDbtmwLBgihbB7RWuyO38uZpqAcIkoKSnM0wkTJI90dXYj2TpIdWxAWLcK11yanBWHJe0u4FkNSAoR169Hqak3KGIQggMCpaNFWQ2J+T2tu+XKR5kguhpycnMQ0HGMrQTEIA2SxpiSRnQIInMUwcVL3zKnct2ieCByQMmNTvLzoZO9IcfAJ33+FAIRYLQjyGC0ZCA1kTAaXBrWlbu/dAAAgAElEQVRDFguLkSehnblUAEORGNHfFUC4/Xe/wwkzT4DNauUxGd0KTFpk4Czw/07SJPsJneJdCyFHWrKWuJzOAECAhYMUCSDoFit06keMa/W7eltEgFBeXh7RgjDn/Dn421//hssvv4IrjQVdPShxqgT27bff4rnnnsMf/vAHYdZKhksTWQzl5eXct6uvvppdDIRrqY/8jZJ/LrS/kbrflTKWoIniI95fshQzZkzHmDFjgj5qvwi7st325iVk3DW1tdi0YSOcLhe+973z/XniPTa1AdZbpr2lAMqamsO44IILOCgrma4PV37IAOGcc85BVnaWODIlah7DCULOLSmFTZs2oaSkBFOnTcPAAQP8yrEnv1sWjQaUHDiAFStWYOLESZg4cYIk4REZAF3dP1EwKZhBkbuhaVy6mczvohaD6BtZEJhqedpUfy0G0e2QD8f4V79/XtIUUyqkJxiQ0PMWSaTENMehUf4h6yaQPqliCoCHHnoQby1+C7/97W8DAEHqCMqcIMBAAIRIkzhGwG9dkO+wCE4ErkgZL9gO6R+7GVqdYu7IggALvLDALQECxVtIyolk+mSTqi9xAQSjBYFyl4855hhhpupqK0KkDSyKvqe+0Meze/duTJw4Mf6NsJvxRHNzM3bv2o1jjz0WKSkpYiF0pM2u3ODlhkcV4kpLSlBYVIi83LyIddgTvno1sH+2oqKCP/RBAwd1X986MBfkz604VMEZFoMHDQ4vnnjfG21+o71PPk8bPIFSqjjZv39/OOwOeZCM1kA3z7IMVKusqkRTYxMKCguQmZEp5jXa2Lq5a2ovIzKi8rJy9MrPR74E893atMzjb0OTzAWISHXL064mfPp79uxFQUEB8vJy5TYSEJyfujgcEjQABbK4KlIm/9ioLcpokKmIQWNub27knH7++ecMSP/y53s4SJGsAXSIpP4T0LHZ7BznwKyPVIzKSz+SAZHfL4IkCWiL+wU4iniFA0HyZuKUcLa2+i0IFJjo0YUFARxrYTEBQpRFHTdA+OzTz3DrrbciKyuLK3WpU7BqR1isem4D4hrnHi8j70Rf7S5kLtIm+hZ10Se645KngfKU6cMMLR9r7E7oBpaIrooTlrBUJRN9tljpsmgMdCaeSbaLrGqkBJi6NsnyvhU1btjTag8Lks3+Xi9/C+19D13bTVlFkX3mwfsosR4KYiGhEQkkGIsZCdXaVpGG24/VXdwKJzUEkykp6mO2WkQYYBD5kqGr5Cahvv3ql79iAiz+XnWd+0rxFGQd4HHIMQoGREHq5KMUTMM4OC6CuBqssoZEpPUbGFCgt8ROyRYEEyB0Zo1GBAhlZWVt14YO1NXV4Ysvvmi74YSbpM707Eh8NlEySIZT1pE4P2afTQkktQSE+V/3ij+NF1sRZNGhoF+E7gXqsRj3IjLxG6sikuLnQwKdsNsBlJEOCnRqJ8U8ZPBgZOfk+F0y7DIguuPQNEoZXE6pkMTXQEd645BUCWd6lvgSwlqYIgEEYm8MiUGg7AW3RvEHIltDGcCTeln0YOeMACEr1cZZsGzkCQsQ5EnTGEjTg303m+4pCXTWQNRZgBPafmff11Ny7Kl2OzN/pqzjn7V45M0nXyqF7AsqPkTZAJSVRYyAfl6ELpgLUuhE0qT4FxggMOsgtUMgIWS47bh/RTEmF7sPjI+J4EeHrCURxq1q4GqgwEKVmhgMkCyBd8gS0P7fhwEIZDVja4Yhi4G5DzRyMVj5TzNIMfpSjggQSktLY1vWsd0VvSdH+h1d8LEe6SLosf53dQxMjw3EbPg7LwFJF0yuSGNVRj64yaJGgSh/uenEu/cY9mxSoJQOyKWWpVpXFM+cPSFPjLHMC7NBynepWA4uu2wzWA/oRRH6y3UjZPAigYT/3957QElxpWmiX6Qt772h8B6EhCSQhBHCg0AgCSQhi1pqq1abeW9memZ6x705O292dnZ7u3t6Wt60HMJLCI+whfcU3lPem/QmYs9/IyIrq6iiMqsyIwP1DZ06hSDixh/fdd/9bWefFOaXQD4J5OjINBHdfzhpRliYI2WnVPIgkJOiCCNzUqSESXzr6rlX5ZqXIshg30GDEDJB6Pkd/A6OAEeAI8ARCAUBFmUi+9yotvnA6V5JkyzXLzC3m3nD2MSDd0UyBcjll4MSNEmyn4/ZGpTiOQQCQps5JSYiwhF8O9vUmfYgyGTRXXtB306OiyI5MYqdaiqwlNAGuY4E+TOodSSCsWVho3JNBlXbLZMDOReCl/7M8iCE8GGh9Nl3+B5OEL7Dncs/jSPAEbhLEVCc7FiaYn/HBEr0RSxkkFIUk9mhK1NAT59NiYRIBe+hREJBoepEEEwmln8hsPmGsI+SWYESmdGmHnw7Oe6SeYFKLd9mEugsY9CRnvliKFUpg0s4q86R5LQpF5sy3/b9svaAkkH5ApUs1URJkmBiqZbJB4HFVoTwbT1B+V3+924JQnl5OdfAfJd7PprfdqeRwydkNJHnbX+XEGDmBqrIKJ/yVcdA1X+RRVgYaaM0sc0ynCgVpj2gtMvkGBg0X+XcCxZWGjnQXghzlswDLso54PerAZmsJ8i8wAhCsN/AnTQInfqPNAAsPbSSZTI4eoJIgpomuj2ZlBx9wso+ByWdomJNlONBMpjg9ErwswiNPtSd+C6Nszt8iz4IQmfPWz2BH7zZhTBRYiE6M8HrCUM9EoQ7+SnE3OlREU7PvhSdZYs5Zu0zjdnPg4+CwalZYjln+zonmcpdLmHMzA1kClDYgRq+SI52LBzQKJOEO4aMKgnbGOlQQgvBshzKnUttktqewtdl/4OOPg53Gp6k0qd8JTJBaL+IbJionkRw/4RBEKilYJLAcjcoGMi5GuToDqZNUcwNgW8LYj6CIJs6KNWyw+NntRg4Qeh5t+qWINy6dSu6GgTWupIYhTRcyg5HqqDA+InR5JY/XHHaCSSC0gHbVBY+GSCmJws4/Kh/pQuzWmDksOwpCpryYIxRl7LwKZazQ43TUSDscopoLWSHmaYsw114ZscOPAWlgCq6C6O31pipIimbgDz+OzntqakHYySbPPCpiqGCF0sERbt0mBNB8fKX6yhQZUTZgU9dQtlBmIgCqd1ZwSUjq4HQuQokyyfil4kGmQRk0SikkoiHbNunVMt06qckQurEDYh7Bxy7IwhENqjMckgE4Q77FWkoGFEgvwTSJrD53M5hZGJEPxQFQiSiY4595ihpMcMjCowgUBSDGLR+9rxV/nneIZe06sJJURuCoOxx5IjibAHsLohxSRCSkrp2PtGkj2jYiZD8XgitbUCbUxbSGgekpwIWORud5ot1YBOh7Gd+wG6D1NIKg2gATBYgJQVIileIVixXRDVPFg0sHyQ6VTTbIRgtMCQnA5agk4km/amSKQmS1w3J1grB7obgl5PAkC1SssZBSE6EId5626kp6iIGkym/B5KdxpwD8BsgxSVASEuGoCb9CscZLVKC02bS1gq02WCgynhsaFE6aTpbGID4BBhSkyFZSCUdqZeG2o6S4Ef0MfnQ4oDgl+Q5mpoCJCj9qb1gyt7qhyDRXLVDarND8AKwxkNKSQKsFhaHH47mT/XypxMyC4VU8wQT7gr3UJMcUf8E++9JkpL0SPLB4HNDtDvg8wgQ4qwwxJuZ6t1kMcLk98BgswNuEtYIpKRBSkro0R8hIhqEnrpdMbkEZ2Ds2LVdsWqa0kqYpckItx8KQaA0y12EcfYkw5/Zv8eOINAmTKPa74NQVwdX6X7s3LgF9z73ErIfngBDnLIRa90hNKG9NvjKb6B847c4s/cQzEYT8ov7YdTSZ2AcMQywmMMK/+n7JyjaApLN74C/uhI1u/bjyMatsEgCktIyMXreYqQ99jAQT7JpvlIHfSIrcC+Tg7Zm1B88gpMbdyB9wAiMe/opGHPTqeiEhhfLdQhB9MF24yourluPqsOn2cLsgQCnICB72Cg8/NxzSBhYJJ+ctIIviPTB74av4iZubtqCq3sPQvRJyBkxBkMXP4mE4YMAkwKaln0rSfC2NOLk6jW4sn0n4iSJUQOamSSNZE1E4cRJGDh/NqyFue28WTP8yNPODrHyJq5t3obrh07C63QjJSsHQ+fNQ9ZDE4HkRLYRa37RXBVdQF0Nrm/ZgUulh+BudWDokJEomTcPljEjgHhreNpS1eRAyY1EP/PUV8MBg0/Tqo+CPFQUfagkD22T1wnDzWu4sG03ahvcGDpjFjLGDoUxyQKj6ILr1GkcX7kOrZXVMAkmjHn8SWRPnwpjRhpg7F6LSmYLtSJlr00MPXWS+v0sRTT5Ziilq3sIWGR+EGZylBTg8gF2j5/lQOAEoSfAaZ53o0G4efNmlE0MXsDeDLGyEuWfrERz6UHUOHyY9L/+N+LuGwXBpHXRG0WR5vfAd/kkbrz3Ea7vP4mMtCyYjAbYa2uAoSMx5me/ROKYYfIKqdm6oxAE0QtXxQVc//hz3Nx9GOmCGXGJCfA0NMNQNARD3vgRku4fBZg0E+z2EcZWJx/TCDkOHcLld/6EiovXkD17Icb//E0IGYka4iaHjEEQAY8NrSeO4PzbH8B+5joy+g+A02KFzWRGythxGPfM0zDnEHmJdCmeniahCEYObl3BjTXrUbltH1IpFMtpR7PLj5zHF2HoS8tgLchWcNOybyV462txacM3qN63H3F+P6w+P6xVlXBVVMKdUYCiZ5ah8OkFMOVmatuvbO/zQ7xShvI1K1G+oxQWIQ5Wswm25mYYBw7FoBeXI/OhB4B4DVNgs6lK5kk/xIobqFq9Gje27oZBMiDBALQ2t6Jo+jwUPLMU5oFF8joXapcGr8hK7QbVP0FNW32bqZ8taxIE0QPJ1gxcuYzyFWtx9chxJI59BCNffgWpYwfDYHLDXXYMJ979BP7r1UhOTIKruQnm9HwMePkVpEyZCEMyaSi7Hs8BgkA+CEFZICNlYlBUMu0vV/NFkMkk4MB4u3ikUbFYrIEsjEQQuImhpzWp/d9jQxCIXTfXwblnF46tWAuh7AIy2pywDxiC+/7rvyAMzI/ZKVh02dGwbT2O/P3/j4KMAgx5+UUIFgnVG77GqbIrmPqP/xMpjz0CQ3yoszr0zuj+TpkgiD437NfKcP3DFRDsHvR/4EGYksxo3LIZZ45ewIg3/xLFT88DzDH0lyDtgacN7tPHUP3ux2jbcxjGjHxkPr8cOcueApIsoS+IkYCO+WqIkFpq0LbjG9Ss/BoJqQOQtXAR/JmZ8JtNMKSnIj4/m5k/5Gp9dGnRv7I5C621aNuyATc/XAFjfDZK5s6H1+9C+anTEEsGYeCSp5BQTCf0IBuDJuLJZhl3fS28jY0wej0wNNbD9s0m1O46iLhxDyFv+StIuG8UEKdo1SLSZ103onqwC0xdLgE+F5w7vsKt9z4EnCbkzXkccWmJuLF1MyrL6zF42XIULZoPpHW/sUVUXGUDl4iQ+hxw7d+Pc//nPxHnN6Fo/nxYEoy4tfUbNDX50f+VHyBr+iQYEskMEoYUHUiCUguE2eYpxTGZHSh4r/0y0nyU3JCqK3B9yzbU7zuIxLJz8Ng8SF/yEoq/9wriB+ZCqr6Kinffwo1dR1E0ZRayHxgH29njOL5uEwY/8QJKnlkCU1G6rEXo4iLzRyAxURBBIOdJcg5kqZtVZ4ZwvrfzuzqTJOZXQTkPvPAr385mieL3oRaIIn8MUZAtJ0QQuAYhtDHXLUG4ceNGlDQIEiSPE9c/+gjVG75BUpwZ1mYbDLV2pDwyHTm/+iWQlxrepAntW0O6S3S7UL9vBy58/CVGPDwVmTOmQXI0ofazj7Bnw27M+Of/jbQZj0CI68soD0mU224ixxu/oxWe6noYBSMsyUlA/Q3UffonHNxyCON+/ncyQaADk/biyepMnxv+KxfQ8OlnqFv3DVJcXpjufQg5r/8IxofvBazd5FPvHSQhPEXD2A+x+gZaV34M27elyLpvNuImPwYpOwtCRgqQlgzJTE5aITQX6VskD6Sqq7j13vto2bgHAx9+DAmPzoCYlQqP0QApKwNxuTkwxCnVP7XiLup3MiddUpd7AHsTvEeOovzDlXC1elDw7PNImfkohIxkDcebvMswT3avDXUrPkHFZ6uQO/pB5D35LAxxwNUv/oTrx85jyNKXUbx4HpAWp418gRXTD7TWoW3jZpx86330e3Ayil94EYLRjZq1n+P89iMY8Oz3UPTUfBjSIqNRU2s4ME0C/UhyqmZB8sFTX46j738M8cI1ZPlFJN68DlNcOtKXvYKkRXNgSBPgPrIfB//1N8jLG4h+LyyHdUgRWg7vQul//B6Dpz2FAS8sg7l/9h21kxSO2B5eKC9A5CxJjo+sjoIaVhjhtYkV1vJR+WiPXD6amVPIB4N8D6j+gzyxiSC4vICLOymGvIqpBIHMiknBtRiiSRBEtxM3PvkUvqtXUDT1QXhPlOHWxoMoeeoFJD23EEjXiPF3yYT98DU3wVVbh4T0dBgsJrgP7MHlP/wB1c0CJv7rfyBpwiiNTQwkqHo8oQWbNmIP0FAD96EDqPx0BXw5g1Dw4nIkjh8p+5BpeMkVPcmfxAuxqgL1X32N8s3bURRnhfNWBXDvRJT89GfA4GLlEKylhoMWSy98Vy6i7o9/QPXmnfBkFsCRlomU/HwMnzkLSVMmA2lJcvEWLUVjm1wbfOeOovKtD9Gy7QBMOfmoTc9AYmERBs2YhbSpk2USwy7VE03DzlUqVsLvhFRxGVc//Az1+8rQf+Z8ZD+1EMai3Hb/iKiL1X5mkS1Zdjj3bEPVR18gKSUf2bPmwtfWgqsbN8BjTUfJ8y8idcJYIC4MNX5fviEQVuCDVFeB1q++xokPP8fAeYtQ/NwySC3VqF3xJ1zceQz9X/w+Cp5eCENGUuRchtjSoIQ6BSo0+uGsuo5zX6xCVnI6crKz0LJuLSDFIeO5l2CddB/8jnI0ffklTn+8FkMWvoD8l5+HMc2M5p2bsf/ff4cBExdi4IvLYBlaIGsnuzl9yLUY5GqOwaGnJqMcYhhI6BRhgsBmhpJ9UqJID6rCSbUrKJqDmXDkF/oVDYKTaxBCHuUxIAh0ICFWWwfBZYPJIuLW+x/jwsbDePQf/w2Wh0ZrN6G7gkmZZMz72NMG3+WLqPxkBc5t+Rb3Pvs6Mpc9A2NBhsZOiipBkMukQvTBV3EFVatW4MamvSixJCHnpddgmT0NAotk0FKDoFae80FqbEDtho24tPZrFI4YhazcbFzbuBUJ4x/EkF/+AlJ6okwkND2qi4DXhZajh3HxN7+D98JVZAwfCQ/88FRXIW7gcAx77Ucw3zMcEjnGakUQ2GYiQrLXwbNvO2rf+wyuM9dhLe4Pe3Ii2hobEDdgMIZ+7weIu3cMYKU0sbL6IArr6x0WDHJSkgBnM5q2bMKNj1fCml6MkpeWI+H+MUCcxhohRU0tKQ67uHIOVR9+jsr9xyFYExBHxXkMZmQ/8yKynpgPQyZFRGmIGNufvYCtDq0bNuLkWx+h5N77UTx3LrzXr6B67VqUX6/DgJ/8BXKXEkFIjChBuL0jRdCBzNXQALPZBGNNJU79878iNbc/Cl/7Piwji+C5fgLXfvM7eC60oeTF7yF5wQwIaEXzN2ux7w8fYsjM5zHghWdhKsmGcCf/Jjq3sNoOXll7oWzMcvIlc8fkS6qgkewaZk1sr4TJIjqC+p4ThJB5QeDGbgnC9evXo2RiUM9C5JzlglR1Caf//Xe4erIKC377R5hGFGp+Au4QmKyeArx2eC+fwc3PVuHajgMYPmkO8l9YBuPwEvnEFMmBHUq/KTHdbH0U6aR+GU1rV6N8/Q6YnMDAn/wS8Qtnty/YWsnHTiw+SPZGtOwrxdXPViM9Nx+F06bCc/oiqnaWInPuAmS88qzsf6CegkP55ojcI0Fy2dFWVoaa7XuQaLAg86H7Idoa0LpuJZqv1yDn6deRtngOwAiMlpcfUmslnNs3oPK9FZA88Sh+cgkM+Rko3/AVmm9UYdDLryNl1mMQMpPlPA6aqjgUJ0+yYVddw9UPPkZT6Rn0f/wpZCxeCCEnXVuuF+DJNOY8QFMd6sgfYs0GFt4Yl5kOoaIa1vh0ZLz0KuJmTNHe54WtHxRtZIf7xHFc/MO7qL9yE4akZGTY25BWW48WSxpy3/x/kLVoNoRI+0d0XrUpXEdd03x2iGdOYt+v/wX5oyei5Iffh7k4Fc6zB3D0H/4NmeYiDHjlVcRNvg9ovIGmzz/A6TU7MWDZj1Gw5AkYclJ6JDNqRUc6xQfSPjCVv1KNsSvn80hOutu+v135KvsgSCANghiIYojky7VcO7R5l5yQWoIZUkcTQ9QIQgdHHid8h3fhzH++D9FahHG//jWM/ZTTuTbf3666ZVsD2a/IwcgG7+XzuPXFSlzYUooxk+cib+kzMI0aACnOrPEmogxw9eTEnJJFSJ5WiDcvoeXrTbjyxUaUPPkisl9cBiFfY/8NWgU8NthOHcKltz+AuaYZQ2fPhiknE7Y9B+G4UY/0uYthnPsojIUZzDQTTkrYvg4DOZTWD9HhhK/VJpeyTUmAVHkZLZ+9h8q9J5Aw9RmUvP4ihKzk9uRd0e5lRvj8EFvK0bJxHeo/2IDEnOHIf+N7ELKsaPz4XdTuP46MJ19C1hOPw5Cb0REKLdY1dWNxN6Jt3zbc+mANLKYsFC1/BdaJ9wIWSmqmhSBB05TtdjRH21C3YwdufbwKiU4B+QvnI25Uf9Rv3IjGg6eQN3MBMp9cCKEgSw5z1ELMwOYkh4ZJthY0lO5D+c49EBobkFZbB+/la4gfNQGZr/0A1onjICRG22k3iCDYauHauR3nfr8CeY/ORc5LS2HMsaD1RCn2/rd/Q//CezD45ZdhuW8Q/JdP4tx//zdYvEkoXP4DJEx+AEJyCL4cQVqE9oyHsuLTSBkPyR8hOEujrBSL7hXYc8gHQQpyUqRxEQvHo/bPDQ5JZTm0onosDx/mdoJAPgiUgEtxJbl27Vp0RFVbZaFndjhWr8DZtz7B0KWvI2Xpopj6H9BJmJyx/NfPofLjT3F9SymGPDgN2c88B+OYYZCUyRzt8Xx7N0qQfF74WprhbWmDOT4OZnJusjfCsWkbLv7Xp8ievhCFP3wdyNPSYUypPNdYg6qvV+HY2x/A2upGanY2rEYBic02uD0S6vsPR/EzyzDoqZmAWWvtiwi/yw43mbTcEqzpWTBYjfBfOIGa999D3dVa9H/px0id+xiQEqewMa162AfJVg3Hru2oe38jrGn9kP/mciBBRMV776LpzBX0e/H7zBEQ1N+qF3j487z3T0heoPEmbnz+Gao2HEC/ibOQ//xSCAPyAEMsBKJPoTDaJlz57HOUr9iAgUPHoei5pyEUpaLqyxWo2rIXBZNnI/fZJRBKCrQP+5VEeFub4K2thdHhgCh5IbQ1wbtjLy5+swP5sxYh/6UXIfTPk+dDVC91d/RBrL+O2j99gpajNSiY9xSS5zwEpIqwndiPXb/+HxiUNwyDyBlxeAHch/Zh72/+iMETZ6LoxRdhJP8hSnIWwhWoH+FTSjYHZTwkcmAym+VUzuoV7emmQgDA5ZM1CJJB2frU7JshfFckbwmkyg5KG02OlZwgUGfRj8HPGHbN7/6AC2s2YtK//DuMj9yvvU0zWG0peuCrr2Kq+4v/9REKxXgUvvQqDPePgzslCab8XFgy0yCZgtJBR3LUdNcWOeA4WlC9dzcOvvsJRgwdiuEzpsDrbEPVlp24cvAExn3vTaQ/vRBIifaJpJOQFFnR1IDGA3tQsf8QzE43Ep1OCBXlcN2sgpSRD8OkmcicNQOZD45sP81Fe1FgYsrmj9brF3Dm08/gvlyF+x+dhoSiXDSdOI5rm7cjYcBwjPjZz2EY2l82HTG9qBbHGhKPMk02w3PyOC69/Rm8TQ6MWboYbr8H59euh8+YiHt/+ktY7hsJWIJi+TXBTsHP54B06Qwuf/AJas/VYPCSF5D7+EwgVQ3P0+h0rg471j9y5tXLn36G8k9WY0BBfxTPmQEpHrj+zUbUXavCgCUvInfxQiAnTeNESaSF9KLm4H6c+OgzFJsTMPihcZCcbbj0zQ4IbitKXnkVidMnMULanrcgWp2qOi264Ll5Fsf+5X8izlCAIc8vR+L9Q4B4L1yXTuHif/wWpio7+s+cCUt2Ms58vQnuWg+GvrIcabOnQiAn3vYY4DuveoFKlF4lkZN8u/qtrHYE+SSwyIZOVzRgUAgC6XWIILi8FOYYQ4KgpM6m0FRmNlTqadyxjoYW+0wX74iZBkGCH97qCpT+/b+g+fw1LPjjWzAMK5EHkpZORUEEQfQ4UFO6G4f/6b/Dcq0cKeZ4OHLz4E6Igzs5EQ/94MfIm/wwBEqTGo2B3NUgUJ3ZvA7Yzp7B+f96D/VHT8CSmswqksXFpWDApMeQt2A+TENL2suqaiYfxcp74Lc1w2t3wEDRFVXlqFn/Fa6VnsDIJ5YgdeFCGPOzYUygE3rHcP6oj3sK86qrRPWmTbi5+ms4auuB+HgYzVb0GzQCeRTF8OgkSHRCVzIERl2mwAtopXDDX1OJqtVf4eq6jXBRrgGjCVnZheg3ex7SZ02HkNdudutcbiC6spJzYiuqtmxE2YcrkJhRjNGvvork8aM7niY1G2vK15L20e+C7cRx3PrwU9QdOQGvyQSfQUBqYjKKHngY2QufgHXk0NiE1UoeOK5cwJVPV6Bmx14YfV54ISE5vxiD5z2JzOnTIORnASx1BDstRU3PLp/HJBi8djSfPITN//Q/UDDkAdz7/deRNJj8vcjMVYu2bdtw8aMvYW9ohs8owJqUgUHzlyJn/nSYCim8MTTtQTuPkyCxSpRytkM5qqF9tMrlmk3M3BAoKx2ttaEDQRDh8ooxIwgEATlS+kWqpumFqBQaY5U5DVS+OryqnNGd/3ImRdkHoZOJ4erVq9ExMQRS9YvwVFbi8sYtQLMDI3d5hNkAACAASURBVJaTDTiV+QBQ0Q1NL6YplSB6Xag9fgRXVq1DZlwCIBrgMRgh+gV4DRYMefZJpFHaWy0JjGIHJkIlOeywnS7DrZ3fsloMbhiRMWQUiidNgjE/F1K8Jazc7hHBWLVTq5XXRR/Eumo0HTqIlqomFE2cBOvwIXJ6avXSakNh75NDQmmsNRzYj4bz5+D1+hCXlY+SBx9B/NAh7HQkUc4BzQkCSScyguW5cQPVu3aj/vIVJKRlIm/UWKTfey+EHNpINJ4PQQRGctlQe2A/ao+VIXPAMORMnHB71kQt+1OZq4QbHHbYTxxH3eHDsDU1wSeYkD1gCHLGPwhL/37ttRgiMtBDbEQl9B4n2s6eQe2e/fDUNcItArn3T5Dxy8qQzR4dCjFEB0S1ZJHgtqP14llc3L0fGSUjUPzIRFjSFJ8b0Qd/dQXqd+9C66UbcLQ5kXHf/ciZPAnW3Ozejz8WVaCWq1YKTCm7ilozgn7Tpki+QbcdDCMFSWcTAyMIcp1CqlGh6cUwkatzMuJEURcCbSlEEORiWR0Ik6bC3f6yAEEQgCRrkA9C1AkCxem6PPDYbBB8EqxZ6TJLVUqPxgQX0Q+vwwZPUwtMlFyDZWxTfksGWHLSYIyzaG8KVtK3kvpbcrnhbWmieCKIMMKUmARTchIEYyd1nfbjXsaF5Whww+doY8TKEp+saFw0VkUHjjKyn4Tkd8Nvb4Xf6WSTUjAnwJycymRTnSa1PZ3LAjInSpYPwQtfWxt8TicMJgvMCYkwJMSHfXKL6LxRQmq9tlb4XB6Y4xJgSki6XSatxlrgyKL+QYLktMNna4XoozO6Eaa4RJiSkgEzhV9qJZiCumo+Za+l8EIHc4yVyGseAszJKTAlJig1DYJvjiIBVEtfSz7ZF8fhhsmSAHNCQkDbyMY9nWZtLfA7PRC9EkwpyTBSIjajXCGxV5d6cqdy1UGahOC2VKLATtCsEqW8UTINbcBfrVdvb38ohhqEztBR+CdhEaihofogGORKnBSKSgQhaqfzMKHsliBcuXIl6jIGHT7bzb69HYxhfvidb1cLDikum+rOEcV53KP4HXoj6H96PXt7fGPvblBOUPLDCn7qH3vXYt+eUgcZI56qR7cqUKcOjdnYCzriBHBTPjtmMnVgWBrbhe7Q5YyFquRKIaS37STKDbHGTvU4YzJ3I4xmMpIQpE+gF7aXcg4MNzY9Asd7hbzKFLZPUUfq0FbSQQfqJnTyxmMwUN4Co1KymqnciZx0Aqg3eMVQgxC8wpAYpDXwuj2sEmcHk4uS9dFIKamVnurbwheZp2NKEAKfELz59WYARAaL7luJFJPtq5xBi2Nfm9LkeT3g1p0MXdFfPY49TTrqLnnJncaTDvrztmWs8190llHz8dZpAQnGM1pzNeibWfpnv1o3QolwUIiCGhLJSALzQyONgkwSSP1O5gdGFjolPwp55JK7D3NSDPJBYBri6HaCShDUTI9k3lS1B/Q99Peq06bZZGSmD5mWtV8yeWr//2Au11n8gNUqZGDufKM+CEKEPoY3wxHgCHAEOAI6RkCUmGOeyIpLyT/yjtiJPQUdr2VeIGsWyLGRFX4Kd1+/jSAYITKFYrgNhYctK4tOGgFWUIqKafkDu79qTacskyaTiREgfyBFdkeFjhxAQqngoytv569rJwgSkqym9jwIly9f7oqTh4cOv5sjwBHgCHAEOAKdEVDLVStEgTbQ2y46YVPxJUWjIOdQIILQi9oainWR5UEIRDFoQxBEvyRXm/T5OnwiEQT6FjIrqKYUIk+s8BYjUsq3k9aEhULSbwMzw8ialY6aBsWIGtGxphIE8rxL5AQhotjyxjgCHAGOAEfgDgiotRNUjYJahVJO0yyr4FmkA5EDOmXT5qjY6cMCVtEguH0inB4REkWnyR4WYTVzx5uDkh6p97FKk14fC2kMmFGUfySCwJw0AyYF+UzebkLoaGhQa0tQOCQVoTKyipUdHRojSRJkF32qCCqxGl0dCMKlS5e4BiFyQ4e3xBHgCHAEOALdIcBOznJYJJkdAidpIgh00jYZYTL20rygvJMFC/nlREl+EEEIThQuUwW1GGZ3YhruYOQPflb1JCCnTBbBIfrZ22Qy0MutlUWzyeYW5rdgoqgPCj3s6Gzdy9YDnyzn5pAv2UtDhNkgIM5iglFJliVwgsDnMkeAI8AR4AhoigCd9MmsoEYeKDZ5Ndtgr5LoBbVF0QM+yrPFzsbtiVPlTbFnL3B147+TT6z6b6QNocqWPr9PrlEXUCt0g2i7KuG2G4hUBBMQMjfIPhmkSaDkSqpfRh/DyZmcRAqCSALlaaDYF6MBJqWuCScIms4K/jKOAEeAI8ARCCAQHP3ANqw+bnzUsJp1WvnNgj7DbDaUKAFmaWDppn3w+ihqQU1XpQR+d7BqyKxAgBKpQTkgOlyyPwJzXmSYiLKpgvkvyNkXTWr+CGPP5pJQtAsd4yg6tqnmCBQuXrwYSlt8RHMEOAIcAY4AR+CuQyBQdiVY8jvtsaHuiKQF8YvMMZE0FqqjpfoaOVxT9j+g0z9t9KoGIJD3QZFDJgMSfH6RaVbkEEm5JVbHwSAw04uZRXeEyXZC6LHOn6zCwwlCCODxWzgCHAGOAEfgzwiBnkgCRRb45JBGilqQnS2VDZ38KZSMieQ7QJu7QYlQkBlDkJUjmKiw4k4SIx0+qurr87M26f/JF4FCPy1UIZOKzWl0CRcuXOgJCo1E4a/hCHAEOAIcAY5ALxBgB3B5K+uV/0I4r2ROlhKLWCBywHwpmBlDCNRXMJhMsnMhs+X3bBLo8HrKYu/zySGTFBZK5MMggPIo0I+qmQhH5N7eywlCb5Hjz3EEOAIcAY5AbBFgzo5yLgFS8aubNDuxR6nYHvMVoJBG0hwo5EAFgTQGfQrTpIZUAqJoEegdpEGwWCwdc0OEyTt601GcIPQGNf4MR4AjwBHgCMQWAXIQVGo/UHgh6fnlolCUjZFU8lEoqayc7n0eb5c+ByazWX6vWoiqNwgpzo+qLwJpEdT8EB0qDGtBEM6fP89NDL3pRP4MR4AjwBHgCMQGAfWU7ZdP8qqanyUqZk6BMkGgjTVimgTFKdFDTok+X8fUS2qSJzUDJLM59AEaFsAgZ31Sk0h1+I6enCz78u4gsYVz585xgtCHfuSPcgQ4AhwBjoC2CDA1v1LjgX7T/wdvyEQSSNVPP73KyNjF59BGTfkOyDeAtBUG5YWqWYPeRaQk4HMQoU06hLQNTFo1LFIVPRK+CpwgaDuu+ds4AhwBjgBHoI8IqOGFjBx0KgClnrhpwyanvj4TBMUBkt7l8VAJZ5ElFFLzM6oRBgHTQmCH7uNHhvE4+WHIREl2mGS1H6ieAzlI9iHogROEMDqB38oR4AhwBDgCsUfA72vfrEkaNa8AK4Ck+CKYTWa56FNf/AHY0VzO+kjkQI0qIP9HCkkkZ0ij0QTyPbiNiERKg9AV3MEJpqgOBIVGUtQDpXpWzB0sAyNlX1SyIvam14SzZ89yE0NvkOPPcAQ4AhwBjkBMEBB9IjxeZcNWJFCLPhFBIFJgtVhllT9jEL0UU3GEZH4OXsp30L5dUr0E2oRJS0G/O1y9fV8oYgbv2Cx3ApED8sWQTR/sYymxEpk8WBXJXlTFVDHlBCGUHuH3cAQ4AhwBjoBeECATA53mVQfFQA4EJedAwLygpjTu5YYtl3D2gDQWLEpCyWxIfyLywaIWgso4a4JPsPaAmRbkQlGqeYGcG8nQoGLQJ4JQVlbGNQia9Cp/CUeAI8AR4AhECgHJLzGVOpEEIgus0JNSAVGNYOir9oDaJtMCOUESOQjUWTIIsJgtMJqjEErZE0CBKlGUZZGyOXrZb/Vi0Q8GA9NssJwMfcgHIXCC0FNv8H/nCHAEOAIcAT0iEBzNQPLRaZlIAm2KgcJPvdYedPQ7aC9uJLCy1BarRfZv0PpS8yQEkQNWr0G1o5DpQ/W/MPZNPk4QtO5c/j6OAEeAI8ARiBgCRBLUED855LBTvYNevInaVJ0SA22zdsgx0QAzkYNoJGIKRVaWA0IuMU2pnimsksgL+SLQn0guM8u62DdyQKIIZ86c4SaGUDqF38MR4AhwBDgC+kZA8dHri5BECGSnv+AETEoJZwkwWSg6wtwn1X2f5AtO9ayQAtIgkNwUtcDIAcvH0Je3yM9ygtB3DHkLHAGOAEeAI/BdQEBNpaz4NQR/Ep3HWfIlRg4MEdmAw4UsYFLxeJnGIPgi7QGFdZJ8LFlTJAjC6dOnuQYh3F7i93MEOAIcAY7A3Y1AFzufmi2RnB/b0zfLeRbMLDOjUk2x79r7XmFH0RssWRM5ZSotUJIkNXMkq/YYwXLQAicIveon/hBHgCPAEeAI3I0IdHUkVhIsUTij10en8/aES/SJal6FgFNiDAgCkReP28NMH2pEBcnGEjYF5WOIRIpltVs5QbgbBziXmSPAEeAIcAR6h0BXmgNydKSoAGZa8LE8AnTJ1SGF9pBBJc9CJNT34QivajZYiWlWB6L9YtqD4CqS4TTcw73CqVOnuIkhgoDypjgCHAGOAEdAxwh03vFIW+AXGTkQybQgSexH1RxEuuhT2MgofhEs34FSa0HVIFBpaxNVraR8BxGIWugsGycIYfcWf4AjwBHgCHAE7loElDwCsvwSyIZPdQwYORBFVjxR5RCRyEbYJ5yUOhBEDoILUwlKvQkDRS2o+Rgi4JR4G0E4efIk1yD0qQf5wxwBjgBHgCNw1yDQoZaBHNJI+QRYHgFBkP0PWBCAAIvFwpIv9SUbYV9woagFRg4o34Gi1WDiS5QUygATZXPsa72JOwgocILQl+7jz3IEOAIcAY7AXYVAp1oGVOSISIKqN2CpFAxKlUZTBKpB9hacINMCmUBU9wfiCSQfS/XM8h0oqgOuQegt0vy5qCDQk+4pCgM2Kt/BG+UIcAT+fBBQ1y2BMhJK8AdpENjmS8UQTSbmmNjnUtF9QJVCGt0eN+h3cNQCNWlm5KBTnYUorLfCiRMnelrm+/CJ/FGOAEeAI8AR+M4iEIHMhZpjE0QQSFVPaYspvJFFL4hUKpoqNVK2RFNEkg2F/X2K34GHUin7SbPRUQw5W6JKXoJYQSQJgoJRtwShc/nMsD+SP9Du6dIdFpHs0FDwDp4YXd0fLlXUWv5QvpHfwxHgCEQOgTutGSo5uJtJgoIUaRLISZGZ+UmDQFUhKSpA6zVOIQcUzkhRFYFNRN2wBcW0QH4RwdkSIymn6qVJfhjHjx+/fVuQwDwmSb0RqBAVuSHHWyIEwt2Mo4laoIZpNF/Si7YjOeh78fq75hE99l8o4zuW/duVfLGUp6vBFixPT3hG+nvu9D5VLgmwxMlOfN+JK/ibYzUWJMDL6kB0SqWsEBfyOyDNBiMH0bpUHChSoiuCQNqDC+cv4Le/+y2zwRCbUi9Wa1ovl+KsITt36kguJcEGs2cxyfQlG5NKFe4Ofak1OZRxkt+qP8yChlgU52Zvp5baV7rETenR3n7bn/dzemR/7XPhlVdewZixY5i9nl99RIC0B6rfAeU7CCJitDQSMQiYFvr4qjs+rmgQRL+ve4JQdqYMr37vVQwaNAg5OTmybSaarCXUD1bCT5wuF2pra9GvXzF7kkiNphtaV5uEwgM8Xg/qauuQm5vLinsEL9rBMsZiMSe7VktzM5KSk5AQnyBj1w2B0RRPgKUQbW1rY6q+zMwsXZE+io9ua21jMmZmZobE4LXs39aWViZbeno6O9Gxd8eSlwbND1ubjWkjk5OSYbFa5NK8vbwiPSZJrpbmFiQmJrIfvVx0QiQtbl1dHZKTk5GQIM9VLa87jd+K8gq0tbXh17/+NSZOnMg2Ln71DQE1pJHCGjubNkxGE8wmMwwRrLPQrbSKX4bP44Vw7NixLmcrEYSXX3kZb/70TcyaPYt5e+rlogWmqroKmzZuwvLly+UYVZ2IR7I1NjZi46aNWLhgIVJSUvQCGxt0DfUNOHToEEaMGIH+A/rrBjcCyWazoexsGcs3PnnKZF3JRhsJzYnW1lZMmTJF9m7WyyUAx44dQ1NjE1usE5MSdYXduXPnUF9fj2HDhyEnO0cvqLH5QIeMo0eOYsiQIRg8ZLCucHO5Xdi+bTuGDx+OAQMG6GrMffb5Z9izZw/+4i/+AhMmTOAahL6OaiWkkQ6XbK8NItikwW8Paezri3p+XvJLIO0BEZUuCQJtcrQYvrL8Ffz61/8NCxcukE/oWmsQOlazhJqAmk5zxGC//PJL/OxnP2MTJ5IFKnqG8A53SEBNTQ1WrlqJ55c9j7T0tD41F7GH2YFSYgvirp27MG7cOAwdNjRizUeioZaWVhw/doydNmfPmh3bxbpTXJHb7caRw0fQ3NSMufPmyg5Md7pUR59IANO5jc4xTxJQWlqKhoYGPDrtUXbiVKw10Xh72G2eOHECNdU1GDNmDAoKCtqfjyWpVxbgyspK7N27F6NGj8KoUaNk3FSnuxiakmi9dTgc+Gr9Vxg7diwjCT2OubB7ppcPSMBbb7+FLVu24Je/+CUenPAgJwi9hFJ9jLRFXopaEP23tUSaA/oRjBoMSMX/kDJLUmSHcPTo0S6n6ZnTZ7D81eX4u7/7NZ54YmEfPz+yjxNBKC+vwEqFIAQySUX2Nb1qjSY2LYarVq3CsueXMZWvbi6FvOzapVOC0NyC48eOywRhzmzdwEaCMIJw5Ag7pc+bN08/i7ViXtu3bx8aGxrx2GOPMfORni6VINBGl1+QryfRUFlRCcJu5KiR7QSBJNRgLe6JYBJBWLd2HcbeM5Zp/PREEN5++21s3rIFv/j5zzlB6OuIlsBKOPsopLFTRAgLaSTTgkYRFXK4p1/J3IiuCYKqQWAE4W//Dk8seqKvEET0eUYQbpVj5cqVTIOgN4JQXV3NCAJpENIzdEQQAJBsTINw7zgMGzYsov3S18bIFnzs6DGQmk2XBOHwEWY+mjd/nq48t2m+7tu7Dw2NDYwgMA2Cjq4Tx2UNAm10uiIIEtClBiHW5EDpO4fdgbVr1+Kee+7B8BHD9TPmJOCdd97Bps2bOUHo7TxTiYAIVv+BDkUBM74y/si0QI6J5H/QoXxjb9/Zw3PBFSOJqDBFZVcahDsShE4MJ0qy3rHZu4EgrF61GsuWLdMPQVD6jRbqnTt3MhMD2YT1dBFBOHr0KLN96Y4guGQNgm4JgqJBmPbYNF0SBCKmRBAK8hUTQ6w24eD1SwKqKquwZ+8epj0gM4OeLrtCEMbdc4++NAgA3n6LaxB6PVZUnT25zvnlJE0eckwMvgwA0x5olM2R9nxycqaU0ypRYQThyJEj3ZoYKIrhb//mbztqEPRCEMpJg7AKP3vzTd1pEGgTXr1aJghpaWmxV1fSwOtAEFQNgs58EEiDcOwYIwjkGKunS/VBIBPD3Plz9XOaC5gYShl5eWzaNP2ZGI6fQDXTICg+CLFcQzq9u6qqCnv37G03Meho0KkaBCLzpEHQk2PsO2+/w0wMP//Zz7iJIdwxE7TjSuR7QKme/R19DwSDhtoDcpD0y+SAlZNW5OuWIKgaBE4Qwu15OdxSlwRB+RSSTfZBuBdDhw0J/wOj+AQzMRxTTAyzdeaDoGgQOEEIfwCQiSFAEFQNAjUTCy1CVwRh716MHKn4IIT/eVF7ogNB0JOTIgCVIPzsZ2/yKIZwR0BQIiKq0kgEoUPoL2VyNGqkPQikdfbI5EA9TIKySQLC4cOHuw5zPF2GV1+TNQgLg50UY8n+lY6QnRTLsWrlKrypRw1CTQ3WrFqD55Y9px8NQhBB2L1rN/NBGDJUnwRB1xqEpiYWxaCn7HG0uJTukzUI0/SoQVCjGMaO0ZeJAQBpEMh/gwgCOSrq6WIEYd1ajLtHhxqEd97Bli1b2fo7gUcxhDdsgggCRQsQQehgXaBaEGazJr4HZE4gzYHX570tasxoELomCLTgnD1zlhOE8LpdJl93gQZB7wSBOSnqVYPACULYsyIQ5hhMEHSkQSCCMGLkCDmKQUdXB4KgNw0CJwi9HylKKC0ViaLDENn+g1MIGI1kXqDIBSrl3PvX9PQk7VXk/0AydM5zRNoDSvLXpQaBE4SeoO3+3zlB6D12d4WJgROEsDuYE4SwIWMPcILQO9x0/1SAIPhZeKOfyjkH5RiijZnVW+gp10pfPjTYtOCXTQvBXCQgw6FDh7o1MXzv9e/hb371Nzo1MVRg9apV+OlPf6o/J0UyMaxeg+ee06GJoaYGpEG4d9y9GDx0cF+GWMSfZQThuOKkOEuHTopKHgRdmhhKS1keBH2aGE6ipqZaTpSkpyiGYBPDqJHMzKCniwjCunXrAmGOenJSfPedd7Flq2xiePDBB3iipHAGTieCQPUXQASBkhEaBKY9oJ+oaQ8UcsC0B37ZtCAEmT1Ic0Ep0clRUuiKIKgaBE4Qwul1+V6mQeAEIXzgAJYTnwgCsWrdmRiCEiVxghBe95440QVB0JmJQa8+CAGCoEMTw1byQaAoBk4QwpsQQQTB7abUyiLbjNXfFNpoNJuiShBU00YgQ7JSSoE0Gez9Jvn9wsGDB7utxfDa66/hV3/9Kx1rEFbjpz99g2sQwhieRF70q0FoxfETx+HxuDFLrxoEMjHM1Z+T4v7S/cxJ8dFHH9VdmONJRhDkVMv5+UomxSjaVu84HbqIYmBOijrVIKxfv15OtayzMEfSIGxVNAgPcIIQxgqs3Eqp7/0iOwyJfr9MEJQiZlarFQZTlPwPlIqR9F4iJIHLILBU/GajWS68pczPLgkC0yCUnQUnCL3od65BCB805YmWZk4QegMezde7jiDoTYOgd4KgMw0CJwi9malBzxBBkCR43W7mg0DmBTIzSJIIi8UKU9Am3cc3dXicVYykmg++jpETxJspnbOsPTAGnhEOHDjQrQbh9e+/zjQICxYuiKSMfW5LrcWwZvVqvPGGPjUIa9esxbPPPYu0VJ0kSlJQp5Pcnl17WCZFvfkgUMni48dJg+DBzFkz+zxOItkAJUqiqn9NTU2YM3eO7sIcAwRh2qNIStJXLQbdaxCoFgOFOerQB4E0CJRqmbKe6skH4b1332MaBPIB4xqEXq40lKCI1WDwB6IIiDSQg6LZQj4AkVWzBWdLRKfqzOQQqTomBn9NlwRB1SAwgvCrX2HBAk4QQh0Cqg8CJwihItZ+X2tAg8AJQjjoddAg3C0EQU8ahLuBIAwbpp9iTQA4QQhnhnZzr1I5UVb3K8UP6Bed5I1yJEOkHBWZtkKp0MikCSYIFNJoNsuOpp04CScIEejn4CY4Qeg9oC0tLaCse1yDEB6GnCCEgVdXPgicIIQBoHwrJwhhQ9blA0QMmB+CKAZ8EMhRkBVqMplgNLer+3v9RuZ3IIdUykREjphQLzIpdKexEPbv39+tieH7P/g+MzE8vuDxXssWjQcDJoY1a/DGT36iSyfFdWvW4ZnnnuEmhjAGADcxhAFW0K2MIOwPclLUm4nh5EmWflyvToqUhZISJenOxOBwgJkYxurTxLBt2zZm4uUmht7NW/YUmRko3bKvY7IiMi8ESEKQT0Bv3sT8Dkh70CljI7VFZitySuwuKVOXBEE1MeibIJRjzZq1nCCEOWL07IPANQhhdqZy+11JEHRkYrgrCIIeTQzbtuKnb3AfhN7N2van5A2cCja112RQEycJTJNgZD5PYfkkKKGUdJimQkzMKbGDKkBi5IDCGZkpg8U03v4lQmlp6e0aBAkoKyvDD374A/z1X/21TjUI5SA7/0/0qkFYuw7PPKtTDcJuxUlxiL4SJZEGgZkYvB7MmDmjr/Muos8zJ8Wjx9DU1Ig5c3TopLj/AJoaGzH10an6c1IkDYIa5pinrzDH6qpqlJaWsnLKpEXQ0+VwOPDV+q9YmKPenBTff+99bN22VdYgPMATJfV13HRFEtQ2iSwQQWAbelD6ZaHTjk5hiioJoORLRA5ESf7d0SlRtrORz0FP0RJdEgRVg8AJQvjdTtjV1tRi7dq1nCCECR8nCGECFqxBoDwITUoeBD2aGDrnQejdp0b8KSrWRBoEMi/omiDoSYMgAe+//z5UE8P9D9zPMyn2dWQq2Q2pcJJf9DN/hEASI6Vt5ptgMAQO+0QQAima6XmQH4NstmDPB+c56CQf8zswmSGYDHeUnBOEvnZsp+c5Qeg9oIwgnJCdFLkGIXQcA06KnCCEDppyJycIYUPGNiBOEHqBWwiP0MmffBL8FPoY5EioPqr+HVkDggmC/PfBxoDuQyQNBtIeWGAIwQFS2LdvX5cmBkqU9IMf/QB/9Zd/pS8TAzElSS73TI6AP/7Jj3XnpEgahHXr1mPpM0t06aS4d89eFls9WI8mBiIIZGKYoT8TwzFmYmjC7DmzdZkHgWTTo4nh1MlTzMQweszo9kyKISyWWtzCCEJpKUaO0LkGQU95EIggfKBoEH7yBrgGIbIjlUgCEQQW2SBKbL/rcCkRkfR3wUWegu/pilzQv5MGgvk0sBDKnvMsdEkQqPFzZef0RxAUKsOiGCr064PACULvJkxAg6BTgkA+CM16JAiiHMXACUL44+5uIAhjxo7BsGHD9ENKVQ3C9m14gxOE8AddCE8QMaB9mPkRiEQYyHwQFArZqfqi3OSdNnzZ7yBQpVExVfQkirB3795uNQg//PEPmQZh/uPze2pH038nwCrKK5id/8c/1qEGobYW69etx5KlOtMgSEBNbQ2YBmHcPRg8WIdOijo2MXTQIBiilCu9FzOJFpID+w+wWgxcgxAegMxJcb/ipDhCf06KX3/1NQsP1ZuT4gfvf8B8EMhJnGsQwhtzId+t7MzkfCgSYSCNguqISJUfleKAantUz4Eu8mMIznNAf0fPGY0m5isSKCPdswIBXRIEVYOgS4KgOHNUVlayksq6NDGoBGHJEqSmpUKQlBCSEDok5MHTmxv1ThBalSiGUHwQOpvcOuMhG+l6vrprp9PzqWX7jAAAG2VJREFUFMUQIAizFRNDKO33LEGf7+hAEKYqUQw6kY0+Ts8mBl0TBLsDX38tE4Shw4bqR4MA2Qdh+7btnCD0efb2ogG2ZqnsIeh8LxhYOCPlPOhMEIg8UDgjkYTAuhjCGtEjQfibX/0Nyz2vp4s0CEQQqBTqj370I13lKCec6uvqmXZjiUIQ9IRdbW0t89qm0KmBgwbqSTS0tbXh9KnTcLqcmD59uq5k87g9rE4EqfGpTgQLN9LJRQTh4IGDTIMwZcoU3VVzPH36NOpq61jFxLy8PJ2gJotBvhGkfaET+vDhw3Ulm9PhxIYNGxhBGDJ0iK7WOU4QYjhUukptSJELlPPA520v/hQkIoUzknmhQ76DUAjCnj17bnsd0yCcPYcf/uiHWPTEIoy/f7wcS9n5zi5zMEYfOFKXNDQ04NDhQ5g3dx5z5OgyiUSM5Gtta8XhI4fx0MSHkJCQ0CFkJSw5Iy2/ALS2tuLs2bPo378/8gvyOxQJuf0QHsII6mt3B53UaUG8fv06c9ChRZGlBe3iYmo2xYuXfqv/r96qxgd3vq9zUz21E3w/yXTt2nXY7Tbm4MmcgyLdP73FUgAuXboEu93O4vmpXGysZQtgKwi4efMmmpub0a+kH9LS0gL92jmOu7ef36vnSKknCIzwXbx4EYWFRSgsLIg5boFvEcBOgseOHUNJvxLk5uUyr3XNrs45+VmlwfbQu507d+LcuXP4xS9+wU0MmnWK8qJOPos0LGitpOgHIgidL6PByLQHcrGvoIRIIQwnoTuCcPrkafzkpz+Ryz/q6LSkfjwNVlq0ZVakr0vvshHZo8HSnQdsLNFUiSiVHtXbpeZL1+N8uBtk0+OYUx3B9CgbjX9a4/QoG21GNOb+4e//AY9MegQWi0Vv0/W7LU/w4UQCS9Xs83ohkm+CEp1Av+k/s8UEyshIqZvDMS+wQ9ju3bu7PAc1NTXj/LlzbANWSlVHHvDObw6B0UReCA1b1NP36uX0qyH8Yb+qp/EYbQx7en/QBwVnUetA/KItY9ighvhAGN8eYou339YdNlq8uyeh9bRWdCGrqk0YNHgQMtIzdFVpsidov3P/LgFuKvikhEYy7aEghzRazJb2NAC9GNfdEgSVWX/nwOQfxBHgCHAEOAIRQSCg3VA2pYg0yhsJCwG2Vyu5E3yUYMkvMoJAWp2uSjiH03i3BIE10tPpoxeMJBzh+L0cAY4ARyAqCNxpbePrWs+QB+PH8eoZryjfEUwS/KII5ndgIr+DroswhSqOsGvXrp5oQKht8fs4AhwBjgBHgCPAEYgBAqrZhzntk/8B/RBB6MPFCUIfwOOPcgQ4AhwBjgBH4LuKgLBz506uQfiu9i7/Lo4AR4AjwBHgCPQSAY0IAmVx6BxY20uJI/WYSov6poGJlDShtcMdgULDSXGfua1r9dTnXdFyPY5FPdma9SRLVyNRnZ+3RSDEduAFlo1QxAjlnpBnIb/xbkdAG4LA0kIGr35qOaoYroiBiUDkhZXF6topM4YiBgZX0IKjZm3WxcALyBVUXkwlgrHATU0/GuhKSU5zrSYH0c3ip4y5QCcqYMUCs6CB1J5wSgawszgMvr75PPV62LJ3K/nnb5MsxrjJceAk3x0EEbRi98ogV3+pMfGdyFUHaYL/RzdzpNdDhT8YQQSEb7/9NromhsBAVSa46Ke0TwArdkOJG2I3u2lBFFR5/OpGIgCUpEeVK2biKZsILT4UtkJZBUkmgwGSUU6AoWVitdvGXDA5gJ/KiSibcVA6T62xU2uiC4SXT8GNNjvqTwPDjjBk+MVy3EkiBFU+ko3mAiUji2luKMJMBHx+oEOmNhpnCnZGgwxlBBeg0JtiuWQBmq9+ACJLhQjJZJAdsWLQn+2khf5E8tFcVbSlKmbBfaoJcIosqjxEWlinta8Xcs4MGoNU2IbuV/s3SEBNZA299/mdsUEg6gRBrktNPyIEjxfeCxdx4+RppI4dg8yRI2Ewm2Pz5UwuL8SWRjQfP4Xre44gKTEFGQMHIvOhiRByM2S5tJwoASZPaa29kOx2tJ29hKt79yPeYIIpNQ15DzyAxBFD5M1Oa/mCe0peHal2GCSfE21XruHKvsNIzMzHoEcmwZiVqi12ygmT5HE1VKP68GG0XroGs8EKCSa4RSAuJxcDJz0Ma34OYNSyY9uBk4hM2VpgO30ajafPwt5oQ1xxfxROn4a43CwZU803Owmi04Hyw4fReKoMVkmAIBFqEkSfBNGaiJRhw5B1zyiYs9JiIB5taD7A1ozqw0fRcOYSTH4BCTk5yHxgPBIGlgCUUVXLLlXGv8Q0A14ILjuaz5xD9ZHT8DTbkD9kKDLuHw9jQR5gUup2RFO+wNpBWBGD8gO2RjSduoiGOieyh49AyoACwGKEABGe8puo3LUXrromWKyJyJkwAYkjhkKIt8Z2XYnNbsDf2g0Cwo4dO6KrQWBs1QPYbLDvLEXdN9txsa4Gj/zVr5B476j2yaN1F4leSHXlaNm1C5e+3gFXswMGiIizWpE3dQZyFy2EqTBb+0WHqSq9kFrqYdt/EJc2bUfLtXKYidBYLCh5eBryFi+EuX9hbE+cbNTQic4J99VLuPnFGtw4dRFZD03FuJdfAtITtMWOjR86EXnQdrkMlz75AvWHy2CxxMFlMKINEtLvuQeTX3sd1oKcGMhG8vkhNtehcc9u3Pp6K1yVdZD8fiQUFKPkicVInTQBhtRkoI+hSeFPJRG++hoc/2IFrm7fjSRBQJwkIpmqwnl88KdkonDmXBQsmA1TPpEYjS9JhFR7C817d+P69n1oq6qHwe+H0WxBzoSHUfD444gf3J9tfppdyoZMhA+t9XAdOYzLG7ah6VoFDF4vTBYLBi96GpkzZ0DITpO1ktG8AgSBNEBeoKYc9d98g2t7j8CUNwKDn34ayaMHABYffBU3cPOzVag+eAKSm/L3u1E4YQoKFy1C3LCBEOJjdGiLJj687V4hEF2CQJuazwXx0llUbNmBlr2HkNTsgC2/AKP/6Z+A/vkxY6uSxwXn4b24+L/+EyZzPAYvWgyDWUL17l04X16Hh978WyQ9NBYCmyva2g8lvwdtF07h5P95C3GiEaOmToUlPQkN+/bh6pVbGPDS95E3cwpg0tDM0IFGqipVN3yVV9G47is0bi0FTMlInb8Y+UufABLMmm/CZOaAvRn2o/tQ89UmmA3pKJw1F/6MdHjNRgipyYjPyYFgJvOWhtixUS4Czla4TxzE5VVr4WgTMHLSo/DZWnF2/174S/pj7KuvIqWkWHvZqAiPxw1PQx18zc0w+r0wtrXCs28/avceAUqGIGfJEiTePxbQePMgDaTgd8NzbB8qP18Bb70TuZOmIT4tGZUH96OqsRX9Fi5BwfSpQLJVmzEXbF6TPPCWncbND/4EqcGG3KlTEZdgRsXe3fAKichd8iyS7x8DIT6atQqoiJLIzGaSowW2E8dRv2MnxKMn0dRqQ+asp1D4zNOwFGdCaq1C25aNOLZmC/qNfgBF942F69ollO3ah36zn0Te/Nkw5KSyw0c0FR692q34Q5ojEFWCIPm8sB8+iPIvvkTjrVtI8vmR6jEhedxEZLz5OpCXFrNRKLqcqNixGQd+/w4mz3kcefPnQ4QdjRs34OS2/Xjwjf+GxEdGwxBHzF8rgqD0v+iH39UGX30zTIIJxoQ4oLkWzZu/wZlvD6P/C6+haN6MGBEE2VxEKl+pvhL2bVtRs34zzM0OWEfcg6ynl8E4fhQkq1FjVTQtkn5IjTVwbP8K9sPHkDZmMqwPTwPSM4A4C2AlW3+s7Kw+oL4SdatXo3X3QeQ9OAUJkx9jpMXrccOfYIUpOwOmuLjYkGZmQpfV04K7FeKVS6hctxGtN2pRMHMeUqdPATJSmGwMQc12D6pE40TDxnWo+2YbsoaMReasuRDiBdza+BUqT15Ev1mLkD/zUSAtThu5ggmCswWOvXtx8bOVyBtxD3IfXwDB4kfjji24dOAUiuY/yWQzJMdHUTbZ1Ce2NqJ65y6U79gDobIGGW2tsKTmIfXxxUiaPQ2GDDM8F8/g+G/+iOyUXBQ8sQjWQQWwnT6K4x99jgET56FgweMwFKayeaJZF2u+7fEXhoqAsH379iiZGCSILhdOv/UWjDduYsS8RyFV1qPi22PIfmQmEp6cCaRFc9LcGQJS7fpam+Ctb4I1NQXGhGT4L5ahas1KnDt3DRP+339Eyv0jAGMM3HoDfhuK9sJlh/fcGVR/vgotDmDACy/Jpzna7LSaxaqzKXNGJLVqE2z7dqN63Qak2pzMIdA9YhyKlr0IDCySyYumlwRJ9MJfcQPNX36Bpr0HYcguhD0tEwkFBSiZPBXmEcOBOKX6p6bikfOaA+KNS6j+Yi3a9h1Fcm4+GtMzEF8yEIWTJiFu+GBIcbJqNyYOlIFVwA+pqRLl679C3b6TKBj/MHLmzoZQRH4bBnm4aciXZQ2CC63fbkbt+s1ILxmGzBmzILraUL55E5qa7ChauBiZEx8A4rXzQ5Dh8gONNbB9uxPn132DwsmPIf/xhRBczWjYvAHXSk+iaP5TyJ0zDUJKNE1uMml3lF/Dkfc+RnF6FooGD4C9dB+cTgHpsxcibsJYiP4mOHbswOmVX6P/pNnMjGrIsKD1yF4ce+dTlNzzGIoXPgFTSQZg1nSCaLpS8JeFjkDUCAKpvMgW5m9ugcFlh2D0on7TdlzedAD3v/GXMN83TNMJ3SUk5LXNtOUeSHWVaN64FafWfIOR0+cj86nFMJAPgiFWBIHmvB9iUy2aS3ejekcpMv1xyJw/H6ZHHgQS4zS3VVMpUVLjGxxtaDt2DFfWfw2TxYqBo0fi1relsA4fjQHLXwHSEmPgbEfjzQP3lYuo+dPnaDh8AlJKKjySxFTmGaPvQ/9lL8FIvhtmrfWnIiRHEzwnD6Fh5ddwll2FPyEJLSYT8yTPvOdeFC9dCtOgErYJxySUlQXNSBC8DnhOHcWNL9fC57Oi35NLkXDfaAhWkzzeNJoO6muY6lx0Qai+gbp1G2A7fh5CfDIEtxtOnw9Zc+Yjc/pjENKStJsPAbLsg9DWCPuu3Ti/ch0Kxz+AvNlzGEltWL8eVddrkf/cy8ieTQQhPro+Q1Swx+2Er7UFJqMRhvp6XH3rHcSn5SHryadhHlIIb+1lVP/pM3hOViF/8RIkzJ4EGO1o2fMtTnyyFiUT5qFo4QIYC9MgaE7wQ9+0+J3aISBs27YtShoE5ajB1JYuiE1VOP/eO6g8XY9H/+7/g3FQLgQNfYpkSDsdfZhsHoj1lWjYsROXV29Cfv4glCx/BcKIwYBF641E6XhVTL8XvluXUL3yC9TuPYG85FzkvLIcpqkTtdUeBMajH/A64LhwDtdXrIPo9mPE3Nlw3ipHxe4DSB7/EApefEb2P9DcG1+C5Lah6fgxlK/fhDRrIormzIDobkPD5s1orrGj6MllSJzyIJCkeGprNs/8gL0W3sN7UbN6E3w2oHDadBhzs1Cxbw/aalow6MmlsE4cD6TEa3lA74gAaYaa61C+dh0aSo+i8OFpyJw7B0JOuqyp0vhQKU8DEfC0wXagFI3rN8FRWQPBYIbV6UVq8UAkL3kaJtKmEYHR8mLCkY+VE44jR1D+6RfwNbdByMpEfFsb4mtqUeM3Ifel15A9ZxoMqfHRlU5dM5j20Q3p6jUc+Y/fIqf/SBQuWwpTfio8V07h0u/fRbKUjfwnFsM8YQTgrIF92zc4snYHBsxbhsL5s2DISIyNFiu6CPHWe4FAVAmCnHhFAPxO+C+cQNnHH8PtTMIDf/EroDhd6/WmE0Egta8HUkMVWnbsxvk1G5FTMhz9n1kKw+gh8oKjoSq1w8ksQNlESO4WoPoq2rbtxbVN+9Bv/pNIX7gASE/UeNGmGHkn3DcuofLL9fBV1GHgnJkwZGXCse8QnDfrkT57PoyT7gcSLaDwL9lWrc2uQmNNEn2QnA5IdjeMBhOExDgWqWLbvAbVB8/Aet8cFD+3mEVYaCOVnPsDAtmHa9C6axtq12xBXEYJil58CYb0eDStWYGmE+eQNvNxpM6YBkNORsckRZoJShuxHb6yU7i5agP8TgOKn34a1vFjIJDGRcu8G8E2ftEFZ9lJVH25HmJlE/JmTkPi6MFo2lOK5lPnkTllOlJnPib7R2gV/dHhSOUHHK2o2bYVV7Z9C6m5DTkuN+LbbLD2H42UZ5+F5YExEBKj6aTYvvIzk4yrCe6jx1D23icouG8ycpYsgiEzHo5zx3Dsd+8iP3sYihcthmV0f0jl51HxzjvwN4rIevo5xD88HkKSVc6zwq8/ewSiRxDYJFJ2WJ8D7t1bcXXlWhRPmoekOfOATFJDa32pSUzkcDipsQot23biyqqNyM4uRuELL8F4z3AggTY4jQ/BKl50ivPTD9X0pqRNIuBqgLP0EK59vA5ZDz+G7CefAnKStdp7FeWLH1JbI5r27MSlFWthtbmRlJvD1KZxDU1wew1wDhqG9LlzUPjIeDmBjUbkQNUOEUEQfD4liQ4lHhIh3ryMlrUr0XSxChmznkLqjMlASpx22LEp4INkr4fjQCma1+9BXGYJMpc9BcQDzas/R8vZS0ifuxhJkx+BkJ7CDqaBS5N1ml5IfiW1qPx6A+p2HEPemInIXjAHQn+5j2UxNBFGMWMQsaKx34obX29Azaad6DdoNHIfnwOhMBX1mzaifucBZNw7AVnz58FQmBv9UMIgBR8JKZAZ1e8DPE6I9haItjYYHE54D5zA9W07kXnfI8hcvAgoyVNIVvTWO3mlJZpMWqAqtG3dgebD5ch6ZBISpowHkgXYzx3F0d++j+L8YSheuACmIYXwlB3D0bc/RPHQe5G/aBEMA4uVXAnRk5W3fPcgIGzdujV6JgYl9a3kakXTii9xYcM2PPDjn8M0YTygOGRpteaom4i88/shOZth27MTl//4J6TBjP4vvQbh3nFAagIjCGAJnLR2AhQhOlvRcOw4zm35Fv2HDEW/SRMhuVrQunMfLu88iH6zn0D2U4sgpVi02+QIPFGEt6kOlTu34dquPbDavUj0S7A62hDvcMEZl4K2QUNQMHcOCh65X/vENaIPtqqbuLJtG4R6O0Y89DDMuZlwnjmJik1bIabmYvAr34NhUHG7A6UW+x1buf2AuxmeM6dRuXIjRJ8RA55aDBE+XNvwNewOL4Y/9yKsY4YDVrOclE+RTQsR2dzwOyFVXMb1NV+h7mw1+s9cgJwZkyClqmRKM0kC2zBtdoKzBTeJtGzaheJ+Q5EzcyoQL6F263bUnr+GvEdnIWv2TCArXcPkV7JTIOUrqS8rw9UtO5CblIzC+8ZBcDhQt3EbHDfqkPP0EiRNnwQpOUGTsEE5Q6IbYuUVnH/7Yxg8KSh5fCESxg0B4n1wXT6DM7//AFmGFBTOegzGjGRUfbMJjeeuovjppUid+SiElFjk4bh7Nsw/N0k1IAh+iK0tuPj7P6L+7CU88k//DPQvat/ctF53iGX7XLCfPYYbb70P78WbSLXEw1ZQCFdyMhzxCRg2fy7yxo0FKORMK/kYTRMheRxoPnkcp9/5CFabA3GZGfD5SEXtRNbQUei3eDGMowZpuBiqU4Jwc0N0tEJyuGHw+iDU16Jt3z5UHi1DzviHkL5wPpCdASFO1sBoqqaUfHDX3MTNDd+gZucBJJqsQGICRIcTCZYE5E2ZhvR5syClJcondC37lV4oeeGrqkDFqvWo23cQ5vQ0+PwizG4RuQ8+guwnHoehIDNgNtJSRMZIPA64jh/ElTVfwSukMJ+I5HtGxMChM6APkrOvel1o2l+KqtXr4auuh5CaCh+Zr+wupBcNQs4TTyBu3CgIanSKJiu4TBAkyYu282W4+sUaeC9cQ1xyEvyiCJfbi5Ip05EzeyaMlJTLFOUkSaqyliUKc8F99Rz2/OYtZBWPwLAlSxFfQtoVHyQKlf52J26s2wqDwcTksrW50O+hqcibNwOmkkLApCRJ0mp+aNJf/CW9RUDYsmVL9DQISs5vZ/ktHPvkC5icfoz/yY9gIqcnbVfADvj4vQ5UHdyHsg+/QLZggigY4BEM8EsCnMmJGP/S88gcM1oz+3lAONYTpN1oQ9vJUzi7aj3cNjsEkwUFI0Zj0Jx5EIpyIVlN2m5yHQQkIWkh8sNfXYWa7TtQe70CI+c+Dss9owGzxs5iQbJRgikvpZDdth23jp6ET5SQWliMkTNmI274cCA1UTs79W0zkhza3HBdv4obW7aj/OQZJKdkoP/4h5Az6WGAUnvTRhKThVmC5LThxs4duLX/EAqGjUXJtMdgyqMont4uLRF6jtT4Ljta95Xixre70NLYBFEwomT0WBRNeRTGgf0hxWusTWOfpmgRvE7Yjp/E1U3bYKushVcCBk5/DPlTp8KUqfRphKAIpRnJ7UBD2Umc/mozcoaMxqDZ0xGXQU6mSvr2ynJUbtiM8rKLsDk9GDR5KkvzbSbfF6oHoqlZMJQv4vfEEoHoEgSlypnkpVTLDmYbpsQwbCCqVwwWREnyQXTaINgcbN6w4y4Vf4ERooky7iXBQIl1tLw6Oz55XJBsrQClu6V0jnHJEBLjIZmMbGmKSfSlggdzz2C+Em4ILhckvwGCNYGlgo6Ft3uQjgOC3wvJYQOcTnkNN8VBSEpmssUkfDBoDLFMjz6Szw64XBAEM4T4RCA+TjP7eddDWi5uxXDzeAFLAoS4BGXD0HISdHqX4pfDcHM7AbudzQcJRnm8JSVCoBoMsVpLKOxXoOgZJwS7A6zgh2CEkER9alWKgylcgmSM4lqnBlVQP4oeJ+tHwWiFEB/PipOx19N6TEXCHHZITg8kvyyrQInYGBGUTaoxPLvFcLDxV3eFQHQJgsK0JVGSK66xCd9plkRx0typy+UiUqrrVTdTQmPZVI4QkIYRLNUgTQp7WpCokE50F5vucFPLAXd0omPR80olx6AnNcaO3ixL0r4gy8NNU0NHCKtMe6lnhpsKJuvTGICmzFEWbaFseO0sL7ZVLwOisTkg96089NXqjZp7c3age2yosdpaQqDisypzYJlThY4yQQjs6ko2TLZOwBC05MrrBiPJd9AZa+77EsKM4bfEDgFh8+bNUTQxdPNh6htjuB6GBLmG8nXVCbe9PkbE4DasulqXO3+AhtiF1JexHnPBQgb3o676lHa7WB3H77BW6G0s3fHk0ekftSIIXcmkjK0uh1jnv9TT/AhpQvObtEAgNgRBiy8LZxJ3d+/dtDDFGlP+fo4AR4AjwBH4TiEgbNq0SXsNwncKQv4xHAGOAEeAI8AR+O4hwAlCNPu0r9SLazCi2Tu8bY4AR4AjwBG4AwLCxo0b+7qNcYA5AhwBjgBHgCPAEfiOIfB/Aegu/kMVcCnTAAAAAElFTkSuQmCC;" vertex="1" parent="1"><mxGeometry x="56.000024414062494" y="57.999975585937506" width="520" height="418" as="geometry"/></mxCell></root></mxGraphModel></diagram></mxfile>